<?xml version="1.0" encoding="utf-8"?>
<!-- Generator: Adobe Illustrator 22.0.1, SVG Export Plug-In . SVG Version: 6.00 Build 0)  -->
<svg version="1.1" id="Camada_1" xmlns="http://www.w3.org/2000/svg" xmlns:xlink="http://www.w3.org/1999/xlink" x="0px" y="0px"
	 viewBox="0 0 1366 768" style="enable-background:new 0 0 1366 768;" xml:space="preserve">
<style type="text/css">
	.st0{display:none;}
	.st1{display:inline;}
	.st2{fill:#4E9C40;}
	.st3{fill:#00386E;}
	.st4{display:inline;fill:#333333;}
	.st5{font-family:'Roboto-Regular';}
	.st6{font-size:240.1837px;}
	.st7{letter-spacing:-1;}
	.st8{fill:#333333;}
</style>
<g class="st0">
	<g class="st1">
		<g>
			<g>
				<path class="st2" d="M787.7,391.5c-6.5,0-13.1,0-19.9,0c-14.1,0.1-29,0.1-43.1,0c-6.8,0-13.4,0-19.9,0
					c-15.8,0-30.3,0.2-43.4,0.9c-43.2,2.4-70.3,10.9-72.2,40.4h314c-1.9-29.4-28.9-38-72.2-40.4C818,391.7,803.4,391.5,787.7,391.5
					L787.7,391.5z M787.7,391.5"/>
			</g>
		</g>
		<g>
			<g>
				<path class="st3" d="M359.1,322.2c-20.1,8.9-29.2,32.4-20.3,52.5c8.9,20.1,32.4,29.2,52.5,20.3l205.4-87.6
					c-15.8-21.7-26.8-46.5-32.2-72.8L359.1,322.2L359.1,322.2z M359.1,322.2"/>
			</g>
			<path class="st3" d="M597.7,140.3c-31.7,82,9.2,174.2,91.2,205.9c82,31.7,174.2-9.2,205.9-91.2c31.7-82-9.2-174.2-91.2-205.9
				C721.6,17.4,629.4,58.2,597.7,140.3L597.7,140.3z M703.3,309c-61.4-23.7-92.1-93-68.4-154.4c23.7-61.4,93-92.1,154.4-68.4
				c61.4,23.7,92.1,93,68.4,154.4C834,302.1,764.7,332.7,703.3,309L703.3,309z M703.3,309"/>
		</g>
		<g>
			<path class="st2" d="M755.7,246.8v9.6h-20.5v-9.6c-16.7-3-27.1-14-27.1-30.7h26.2c0,6.2,5.1,9.3,10.8,9.3
				c5.3,0,10.4-2.7,10.4-7.4c0-5.7-7.1-7.4-15.9-9.6c-13.3-3.3-30.3-7.4-30.3-28.4c0-14.9,9.2-24.6,24.9-27.4v-9h20.5v9.1
				c15.6,3,24.4,13.3,24.4,28.6l-25.5,0.1c0-5.4-4.3-8-9.6-8c-4.6,0-8.9,1.9-8.9,5.9c0,5.3,6.9,7,15.7,9.2c13.6,3.5,31.3,8,31.3,29
				C782.1,234,771.5,243.9,755.7,246.8z"/>
		</g>
	</g>
	<text transform="matrix(1 0 0 1 93.002 664.5824)" class="st4 st5 st6 st7">dadosjusbr</text>
</g>
<g>
	<g>
		<g>
			<g>
				<path class="st2" d="M787.7,391.5c-6.5,0-13.1,0-19.9,0c-14.1,0.1-29,0.1-43.1,0c-6.8,0-13.4,0-19.9,0
					c-15.8,0-30.3,0.2-43.4,0.9c-43.2,2.4-70.3,10.9-72.2,40.4h314c-1.9-29.4-28.9-38-72.2-40.4C818,391.7,803.4,391.5,787.7,391.5
					L787.7,391.5z M787.7,391.5"/>
			</g>
		</g>
		<g>
			<g>
				<path class="st3" d="M359.1,322.2c-20.1,8.9-29.2,32.4-20.3,52.5c8.9,20.1,32.4,29.2,52.5,20.3l205.4-87.6
					c-15.8-21.7-26.8-46.5-32.2-72.8L359.1,322.2L359.1,322.2z M359.1,322.2"/>
			</g>
			<path class="st3" d="M597.7,140.3c-31.7,82,9.2,174.2,91.2,205.9c82,31.7,174.2-9.2,205.9-91.2c31.7-82-9.2-174.2-91.2-205.9
				C721.6,17.4,629.4,58.2,597.7,140.3L597.7,140.3z M703.3,309c-61.4-23.7-92.1-93-68.4-154.4c23.7-61.4,93-92.1,154.4-68.4
				c61.4,23.7,92.1,93,68.4,154.4C834,302.1,764.7,332.7,703.3,309L703.3,309z M703.3,309"/>
		</g>
		<g>
			<path class="st2" d="M755.7,246.8v9.6h-20.5v-9.6c-16.7-3-27.1-14-27.1-30.7h26.2c0,6.2,5.1,9.3,10.8,9.3
				c5.3,0,10.4-2.7,10.4-7.4c0-5.7-7.1-7.4-15.9-9.6c-13.3-3.3-30.3-7.4-30.3-28.4c0-14.9,9.2-24.6,24.9-27.4v-9h20.5v9.1
				c15.6,3,24.4,13.3,24.4,28.6l-25.5,0.1c0-5.4-4.3-8-9.6-8c-4.6,0-8.9,1.9-8.9,5.9c0,5.3,6.9,7,15.7,9.2c13.6,3.5,31.3,8,31.3,29
				C782.1,234,771.5,243.9,755.7,246.8z"/>
		</g>
	</g>
	<g>
		<path class="st8" d="M104.1,600.1c0-19.5,4.6-35.1,13.8-47c9.2-11.8,21.3-17.8,36.2-17.8c14.9,0,26.6,5.1,35.3,15.2v-66.1h21.7
			v180.1h-19.9l-1.1-13.6c-8.7,10.6-20.8,16-36.2,16c-14.7,0-26.7-6-35.9-18.1c-9.3-12-13.9-27.8-13.9-47.1V600.1z M125.8,602.5
			c0,14.4,3,25.6,8.9,33.8c5.9,8.1,14.2,12.2,24.6,12.2c13.8,0,23.8-6.2,30.1-18.5v-58.3c-6.5-12-16.5-17.9-29.9-17.9
			c-10.6,0-18.9,4.1-24.9,12.3C128.8,574.3,125.8,586.4,125.8,602.5z"/>
		<path class="st8" d="M322,664.6c-1.3-2.5-2.3-7-3-13.4c-10.1,10.5-22.1,15.7-36.1,15.7c-12.5,0-22.8-3.5-30.8-10.6
			c-8-7.1-12-16-12-26.9c0-13.2,5-23.5,15.1-30.8c10-7.3,24.2-11,42.4-11h21.1v-10c0-7.6-2.3-13.6-6.8-18.1
			c-4.5-4.5-11.2-6.7-20.1-6.7c-7.7,0-14.2,2-19.5,5.9c-5.2,3.9-7.9,8.6-7.9,14.2h-21.8c0-6.3,2.2-12.4,6.7-18.4
			c4.5-5.9,10.6-10.6,18.3-14c7.7-3.4,16.2-5.2,25.4-5.2c14.6,0,26.1,3.7,34.4,11c8.3,7.3,12.6,17.4,12.9,30.2v58.4
			c0,11.7,1.5,20.9,4.5,27.8v1.9H322z M286,648c6.8,0,13.3-1.8,19.4-5.3c6.1-3.5,10.5-8.1,13.3-13.7v-26h-17
			c-26.6,0-39.9,7.8-39.9,23.3c0,6.8,2.3,12.1,6.8,16C273.1,646.1,278.9,648,286,648z"/>
		<path class="st8" d="M367.8,600.1c0-19.5,4.6-35.1,13.8-47c9.2-11.8,21.3-17.8,36.2-17.8c14.9,0,26.6,5.1,35.3,15.2v-66.1h21.7
			v180.1H455l-1.1-13.6c-8.7,10.6-20.8,16-36.2,16c-14.7,0-26.7-6-35.9-18.1c-9.3-12-13.9-27.8-13.9-47.1V600.1z M389.5,602.5
			c0,14.4,3,25.6,8.9,33.8c5.9,8.1,14.2,12.2,24.6,12.2c13.8,0,23.8-6.2,30.1-18.5v-58.3c-6.5-12-16.5-17.9-29.9-17.9
			c-10.6,0-18.9,4.1-24.9,12.3C392.5,574.3,389.5,586.4,389.5,602.5z"/>
		<path class="st8" d="M501.6,600c0-12.4,2.4-23.6,7.3-33.5c4.9-9.9,11.7-17.6,20.4-23c8.7-5.4,18.7-8.1,29.8-8.1
			c17.3,0,31.3,6,41.9,17.9c10.7,12,16,27.9,16,47.7v1.5c0,12.4-2.4,23.4-7.1,33.2c-4.7,9.8-11.5,17.5-20.3,22.9
			c-8.8,5.5-18.9,8.2-30.3,8.2c-17.2,0-31.1-6-41.8-17.9c-10.7-12-16-27.8-16-47.5V600z M523.4,602.5c0,14.1,3.3,25.4,9.8,33.9
			c6.5,8.5,15.3,12.8,26.2,12.8c11,0,19.8-4.3,26.3-13c6.5-8.6,9.7-20.7,9.7-36.3c0-13.9-3.3-25.2-9.9-33.8
			c-6.6-8.6-15.4-13-26.3-13c-10.7,0-19.4,4.3-25.9,12.8C526.7,574.5,523.4,586.7,523.4,602.5z"/>
		<path class="st8" d="M717,630.9c0-5.9-2.2-10.4-6.6-13.7c-4.4-3.2-12.1-6-23.1-8.4c-11-2.3-19.7-5.2-26.2-8.4
			c-6.5-3.3-11.2-7.2-14.3-11.7c-3.1-4.5-4.6-9.9-4.6-16.2c0-10.4,4.4-19.2,13.2-26.4c8.8-7.2,20-10.8,33.7-10.8
			c14.4,0,26.1,3.7,35,11.1c9,7.4,13.4,16.9,13.4,28.5h-21.8c0-5.9-2.5-11.1-7.6-15.4c-5-4.3-11.4-6.5-19.1-6.5
			c-7.9,0-14.1,1.7-18.5,5.2c-4.5,3.4-6.7,7.9-6.7,13.5c0,5.2,2.1,9.2,6.2,11.8c4.1,2.7,11.6,5.2,22.5,7.6
			c10.8,2.4,19.6,5.3,26.3,8.7c6.7,3.4,11.7,7.4,15,12.1c3.2,4.7,4.9,10.5,4.9,17.3c0,11.3-4.5,20.4-13.6,27.3
			c-9.1,6.8-20.8,10.3-35.3,10.3c-10.2,0-19.2-1.8-27-5.4c-7.8-3.6-13.9-8.6-18.4-15.1c-4.4-6.5-6.6-13.4-6.6-20.9h21.7
			c0.4,7.3,3.3,13,8.7,17.3c5.4,4.3,12.6,6.4,21.5,6.4c8.2,0,14.8-1.7,19.8-5C714.6,640.9,717,636.5,717,630.9z"/>
		<path class="st8" d="M788.2,537.7v141.6c0,24.4-11.1,36.6-33.2,36.6c-4.8,0-9.2-0.7-13.3-2.1v-17.3c2.5,0.6,5.8,0.9,9.9,0.9
			c4.8,0,8.5-1.3,11.1-3.9c2.5-2.6,3.8-7.2,3.8-13.7V537.7H788.2z M764.3,504c0-3.4,1.1-6.4,3.2-8.9c2.1-2.5,5.3-3.7,9.4-3.7
			c4.2,0,7.4,1.2,9.6,3.6c2.2,2.4,3.3,5.4,3.3,8.9c0,3.5-1.1,6.5-3.3,8.8c-2.2,2.3-5.4,3.5-9.6,3.5c-4.2,0-7.4-1.2-9.5-3.5
			S764.3,507.5,764.3,504z"/>
		<path class="st8" d="M900.3,652c-8.4,9.9-20.8,14.9-37.2,14.9c-13.5,0-23.8-3.9-30.9-11.8c-7.1-7.9-10.7-19.5-10.7-34.9v-82.6
			h21.7v82c0,19.2,7.8,28.8,23.5,28.8c16.6,0,27.6-6.2,33.1-18.5v-92.3h21.7v126.9h-20.6L900.3,652z"/>
		<path class="st8" d="M1027,630.9c0-5.9-2.2-10.4-6.6-13.7c-4.4-3.2-12.1-6-23.1-8.4c-11-2.3-19.7-5.2-26.2-8.4
			c-6.5-3.3-11.2-7.2-14.3-11.7c-3.1-4.5-4.6-9.9-4.6-16.2c0-10.4,4.4-19.2,13.2-26.4c8.8-7.2,20-10.8,33.7-10.8
			c14.4,0,26.1,3.7,35,11.1c9,7.4,13.4,16.9,13.4,28.5h-21.8c0-5.9-2.5-11.1-7.6-15.4c-5-4.3-11.4-6.5-19.1-6.5
			c-7.9,0-14.1,1.7-18.5,5.2c-4.5,3.4-6.7,7.9-6.7,13.5c0,5.2,2.1,9.2,6.2,11.8c4.1,2.7,11.6,5.2,22.5,7.6
			c10.8,2.4,19.6,5.3,26.3,8.7c6.7,3.4,11.7,7.4,15,12.1c3.2,4.7,4.9,10.5,4.9,17.3c0,11.3-4.5,20.4-13.6,27.3
			c-9.1,6.8-20.8,10.3-35.3,10.3c-10.2,0-19.2-1.8-27-5.4c-7.8-3.6-13.9-8.6-18.4-15.1c-4.4-6.5-6.6-13.4-6.6-20.9h21.7
			c0.4,7.3,3.3,13,8.7,17.3c5.4,4.3,12.6,6.4,21.5,6.4c8.2,0,14.8-1.7,19.8-5C1024.6,640.9,1027,636.5,1027,630.9z"/>
		<path class="st8" d="M1183.2,602.5c0,19.4-4.5,35-13.4,46.7c-8.9,11.8-20.9,17.7-35.9,17.7c-16,0-28.4-5.7-37.2-17l-1.1,14.7
			h-19.9V484.4h21.7v67.2c8.8-10.9,20.8-16.3,36.2-16.3c15.4,0,27.5,5.8,36.3,17.5c8.8,11.7,13.2,27.6,13.2,47.8V602.5z
			 M1161.5,600.1c0-14.8-2.9-26.2-8.6-34.2c-5.7-8.1-13.9-12.1-24.6-12.1c-14.3,0-24.6,6.6-30.8,19.9v54.9
			c6.6,13.3,17,19.9,31.1,19.9c10.4,0,18.5-4,24.3-12.1C1158.6,628.4,1161.5,616.3,1161.5,600.1z"/>
		<path class="st8" d="M1270.7,557.2c-3.3-0.5-6.8-0.8-10.7-0.8c-14.2,0-23.9,6.1-29,18.2v90.1h-21.7V537.7h21.1l0.4,14.7
			c7.1-11.3,17.2-17,30.3-17c4.2,0,7.4,0.5,9.6,1.6V557.2z"/>
	</g>
</g>
</svg>
