<svg xmlns="http://www.w3.org/2000/svg" width="295" height="83" fill="none" viewBox="0 0 295 83">
    <path stroke="#3E5363" stroke-width="2" d="M1 1H294V82H1z"/>
    <path fill="#3E5363" d="M120.816 50V34.36h4.834c1.633 0 2.872.365 3.717 1.095.852.723 1.279 1.787 1.279 3.19 0 .795-.176 1.48-.527 2.052-.351.573-.831.992-1.439 1.257.702.2 1.242.605 1.622 1.214.379.602.569 1.346.569 2.234 0 1.519-.419 2.664-1.257 3.438-.83.773-2.037 1.16-3.62 1.16h-5.178zm3.159-6.8v4.179h2.019c.566 0 .996-.175 1.289-.526.294-.351.441-.85.441-1.494 0-1.403-.509-2.123-1.526-2.159h-2.223zm0-2.299h1.643c1.239 0 1.859-.64 1.859-1.923 0-.709-.144-1.217-.43-1.525-.287-.308-.752-.462-1.397-.462h-1.675v3.91zM138.541 50c-.086-.179-.172-.48-.258-.902-.544.744-1.282 1.117-2.213 1.117-.974 0-1.783-.322-2.427-.967-.638-.645-.956-1.479-.956-2.503 0-1.217.386-2.16 1.16-2.825.78-.666 1.901-1.006 3.362-1.02h.924v-.935c0-.523-.09-.892-.269-1.107-.179-.214-.44-.322-.784-.322-.759 0-1.139.444-1.139 1.332h-3.04c0-1.074.401-1.959 1.203-2.653.81-.702 1.83-1.053 3.062-1.053 1.275 0 2.259.333 2.954 1 .702.658 1.053 1.603 1.053 2.835v5.468c.014 1.002.157 1.787.43 2.352V50h-3.062zm-1.794-2.17c.337 0 .623-.068.859-.204.237-.136.412-.297.527-.483v-2.417h-.731c-.515 0-.923.164-1.224.494-.294.33-.441.77-.441 1.321 0 .86.337 1.29 1.01 1.29zm9.818 2.17h-3.05V38.377h3.05V50zm-3.19-14.63c0-.473.15-.86.451-1.161.301-.3.702-.451 1.203-.451.502 0 .903.15 1.203.451.301.3.452.688.452 1.16 0 .466-.151.852-.452 1.16-.293.308-.694.462-1.203.462-.508 0-.913-.154-1.214-.462-.293-.308-.44-.694-.44-1.16zm9.432 6.455l1.353-3.448h3.223l-2.654 5.683 2.75 5.94h-3.233l-1.429-3.642L151.399 50h-3.244l2.75-5.94-2.632-5.683h3.234l1.3 3.448zM164.408 50c-.086-.179-.172-.48-.258-.902-.544.744-1.282 1.117-2.212 1.117-.974 0-1.784-.322-2.428-.967-.638-.645-.956-1.479-.956-2.503 0-1.217.386-2.16 1.16-2.825.78-.666 1.901-1.006 3.362-1.02H164v-.935c0-.523-.09-.892-.269-1.107-.179-.214-.44-.322-.784-.322-.759 0-1.138.444-1.138 1.332h-3.04c0-1.074.401-1.959 1.203-2.653.809-.702 1.829-1.053 3.061-1.053 1.275 0 2.26.333 2.954 1 .702.658 1.053 1.603 1.053 2.835v5.468c.014 1.002.158 1.787.43 2.352V50h-3.062zm-1.794-2.17c.337 0 .623-.068.86-.204.236-.136.411-.297.526-.483v-2.417h-.73c-.516 0-.924.164-1.225.494-.294.33-.441.77-.441 1.321 0 .86.337 1.29 1.01 1.29zm12.365-6.52l-1.01-.086c-.831 0-1.393.365-1.687 1.095V50h-3.051V38.377h2.869l.086 1.257c.479-.981 1.142-1.472 1.987-1.472.344 0 .623.047.838.14l-.032 3.008z"/>
    <path stroke="#3E5363" stroke-width="2" d="M241 49v5h24v-5M244.515 38.485L253 46.971l8.485-8.486M253 30v16"/>
</svg>
