<svg xmlns="http://www.w3.org/2000/svg" width="295" height="83" fill="none" viewBox="0 0 295 83">
    <path stroke="#3E5363" stroke-width="2" d="M1 1H294V82H1z"/>
    <path fill="#3E5363" d="M101.728 44.79c-.079 1.783-.581 3.133-1.504 4.05-.924.916-2.228 1.375-3.91 1.375-1.77 0-3.126-.58-4.072-1.74-.938-1.168-1.407-2.83-1.407-4.985v-2.632c0-2.148.487-3.802 1.46-4.962.975-1.168 2.328-1.752 4.061-1.752 1.705 0 2.998.477 3.878 1.43.888.952 1.393 2.32 1.515 4.103H98.58c-.029-1.103-.2-1.862-.516-2.278-.307-.422-.877-.633-1.708-.633-.845 0-1.443.297-1.793.891-.351.588-.538 1.558-.56 2.911v2.955c0 1.553.173 2.62.516 3.2.351.58.95.87 1.794.87.831 0 1.404-.2 1.72-.6.314-.409.493-1.143.536-2.203h3.159zm1.439-.977c0-1.762.415-3.144 1.246-4.147.831-1.003 1.98-1.504 3.448-1.504 1.483 0 2.639.501 3.47 1.504.831 1.003 1.246 2.392 1.246 4.168v.741c0 1.77-.412 3.151-1.235 4.147-.824.995-1.977 1.493-3.459 1.493-1.49 0-2.65-.498-3.481-1.493-.823-1.003-1.235-2.392-1.235-4.168v-.742zm3.051.762c0 2.077.555 3.115 1.665 3.115 1.024 0 1.575-.866 1.654-2.6l.011-1.278c0-1.06-.147-1.844-.441-2.352-.293-.516-.709-.773-1.246-.773-.515 0-.92.257-1.214.773-.286.508-.429 1.293-.429 2.352v.763zm11.118-6.198l.086 1.074c.68-.86 1.579-1.289 2.696-1.289 1.16 0 1.98.523 2.46 1.569.666-1.046 1.615-1.569 2.847-1.569 2.034 0 3.076 1.407 3.126 4.222V50h-3.04v-7.423c0-.673-.093-1.153-.28-1.44-.186-.286-.501-.429-.945-.429-.566 0-.988.347-1.267 1.042l.021.365V50H120v-7.401c0-.666-.09-1.146-.269-1.44-.179-.3-.497-.451-.956-.451-.522 0-.938.283-1.246.849V50h-3.04V38.377h2.847zm22.526 6.177c0 1.826-.315 3.226-.945 4.2-.623.974-1.554 1.46-2.793 1.46-.945 0-1.704-.382-2.277-1.149v5.404h-3.04V38.377h2.814l.108 1.063c.58-.852 1.371-1.278 2.374-1.278 1.238 0 2.169.451 2.793 1.354.63.902.952 2.284.966 4.146v.892zm-3.029-.763c0-1.124-.125-1.92-.376-2.385-.243-.465-.659-.698-1.246-.698-.623 0-1.078.261-1.364.784v5.447c.272.5.734.751 1.385.751.602 0 1.017-.254 1.247-.762.236-.509.354-1.3.354-2.374v-.763zM147.221 50c-.086-.179-.172-.48-.258-.902-.544.744-1.282 1.117-2.213 1.117-.974 0-1.783-.322-2.428-.967-.637-.645-.956-1.479-.956-2.503 0-1.217.387-2.16 1.16-2.825.781-.666 1.902-1.006 3.363-1.02h.923v-.935c0-.523-.089-.892-.268-1.107-.179-.214-.44-.322-.784-.322-.759 0-1.139.444-1.139 1.332h-3.04c0-1.074.401-1.959 1.203-2.653.809-.702 1.83-1.053 3.062-1.053 1.274 0 2.259.333 2.954 1 .702.658 1.053 1.603 1.053 2.835v5.468c.014 1.002.157 1.787.429 2.352V50h-3.061zm-1.794-2.17c.336 0 .623-.068.859-.204.236-.136.412-.297.526-.483v-2.417h-.73c-.516 0-.924.164-1.225.494-.293.33-.44.77-.44 1.321 0 .86.337 1.29 1.01 1.29zm12.364-6.52l-1.01-.086c-.83 0-1.393.365-1.686 1.095V50h-3.051V38.377h2.868l.086 1.257c.48-.981 1.142-1.472 1.987-1.472.344 0 .623.047.838.14l-.032 3.008zm5.64-5.79v2.857h1.557v2.288h-1.557v5.769c0 .458.061.773.182.945.129.172.373.258.731.258.293 0 .533-.025.719-.075l-.021 2.363c-.516.193-1.074.29-1.676.29-1.962 0-2.954-1.125-2.975-3.373v-6.177h-1.343v-2.288h1.343v-2.858h3.04zM169.854 50h-3.05V38.377h3.05V50zm-3.19-14.63c0-.473.15-.86.451-1.161.301-.3.702-.451 1.203-.451.502 0 .903.15 1.203.451.301.3.452.688.452 1.16 0 .466-.151.852-.452 1.16-.293.308-.694.462-1.203.462-.508 0-.913-.154-1.214-.462-.293-.308-.44-.694-.44-1.16zM175.397 50h-3.05V33.5h3.05V50zm5.318-10.602c.659-.824 1.468-1.236 2.428-1.236 1.059 0 1.865.373 2.417 1.117.551.745.83 1.855.837 3.33V50h-3.05v-7.358c0-.68-.108-1.171-.323-1.472-.207-.308-.547-.462-1.02-.462-.552 0-.981.254-1.289.763V50h-3.04V33.5h3.04v5.898zM194.1 50c-.086-.179-.172-.48-.258-.902-.544.744-1.282 1.117-2.213 1.117-.974 0-1.783-.322-2.428-.967-.637-.645-.956-1.479-.956-2.503 0-1.217.387-2.16 1.16-2.825.781-.666 1.902-1.006 3.363-1.02h.923v-.935c0-.523-.089-.892-.268-1.107-.179-.214-.441-.322-.784-.322-.759 0-1.139.444-1.139 1.332h-3.04c0-1.074.401-1.959 1.203-2.653.809-.702 1.83-1.053 3.062-1.053 1.274 0 2.259.333 2.954 1 .702.658 1.052 1.603 1.052 2.835v5.468c.015 1.002.158 1.787.43 2.352V50H194.1zm-1.794-2.17c.336 0 .623-.068.859-.204.236-.136.412-.297.526-.483v-2.417h-.73c-.516 0-.924.164-1.225.494-.293.33-.44.77-.44 1.321 0 .86.336 1.29 1.01 1.29zm12.364-6.52l-1.01-.086c-.831 0-1.393.365-1.686 1.095V50h-3.051V38.377h2.868l.086 1.257c.48-.981 1.142-1.472 1.987-1.472.344 0 .623.047.838.14l-.032 3.008z"/>
    <path stroke="#3F5363" stroke-width="2" d="M254 49v5h-24v-5M233.515 38.485L242 30l8.485 8.485M242 46.97v-16"/>
</svg>
