<svg xmlns="http://www.w3.org/2000/svg" width="295" height="83" fill="none" viewBox="0 0 295 83">
    <path stroke="#2FBB96" stroke-width="2" d="M1 1H294V82H1z"/>
    <path fill="#2FBB96" d="M81.844 45.703l2.632-11.344h3.523L83.487 50H80.2l-4.48-15.64h3.503l2.62 11.343zm6.628-1.89c0-1.762.415-3.144 1.246-4.147.83-1.003 1.98-1.504 3.448-1.504 1.482 0 2.639.501 3.47 1.504.83 1.003 1.246 2.392 1.246 4.168v.741c0 1.77-.412 3.151-1.236 4.147-.823.995-1.976 1.493-3.459 1.493-1.49 0-2.65-.498-3.48-1.493-.823-1.003-1.235-2.392-1.235-4.168v-.742zm3.05.762c0 2.077.555 3.115 1.665 3.115 1.025 0 1.576-.866 1.655-2.6l.01-1.278c0-1.06-.146-1.844-.44-2.352-.294-.516-.709-.773-1.246-.773-.516 0-.92.257-1.214.773-.286.508-.43 1.293-.43 2.352v.763zM102.974 50h-3.051V33.5h3.051V50zm5.886-14.48v2.857h1.558v2.288h-1.558v5.769c0 .458.061.773.183.945.129.172.372.258.73.258.294 0 .534-.025.72-.075l-.021 2.363c-.516.193-1.075.29-1.676.29-1.962 0-2.954-1.125-2.976-3.373v-6.177h-1.342v-2.288h1.342v-2.858h3.04zM117.615 50c-.086-.179-.172-.48-.258-.902-.544.744-1.281 1.117-2.212 1.117-.974 0-1.784-.322-2.428-.967-.638-.645-.956-1.479-.956-2.503 0-1.217.386-2.16 1.16-2.825.78-.666 1.901-1.006 3.362-1.02h.924v-.935c0-.523-.089-.892-.269-1.107-.179-.214-.44-.322-.784-.322-.759 0-1.138.444-1.138 1.332h-3.04c0-1.074.401-1.959 1.203-2.653.809-.702 1.829-1.053 3.061-1.053 1.275 0 2.26.333 2.954 1 .702.658 1.053 1.603 1.053 2.835v5.468c.014 1.002.158 1.787.43 2.352V50h-3.062zm-1.794-2.17c.337 0 .623-.068.86-.204.236-.136.411-.297.526-.483v-2.417h-.73c-.516 0-.924.164-1.225.494-.294.33-.44.77-.44 1.321 0 .86.336 1.29 1.009 1.29zm12.365-6.52l-1.01-.086c-.831 0-1.393.365-1.687 1.095V50h-3.051V38.377h2.869l.086 1.257c.479-.981 1.142-1.472 1.987-1.472.344 0 .623.047.838.14l-.032 3.008zm15.694 3.244c0 1.826-.315 3.226-.945 4.2-.623.974-1.554 1.46-2.793 1.46-.946 0-1.705-.382-2.278-1.149v5.404h-3.04V38.377h2.815l.107 1.063c.58-.852 1.372-1.278 2.374-1.278 1.239 0 2.17.451 2.793 1.354.63.902.953 2.284.967 4.146v.892zm-3.029-.763c0-1.124-.126-1.92-.376-2.385-.244-.465-.659-.698-1.246-.698-.624 0-1.078.261-1.365.784v5.447c.272.5.734.751 1.386.751.602 0 1.017-.254 1.246-.762.236-.509.355-1.3.355-2.374v-.763zM151.238 50c-.086-.179-.172-.48-.258-.902-.544.744-1.281 1.117-2.212 1.117-.974 0-1.784-.322-2.428-.967-.638-.645-.956-1.479-.956-2.503 0-1.217.387-2.16 1.16-2.825.781-.666 1.901-1.006 3.362-1.02h.924v-.935c0-.523-.089-.892-.268-1.107-.18-.214-.441-.322-.785-.322-.759 0-1.138.444-1.138 1.332h-3.04c0-1.074.401-1.959 1.203-2.653.809-.702 1.83-1.053 3.061-1.053 1.275 0 2.26.333 2.954 1 .702.658 1.053 1.603 1.053 2.835v5.468c.014 1.002.158 1.787.43 2.352V50h-3.062zm-1.794-2.17c.337 0 .623-.068.86-.204.236-.136.411-.297.526-.483v-2.417h-.73c-.516 0-.924.164-1.225.494-.294.33-.44.77-.44 1.321 0 .86.336 1.29 1.009 1.29zm12.365-6.52l-1.01-.086c-.831 0-1.393.365-1.687 1.095V50h-3.05V38.377h2.868l.086 1.257c.479-.981 1.142-1.472 1.987-1.472.344 0 .623.047.838.14l-.032 3.008zm6.767 8.69c-.086-.179-.172-.48-.258-.902-.544.744-1.282 1.117-2.213 1.117-.973 0-1.783-.322-2.427-.967-.638-.645-.956-1.479-.956-2.503 0-1.217.386-2.16 1.16-2.825.78-.666 1.901-1.006 3.362-1.02h.924v-.935c0-.523-.09-.892-.269-1.107-.179-.214-.44-.322-.784-.322-.759 0-1.138.444-1.138 1.332h-3.04c0-1.074.401-1.959 1.203-2.653.809-.702 1.829-1.053 3.061-1.053 1.275 0 2.26.333 2.954 1 .702.658 1.053 1.603 1.053 2.835v5.468c.014 1.002.158 1.787.43 2.352V50h-3.062zm-1.794-2.17c.337 0 .623-.068.86-.204.236-.136.411-.297.526-.483v-2.417h-.73c-.516 0-.924.164-1.225.494-.294.33-.441.77-.441 1.321 0 .86.337 1.29 1.01 1.29zm17.22 2.17c-.086-.179-.172-.48-.258-.902-.544.744-1.282 1.117-2.213 1.117-.974 0-1.783-.322-2.427-.967-.638-.645-.957-1.479-.957-2.503 0-1.217.387-2.16 1.161-2.825.78-.666 1.901-1.006 3.362-1.02h.924v-.935c0-.523-.09-.892-.269-1.107-.179-.214-.44-.322-.784-.322-.759 0-1.139.444-1.139 1.332h-3.04c0-1.074.401-1.959 1.203-2.653.81-.702 1.83-1.053 3.062-1.053 1.275 0 2.259.333 2.954 1 .702.658 1.053 1.603 1.053 2.835v5.468c.014 1.002.157 1.787.429 2.352V50h-3.061zm-1.794-2.17c.337 0 .623-.068.859-.204.237-.136.412-.297.527-.483v-2.417h-.731c-.515 0-.924.164-1.224.494-.294.33-.441.77-.441 1.321 0 .86.337 1.29 1.01 1.29zm9.41-9.453l.086 1.15c.688-.91 1.586-1.365 2.696-1.365 1.998 0 3.026 1.4 3.083 4.2V50h-3.05v-7.412c0-.659-.101-1.135-.301-1.429-.194-.3-.537-.451-1.031-.451-.552 0-.982.283-1.289.849V50h-3.051V38.377h2.857zm7.692 5.435c0-1.761.415-3.143 1.246-4.146.83-1.003 1.98-1.504 3.448-1.504 1.482 0 2.639.501 3.47 1.504.83 1.003 1.246 2.392 1.246 4.168v.741c0 1.77-.412 3.151-1.236 4.147-.823.995-1.976 1.493-3.459 1.493-1.489 0-2.649-.498-3.48-1.493-.824-1.003-1.235-2.392-1.235-4.168v-.742zm3.05.763c0 2.077.555 3.115 1.665 3.115 1.024 0 1.576-.866 1.655-2.6l.01-1.278c0-1.06-.146-1.844-.44-2.352-.294-.516-.709-.773-1.246-.773-.516 0-.92.257-1.214.773-.286.508-.43 1.293-.43 2.352v.763zm13.407 2.31c0-.258-.126-.494-.376-.71-.244-.221-.792-.518-1.644-.89-1.253-.51-2.116-1.036-2.589-1.58-.465-.544-.698-1.221-.698-2.03 0-1.017.365-1.855 1.096-2.514.737-.666 1.711-.999 2.922-.999 1.274 0 2.295.33 3.061.988.766.66 1.149 1.544 1.149 2.654h-3.04c0-.946-.393-1.418-1.181-1.418-.322 0-.587.1-.795.3-.208.201-.312.48-.312.838 0 .258.115.487.344.688.229.193.77.473 1.622.838 1.239.458 2.113.97 2.621 1.536.516.559.774 1.285.774 2.18 0 1.039-.391 1.873-1.171 2.504-.781.63-1.805.945-3.072.945-.853 0-1.605-.165-2.256-.494-.652-.337-1.164-.802-1.536-1.397-.366-.594-.548-1.235-.548-1.923h2.889c.015.53.136.928.366 1.193.236.265.619.397 1.149.397.816 0 1.225-.369 1.225-1.106z"/>
    <mask id="wmhleddkda" width="36" height="36" x="229" y="24" maskUnits="userSpaceOnUse">
        <circle cx="247" cy="42" r="18" fill="#fff"/>
    </mask>
    <g mask="url(#wmhleddkda)">
        <path fill="#2FBB96" d="M265 24h-36v36h36V24z"/>
        <path fill="#fff" d="M254.071 36.215v-3.858h-1.285v1.929h-2.572v-1.929h-6.428v1.929h-2.572v-1.929h-1.286v3.858h14.143zM239.928 36.857v14.786h14.143V36.857h-14.143zm3.858 4.5h-2.572v-2.571h2.572v2.571zm4.5 0h-2.572v-2.571h2.572v2.571zm4.5 0h-2.572v-2.571h2.572v2.571zm-9 3.858h-2.572v-2.572h2.572v2.572zm4.5 0h-2.572v-2.572h2.572v2.572zm4.5 0h-2.572v-2.572h2.572v2.572zm-9 3.857h-2.572V46.5h2.572v2.572zm4.5 0h-2.572V46.5h2.572v2.572zm4.5 0h-2.572V46.5h2.572v2.572z"/>
        <path fill="#fff" d="M245.714 60H229V43.286l10.929-10.929h14.142v3.215l-1.285 1.285h1.285v14.786L245.714 60z" opacity=".25"/>
        <path fill="#fff" d="M241.857 31.071H243.143V33.642H241.857zM250.857 31.071H252.143V33.642H250.857z"/>
    </g>
</svg>
