<svg xmlns="http://www.w3.org/2000/svg" width="295" height="83" fill="none" viewBox="0 0 295 83">
    <path fill="#2FBB96" stroke="#2FBB96" stroke-width="2" d="M1 1H294V82H1z"/>
    <path fill="#fff" d="M43.043 45.703l2.632-11.344h3.523L44.687 50h-3.288l-4.48-15.64h3.503l2.621 11.343zm6.628-1.89c0-1.762.415-3.144 1.246-4.147.83-1.003 1.98-1.504 3.448-1.504 1.483 0 2.64.501 3.47 1.504.83 1.003 1.246 2.392 1.246 4.168v.741c0 1.77-.412 3.151-1.235 4.147-.824.995-1.977 1.493-3.46 1.493-1.489 0-2.649-.498-3.48-1.493-.823-1.003-1.235-2.392-1.235-4.168v-.742zm3.05.762c0 2.077.556 3.115 1.666 3.115 1.024 0 1.575-.866 1.654-2.6l.01-1.278c0-1.06-.146-1.844-.44-2.352-.293-.516-.709-.773-1.246-.773-.515 0-.92.257-1.214.773-.286.508-.43 1.293-.43 2.352v.763zM64.174 50h-3.05V33.5h3.05V50zm5.887-14.48v2.857h1.557v2.288H70.06v5.769c0 .458.06.773.182.945.13.172.373.258.73.258.294 0 .534-.025.72-.075l-.021 2.363c-.516.193-1.074.29-1.676.29-1.962 0-2.954-1.125-2.976-3.373v-6.177h-1.342v-2.288h1.342v-2.858h3.04zM78.814 50c-.085-.179-.171-.48-.257-.902-.545.744-1.282 1.117-2.213 1.117-.974 0-1.783-.322-2.428-.967-.637-.645-.956-1.479-.956-2.503 0-1.217.387-2.16 1.16-2.825.78-.666 1.901-1.006 3.362-1.02h.924v-.935c0-.523-.09-.892-.268-1.107-.18-.214-.44-.322-.785-.322-.759 0-1.138.444-1.138 1.332h-3.04c0-1.074.4-1.959 1.203-2.653.81-.702 1.83-1.053 3.061-1.053 1.275 0 2.26.333 2.955 1 .701.658 1.052 1.603 1.052 2.835v5.468c.015 1.002.158 1.787.43 2.352V50h-3.062zm-1.793-2.17c.336 0 .623-.068.859-.204.236-.136.412-.297.526-.483v-2.417h-.73c-.516 0-.924.164-1.225.494-.293.33-.44.77-.44 1.321 0 .86.336 1.29 1.01 1.29zm12.364-6.52l-1.01-.086c-.83 0-1.393.365-1.686 1.095V50h-3.051V38.377h2.868l.086 1.257c.48-.981 1.142-1.472 1.987-1.472.344 0 .623.047.838.14l-.032 3.008zm15.694 3.244c0 1.826-.315 3.226-.945 4.2-.623.974-1.554 1.46-2.793 1.46-.945 0-1.705-.382-2.277-1.149v5.404h-3.04V38.377h2.814l.107 1.063c.58-.852 1.372-1.278 2.374-1.278 1.239 0 2.17.451 2.793 1.354.631.902.953 2.284.967 4.146v.892zm-3.029-.763c0-1.124-.126-1.92-.376-2.385-.244-.465-.659-.698-1.246-.698-.623 0-1.078.261-1.364.784v5.447c.272.5.734.751 1.385.751.602 0 1.017-.254 1.246-.762.237-.509.355-1.3.355-2.374v-.763zM112.438 50c-.086-.179-.172-.48-.258-.902-.545.744-1.282 1.117-2.213 1.117-.974 0-1.783-.322-2.428-.967-.637-.645-.956-1.479-.956-2.503 0-1.217.387-2.16 1.16-2.825.781-.666 1.902-1.006 3.362-1.02h.924v-.935c0-.523-.089-.892-.268-1.107-.179-.214-.441-.322-.784-.322-.76 0-1.139.444-1.139 1.332h-3.04c0-1.074.401-1.959 1.203-2.653.809-.702 1.83-1.053 3.061-1.053 1.275 0 2.26.333 2.955 1 .701.658 1.052 1.603 1.052 2.835v5.468c.015 1.002.158 1.787.43 2.352V50h-3.061zm-1.794-2.17c.336 0 .623-.068.859-.204.236-.136.412-.297.526-.483v-2.417h-.73c-.516 0-.924.164-1.225.494-.293.33-.44.77-.44 1.321 0 .86.336 1.29 1.01 1.29zm12.364-6.52l-1.01-.086c-.831 0-1.393.365-1.686 1.095V50h-3.051V38.377h2.868l.086 1.257c.48-.981 1.142-1.472 1.987-1.472.344 0 .623.047.838.14l-.032 3.008zm6.767 8.69c-.086-.179-.171-.48-.257-.902-.545.744-1.282 1.117-2.213 1.117-.974 0-1.784-.322-2.428-.967-.637-.645-.956-1.479-.956-2.503 0-1.217.387-2.16 1.16-2.825.781-.666 1.901-1.006 3.362-1.02h.924v-.935c0-.523-.089-.892-.268-1.107-.179-.214-.441-.322-.785-.322-.759 0-1.138.444-1.138 1.332h-3.04c0-1.074.401-1.959 1.203-2.653.809-.702 1.83-1.053 3.061-1.053 1.275 0 2.26.333 2.954 1 .702.658 1.053 1.603 1.053 2.835v5.468c.015 1.002.158 1.787.43 2.352V50h-3.062zm-1.794-2.17c.337 0 .623-.068.86-.204.236-.136.412-.297.526-.483v-2.417h-.73c-.516 0-.924.164-1.225.494-.294.33-.44.77-.44 1.321 0 .86.336 1.29 1.009 1.29zm16.393 2.385c-1.561 0-2.779-.466-3.652-1.397-.874-.93-1.311-2.263-1.311-3.996v-.924c0-1.833.401-3.247 1.203-4.243.802-.995 1.952-1.493 3.448-1.493 1.461 0 2.561.47 3.298 1.407.738.931 1.114 2.313 1.128 4.147v1.493h-6.048c.043.86.233 1.49.57 1.89.336.395.856.591 1.557.591 1.017 0 1.866-.347 2.546-1.042l1.193 1.837c-.373.516-.913.935-1.622 1.257-.709.315-1.479.473-2.31.473zm-1.912-7.133h3.04v-.28c-.014-.694-.129-1.22-.344-1.578-.215-.358-.587-.537-1.117-.537s-.917.19-1.16.569c-.236.38-.376.988-.419 1.826zm11.634-1.257l1.353-3.448h3.223l-2.653 5.683 2.75 5.94h-3.234l-1.429-3.642L152.688 50h-3.244l2.75-5.94-2.632-5.683h3.234l1.3 3.448zm15.135 2.729c0 1.826-.315 3.226-.945 4.2-.623.974-1.554 1.46-2.793 1.46-.945 0-1.704-.382-2.277-1.149v5.404h-3.04V38.377h2.814l.108 1.063c.58-.852 1.371-1.278 2.374-1.278 1.239 0 2.17.451 2.793 1.354.63.902.952 2.284.966 4.146v.892zm-3.029-.763c0-1.124-.125-1.92-.376-2.385-.243-.465-.659-.698-1.246-.698-.623 0-1.078.261-1.364.784v5.447c.272.5.734.751 1.386.751.601 0 1.016-.254 1.246-.762.236-.509.354-1.3.354-2.374v-.763zM174.259 50h-3.051V33.5h3.051V50zm1.998-6.188c0-1.761.415-3.143 1.246-4.146.831-1.003 1.98-1.504 3.448-1.504 1.483 0 2.639.501 3.47 1.504.831 1.003 1.246 2.392 1.246 4.168v.741c0 1.77-.412 3.151-1.235 4.147-.824.995-1.977 1.493-3.459 1.493-1.49 0-2.65-.498-3.481-1.493-.823-1.003-1.235-2.392-1.235-4.168v-.742zm3.051.763c0 2.077.555 3.115 1.665 3.115 1.024 0 1.575-.866 1.654-2.6l.011-1.278c0-1.06-.147-1.844-.441-2.352-.293-.516-.709-.773-1.246-.773-.515 0-.92.257-1.214.773-.286.508-.429 1.293-.429 2.352v.763zm13.997-3.265l-1.01-.086c-.831 0-1.393.365-1.687 1.095V50h-3.05V38.377h2.868l.086 1.257c.48-.981 1.142-1.472 1.987-1.472.344 0 .623.047.838.14l-.032 3.008zm6.767 8.69c-.086-.179-.172-.48-.258-.902-.544.744-1.281 1.117-2.212 1.117-.974 0-1.784-.322-2.428-.967-.638-.645-.956-1.479-.956-2.503 0-1.217.386-2.16 1.16-2.825.781-.666 1.901-1.006 3.362-1.02h.924v-.935c0-.523-.089-.892-.268-1.107-.18-.214-.441-.322-.785-.322-.759 0-1.138.444-1.138 1.332h-3.04c0-1.074.401-1.959 1.203-2.653.809-.702 1.829-1.053 3.061-1.053 1.275 0 2.26.333 2.954 1 .702.658 1.053 1.603 1.053 2.835v5.468c.014 1.002.158 1.787.43 2.352V50h-3.062zm-1.794-2.17c.337 0 .623-.068.86-.204.236-.136.411-.297.526-.483v-2.417h-.73c-.516 0-.924.164-1.225.494-.294.33-.44.77-.44 1.321 0 .86.336 1.29 1.009 1.29zm12.365-6.52l-1.01-.086c-.831 0-1.393.365-1.687 1.095V50h-3.05V38.377h2.868l.086 1.257c.479-.981 1.142-1.472 1.987-1.472.344 0 .623.047.838.14l-.032 3.008zm12.16 8.69c-.086-.179-.172-.48-.258-.902-.544.744-1.282 1.117-2.213 1.117-.974 0-1.783-.322-2.428-.967-.637-.645-.956-1.479-.956-2.503 0-1.217.387-2.16 1.16-2.825.781-.666 1.902-1.006 3.363-1.02h.924v-.935c0-.523-.09-.892-.269-1.107-.179-.214-.44-.322-.784-.322-.759 0-1.139.444-1.139 1.332h-3.04c0-1.074.401-1.959 1.203-2.653.809-.702 1.83-1.053 3.062-1.053 1.274 0 2.259.333 2.954 1 .702.658 1.053 1.603 1.053 2.835v5.468c.014 1.002.157 1.787.429 2.352V50h-3.061zm-1.794-2.17c.336 0 .623-.068.859-.204.236-.136.412-.297.527-.483v-2.417h-.731c-.516 0-.924.164-1.225.494-.293.33-.44.77-.44 1.321 0 .86.337 1.29 1.01 1.29zm9.41-9.453l.086 1.15c.687-.91 1.586-1.365 2.696-1.365 1.998 0 3.026 1.4 3.083 4.2V50h-3.051v-7.412c0-.659-.1-1.135-.3-1.429-.194-.3-.537-.451-1.032-.451-.551 0-.981.283-1.289.849V50h-3.05V38.377h2.857zm7.691 5.435c0-1.761.416-3.143 1.246-4.146.831-1.003 1.981-1.504 3.449-1.504 1.482 0 2.639.501 3.469 1.504.831 1.003 1.247 2.392 1.247 4.168v.741c0 1.77-.412 3.151-1.236 4.147-.823.995-1.976 1.493-3.459 1.493-1.489 0-2.65-.498-3.48-1.493-.824-1.003-1.236-2.392-1.236-4.168v-.742zm3.051.763c0 2.077.555 3.115 1.665 3.115 1.024 0 1.576-.866 1.654-2.6l.011-1.278c0-1.06-.147-1.844-.44-2.352-.294-.516-.709-.773-1.246-.773-.516 0-.921.257-1.214.773-.287.508-.43 1.293-.43 2.352v.763zm13.406 2.31c0-.258-.125-.494-.376-.71-.243-.221-.791-.518-1.643-.89-1.253-.51-2.116-1.036-2.589-1.58-.466-.544-.698-1.221-.698-2.03 0-1.017.365-1.855 1.095-2.514.738-.666 1.712-.999 2.922-.999 1.275 0 2.296.33 3.062.988.766.66 1.149 1.544 1.149 2.654h-3.04c0-.946-.394-1.418-1.181-1.418-.323 0-.588.1-.795.3-.208.201-.312.48-.312.838 0 .258.115.487.344.688.229.193.77.473 1.622.838 1.239.458 2.113.97 2.621 1.536.516.559.773 1.285.773 2.18 0 1.039-.39 1.873-1.17 2.504-.781.63-1.805.945-3.073.945-.852 0-1.604-.165-2.256-.494-.651-.337-1.163-.802-1.536-1.397-.365-.594-.548-1.235-.548-1.923h2.89c.014.53.136.928.365 1.193.237.265.62.397 1.15.397.816 0 1.224-.369 1.224-1.106zM25.072 59.214v-3.857h-1.286v1.929h-2.572v-1.929h-6.428v1.929h-2.572v-1.929H10.93v3.857h14.143zM10.929 59.857v14.786h14.143V59.857H10.929zm3.857 4.5h-2.572v-2.571h2.572v2.571zm4.5 0h-2.572v-2.571h2.572v2.571zm4.5 0h-2.572v-2.571h2.572v2.571zm-9 3.857h-2.572v-2.571h2.572v2.571zm4.5 0h-2.572v-2.571h2.572v2.571zm4.5 0h-2.572v-2.571h2.572v2.571zm-9 3.858h-2.572V69.5h2.572v2.572zm4.5 0h-2.572V69.5h2.572v2.572zm4.5 0h-2.572V69.5h2.572v2.572z"/>
    <path fill="#fff" fill-opacity=".25" d="M16.714 83H0V66.286l10.929-10.929H25.07v3.215l-1.285 1.285h1.285v14.786L16.714 83z"/>
    <path fill="#fff" d="M12.857 54.071H14.142999999999999V56.641999999999996H12.857zM21.857 54.071H23.143V56.641999999999996H21.857z"/>
</svg>
