<svg xmlns="http://www.w3.org/2000/svg" width="295" height="83" fill="none" viewBox="0 0 295 83">
    <path stroke="#B361C6" stroke-width="2" d="M1 1H294V82H1z"/>
    <path fill="#B361C6" d="M89.213 43.232h-4.92v4.147h5.822V50h-8.98V34.36h8.959v2.631h-5.801v3.696h4.92v2.545zm6.467-1.407l1.353-3.448h3.223l-2.653 5.683 2.75 5.94h-3.234l-1.429-3.642L94.272 50h-3.244l2.75-5.94-2.632-5.683h3.234l1.3 3.448zm15.135 2.729c0 1.826-.315 3.226-.945 4.2-.623.974-1.554 1.46-2.793 1.46-.945 0-1.704-.382-2.277-1.149v5.404h-3.04V38.377h2.814l.108 1.063c.58-.852 1.371-1.278 2.374-1.278 1.239 0 2.17.451 2.793 1.354.63.902.952 2.284.966 4.146v.892zm-3.029-.763c0-1.124-.125-1.92-.376-2.385-.243-.465-.659-.698-1.246-.698-.623 0-1.078.261-1.364.784v5.447c.272.5.734.751 1.386.751.601 0 1.016-.254 1.246-.762.236-.509.354-1.3.354-2.374v-.763zM115.843 50h-3.051V33.5h3.051V50zm1.998-6.188c0-1.761.415-3.143 1.246-4.146.831-1.003 1.98-1.504 3.448-1.504 1.483 0 2.639.501 3.47 1.504.831 1.003 1.246 2.392 1.246 4.168v.741c0 1.77-.412 3.151-1.235 4.147-.824.995-1.977 1.493-3.459 1.493-1.49 0-2.65-.498-3.481-1.493-.823-1.003-1.235-2.392-1.235-4.168v-.742zm3.051.763c0 2.077.555 3.115 1.665 3.115 1.024 0 1.575-.866 1.654-2.6l.011-1.278c0-1.06-.147-1.844-.441-2.352-.293-.516-.709-.773-1.246-.773-.515 0-.92.257-1.214.773-.286.508-.429 1.293-.429 2.352v.763zm13.997-3.265l-1.01-.086c-.831 0-1.393.365-1.687 1.095V50h-3.05V38.377h2.868l.086 1.257c.48-.981 1.142-1.472 1.987-1.472.344 0 .623.047.838.14l-.032 3.008zm6.767 8.69c-.086-.179-.172-.48-.258-.902-.544.744-1.281 1.117-2.212 1.117-.974 0-1.784-.322-2.428-.967-.638-.645-.956-1.479-.956-2.503 0-1.217.386-2.16 1.16-2.825.781-.666 1.901-1.006 3.362-1.02h.924v-.935c0-.523-.089-.892-.269-1.107-.179-.214-.44-.322-.784-.322-.759 0-1.138.444-1.138 1.332h-3.04c0-1.074.401-1.959 1.203-2.653.809-.702 1.829-1.053 3.061-1.053 1.275 0 2.26.333 2.954 1 .702.658 1.053 1.603 1.053 2.835v5.468c.014 1.002.158 1.787.43 2.352V50h-3.062zm-1.794-2.17c.337 0 .623-.068.86-.204.236-.136.411-.297.526-.483v-2.417h-.73c-.516 0-.924.164-1.225.494-.294.33-.44.77-.44 1.321 0 .86.336 1.29 1.009 1.29zm12.365-6.52l-1.01-.086c-.831 0-1.393.365-1.687 1.095V50h-3.051V38.377h2.869l.086 1.257c.479-.981 1.142-1.472 1.987-1.472.344 0 .623.047.838.14l-.032 3.008zm9.496-2.933l.086 1.074c.68-.86 1.579-1.289 2.696-1.289 1.16 0 1.98.523 2.46 1.569.666-1.046 1.615-1.569 2.847-1.569 2.033 0 3.075 1.407 3.126 4.222V50h-3.041v-7.423c0-.673-.093-1.153-.279-1.44-.186-.286-.501-.429-.945-.429-.566 0-.988.347-1.268 1.042l.022.365V50h-3.04v-7.401c0-.666-.09-1.146-.269-1.44-.179-.3-.498-.451-.956-.451-.523 0-.938.283-1.246.849V50h-3.04V38.377h2.847zm18.165 11.838c-1.562 0-2.779-.466-3.653-1.397-.873-.93-1.31-2.263-1.31-3.996v-.924c0-1.833.401-3.247 1.203-4.243.802-.995 1.951-1.493 3.448-1.493 1.461 0 2.56.47 3.298 1.407.738.931 1.114 2.313 1.128 4.147v1.493h-6.048c.043.86.233 1.49.569 1.89.337.395.856.591 1.558.591 1.017 0 1.866-.347 2.546-1.042l1.192 1.837c-.372.516-.913.935-1.622 1.257-.709.315-1.479.473-2.309.473zm-1.912-7.133h3.04v-.28c-.015-.694-.129-1.22-.344-1.578-.215-.358-.587-.537-1.117-.537s-.917.19-1.16.569c-.237.38-.376.988-.419 1.826zm12.89 3.803c0-.258-.125-.494-.376-.71-.243-.221-.791-.518-1.643-.89-1.254-.51-2.117-1.036-2.589-1.58-.466-.544-.698-1.221-.698-2.03 0-1.017.365-1.855 1.095-2.514.738-.666 1.712-.999 2.922-.999 1.275 0 2.295.33 3.062.988.766.66 1.149 1.544 1.149 2.654h-3.04c0-.946-.394-1.418-1.182-1.418-.322 0-.587.1-.795.3-.207.201-.311.48-.311.838 0 .258.115.487.344.688.229.193.77.473 1.622.838 1.239.458 2.112.97 2.621 1.536.515.559.773 1.285.773 2.18 0 1.039-.39 1.873-1.171 2.504-.78.63-1.804.945-3.072.945-.852 0-1.604-.165-2.256-.494-.651-.337-1.163-.802-1.536-1.397-.365-.594-.548-1.235-.548-1.923h2.89c.014.53.136.928.365 1.193.237.265.62.397 1.15.397.816 0 1.224-.369 1.224-1.106zm9.539 3.33c-1.561 0-2.778-.466-3.652-1.397-.874-.93-1.311-2.263-1.311-3.996v-.924c0-1.833.401-3.247 1.204-4.243.802-.995 1.951-1.493 3.448-1.493 1.461 0 2.56.47 3.298 1.407.737.931 1.113 2.313 1.128 4.147v1.493h-6.048c.043.86.232 1.49.569 1.89.337.395.856.591 1.558.591 1.017 0 1.865-.347 2.546-1.042l1.192 1.837c-.372.516-.913.935-1.622 1.257-.709.315-1.479.473-2.31.473zm-1.912-7.133h3.04v-.28c-.014-.694-.129-1.22-.344-1.578-.214-.358-.587-.537-1.117-.537s-.916.19-1.16.569c-.236.38-.376.988-.419 1.826zm12.891 3.803c0-.258-.126-.494-.376-.71-.244-.221-.792-.518-1.644-.89-1.253-.51-2.116-1.036-2.589-1.58-.465-.544-.698-1.221-.698-2.03 0-1.017.365-1.855 1.096-2.514.737-.666 1.711-.999 2.922-.999 1.274 0 2.295.33 3.061.988.767.66 1.15 1.544 1.15 2.654h-3.04c0-.946-.394-1.418-1.182-1.418-.322 0-.587.1-.795.3-.208.201-.311.48-.311.838 0 .258.114.487.343.688.229.193.77.473 1.622.838 1.239.458 2.113.97 2.621 1.536.516.559.774 1.285.774 2.18 0 1.039-.39 1.873-1.171 2.504-.781.63-1.805.945-3.072.945-.852 0-1.604-.165-2.256-.494-.652-.337-1.164-.802-1.536-1.397-.365-.594-.548-1.235-.548-1.923h2.89c.014.53.136.928.365 1.193.236.265.619.397 1.149.397.817 0 1.225-.369 1.225-1.106zM269.929 59.214v-3.857h1.285v1.929h2.572v-1.929h6.428v1.929h2.572v-1.929h1.286v3.857h-14.143zM284.072 59.857v14.786h-14.143V59.857h14.143zm-3.858 4.5h2.572v-2.571h-2.572v2.571zm-4.5 0h2.572v-2.571h-2.572v2.571zm-4.5 0h2.572v-2.571h-2.572v2.571zm9 3.857h2.572v-2.571h-2.572v2.571zm-4.5 0h2.572v-2.571h-2.572v2.571zm-4.5 0h2.572v-2.571h-2.572v2.571zm9 3.858h2.572V69.5h-2.572v2.572zm-4.5 0h2.572V69.5h-2.572v2.572zm-4.5 0h2.572V69.5h-2.572v2.572z"/>
    <path fill="#B361C6" fill-opacity=".25" d="M278.286 83H295V66.286l-10.929-10.929h-14.142v3.215l1.285 1.285h-1.285v14.786L278.286 83z"/>
    <path fill="#fff" d="M0 0H1.286V2.571H0z" transform="matrix(-1 0 0 1 282.143 54.072)"/>
    <path fill="#fff" d="M0 0H1.286V2.571H0z" transform="matrix(-1 0 0 1 273.143 54.072)"/>
</svg>
