<svg xmlns="http://www.w3.org/2000/svg" width="106" height="105" fill="none" viewBox="0 0 106 105">
    <g clip-path="url(#clip0)">
        <path fill="#fff" d="M57 73l15-15V32H32l-7 7v34h32z" opacity=".25"/>
        <path fill="#fff" fill-rule="evenodd" d="M72 32H32v26h17v4h-3v2h12v-2h-3v-4h17V32zM35 54.995s33.994.011 33.994 0c0 0 .013-19.995 0-19.995H35v19.995z" clip-rule="evenodd"/>
        <path stroke="#fff" stroke-width="2" d="M8.485 40L0 48.485l8.485 8.486M16.97 48.485h-16M97.485 56.97l8.486-8.485L97.485 40M89 48.485h16M60.97 8.485L52.486 0 44 8.485M52.485 16.97v-16M44 96.485l8.485 8.486 8.486-8.486M52.485 88v16"/>
    </g>
    <defs>
        <clipPath id="clip0">
            <path fill="#fff" d="M0 0H105.971V104.971H0z"/>
        </clipPath>
    </defs>
</svg>
