<svg xmlns="http://www.w3.org/2000/svg" width="376" height="242" fill="none" viewBox="0 0 376 242">
    <g clip-path="url(#clip0)">
        <path fill="#fff" d="M41 216.5V230l-12 12H0v-18l28-26 15 14-2 2v2.5z" opacity=".25"/>
        <path fill="#fff" d="M15 214v16h11v-6.667h4V230h11v-16H15zM28 198l-15 14h30l-15-14z"/>
        <path fill="#fff" d="M366 213v12l-17 17h-29v-30l10-10h3v11h33z" opacity=".25"/>
        <path fill="#fff" d="M330 225h3v-8h31v8h2v-12h-33v-11h-3v23z"/>
        <path fill="#fff" d="M122 212v4l-26 26H80v-17l14-13 12-12h4v12h12z" opacity=".25"/>
        <path fill="#fff" d="M106 200v28h4v-28h-4z"/>
        <path fill="#fff" d="M122 212H94v4h28v-4z"/>
        <path fill="#fff" d="M182 149h-22v-25l18-18 9 2v2l2-2 9-2v7l-1 1h5v8h-1v12l-19 15z" opacity=".25"/>
        <path fill="#fff" d="M174 122h1v12h12v-20h-13v8zM189 114v20h12v-12h1v-8h-13z"/>
        <path fill="#fff" fill-rule="evenodd" d="M187 108l-9-2v7h9v-5zm-2 2l-5-1v2h5v-1zM189 108l9-2v7h-9v-5zm2 2l5-1v2h-5v-1z" clip-rule="evenodd"/>
        <path fill="#fff" d="M203 212s.011-8 0-8h-33l-10 10v28h24s22-21.989 22-22v-8h-3z" opacity=".25"/>
        <path fill="#fff" d="M177.5 223.999c1.933 0 3.5-1.567 3.5-3.5s-1.567-3.5-3.5-3.5-3.5 1.567-3.5 3.5 1.567 3.5 3.5 3.5zM194.5 223.999c1.933 0 3.5-1.567 3.5-3.5s-1.567-3.5-3.5-3.5-3.5 1.567-3.5 3.5 1.567 3.5 3.5 3.5z"/>
        <path fill="#fff" fill-rule="evenodd" d="M172.022 220c.253-2.803 2.609-5 5.478-5 2.869 0 5.225 2.197 5.477 5h6.045c.253-2.803 2.609-5 5.478-5 2.869 0 5.225 2.197 5.478 5H206v-8h-3s.011-8 0-8h-33v16h2.022z" clip-rule="evenodd"/>
        <path fill="#fff" d="M123 117h-4l2-2s.011-4 0-4H93l-13 13v25h23s18-17.989 18-18v-4l2-2v-8z" opacity=".25"/>
        <path fill="#fff" d="M108 127h13v4c0 .011-28 0-28 0v-20h28c.011 0 0 4 0 4h-13v12z"/>
        <path fill="#fff" d="M110 125v-8h13v8h-13zm6-6c-1.1 0-2 .9-2 2s.9 2 2 2 2-.9 2-2c0-1.111-.9-2-2-2z"/>
        <path fill="#fff" fill-opacity=".25" d="M113 42v6l-8 8H80V31l24.467-21.533 7.066 7.066L107.6 20h5.4v2l2-2h2v18l-4 4z"/>
        <path fill="#fff" d="M117 20h-2v18h2V20zM101 20h-2v18h2V20zM103 20v28h3V35h4v13h3V20h-10zM108 18c2.761 0 5-2.239 5-5s-2.239-5-5-5-5 2.239-5 5 2.239 5 5 5z"/>
        <path fill="#fff" fill-opacity=".25" d="M267 242h-27v-27l10-10h36v18l-19 19z"/>
        <path fill="#fff" d="M278.422 210h-20.844c-.5 1.156-1.434 2.078-2.578 2.578v2.833c1.156.5 2.078 1.434 2.578 2.578h20.833c.5-1.155 1.433-2.078 2.578-2.578v-2.833c-1.145-.5-2.067-1.422-2.567-2.578zM268 216c-1.1 0-2-.9-2-2s.9-2 2-2 2 .9 2 2c0 1.111-.9 2-2 2z"/>
        <path fill="#fff" d="M250 205v18h36v-18h-36zm33 12c-.767 0-1.467.289-2 .767-.089.078-.167.155-.233.233-.478.533-.767 1.233-.767 2h-24c0-.767-.289-1.467-.767-2-.077-.089-.155-.167-.233-.233-.533-.478-1.233-.767-2-.767v-6c.767 0 1.467-.289 2-.767.089-.077.167-.155.233-.233.478-.533.767-1.233.767-2h24c0 .767.289 1.467.767 2 .077.089.155.167.233.233.533.478 1.233.767 2 .767v6z"/>
        <path stroke="#fff" stroke-width="2" d="M180 177.485l8.485 8.486 8.486-8.486M188.485 169v16M100 83.485l8.485 8.486 8.486-8.486M108.485 75v16M152 122h-16M144 114v16M72 214H56M64 206v16M152 214h-16M144 206v16M232 214h-16M224 206v16M312 214h-16M304 206v16"/>
    </g>
    <defs>
        <clipPath id="clip0">
            <path fill="#fff" d="M0 0H376V242H0z"/>
        </clipPath>
    </defs>
</svg>
