<svg xmlns="http://www.w3.org/2000/svg" width="112" height="151" fill="none" viewBox="0 0 112 151">
    <g clip-path="url(#clip0)">
        <path stroke="#fff" stroke-width="2" d="M48 84.485l8.485 8.486 8.486-8.486M56.485 76v16"/>
        <path fill="#fff" d="M71 13v12L58 38v5L45 56H28V23l13-10h6v4l2-2h14l2-2h6z" opacity=".25"/>
        <path fill="#fff" d="M49 15v8h5v20h4V23h5v-8H49zM71 13h-6v12h6V13zM47 13h-6v12h6V13z"/>
        <path fill="#fff" d="M100 114v4l-33 33H56v-31l12-12h26v4l-2.5 2h8.5z" opacity=".25"/>
        <path fill="#fff" d="M94 108H98V134H94z" transform="rotate(90 94 108)"/>
        <path fill="#fff" d="M100 114H104V146H100z" transform="rotate(90 100 114)"/>
        <path fill="#fff" d="M92 120H96V144H92z" transform="rotate(90 92 120)"/>
        <path fill="#fff" d="M81 126H85V139H81z" transform="rotate(90 81 126)"/>
        <path fill="#fff" d="M76 132H80V140H76z" transform="rotate(90 76 132)"/>
        <path fill="#fff" d="M29 115v13l2-2h4v7l2-2h4v8l-12 12H0v-26l19-18h4v10l2-2h4z" opacity=".25"/>
        <path fill="#fff" d="M13 113H17V139H13zM19 107H23V139H19zM25 115H29V139H25zM31 126H35V139H31zM37 131H41V139H37z"/>
    </g>
    <defs>
        <clipPath id="clip0">
            <path fill="#fff" d="M0 0H112V151H0z"/>
        </clipPath>
    </defs>
</svg>
