<svg xmlns="http://www.w3.org/2000/svg" width="140" height="108" fill="none" viewBox="0 0 140 108">
    <path fill="#fff" d="M101.277 85.509c0 2.033-.815 3.7-2.443 4.96-1.629 1.262-3.772 1.872-6.386 1.872-1.243 0-2.4-.163-3.472-.488-.429-.122-.857-.285-1.243-.488-1.371-.651-2.4-1.586-3.214-2.766-.515-.772-.815-1.586-.986-2.399-.086-.447-.129-.895-.129-1.383h6c0 .285.044.57.086.814.129.65.343 1.138.686 1.545.386.407.943.65 1.714.732.215.04.429.04.686.04 1.715 0 2.529-.731 2.529-2.195 0-.488-.257-.976-.772-1.424-.514-.447-1.671-1.016-3.428-1.748-.9-.366-1.758-.732-2.443-1.057-.429-.204-.772-.407-1.115-.651-.771-.447-1.371-.935-1.8-1.423-.385-.407-.685-.895-.9-1.383-.386-.773-.557-1.667-.557-2.643 0-1.993.772-3.66 2.314-4.961 1.543-1.302 3.558-1.952 6.087-1.952 2.657 0 4.8.65 6.385 1.952.215.203.43.406.643.61 1.158 1.22 1.758 2.765 1.758 4.636h-6.344v-.285c-.085-1.668-.9-2.521-2.443-2.521-.685 0-1.2.203-1.671.61-.429.406-.643.935-.643 1.667 0 .488.257.976.729 1.342.343.244.943.61 1.843 1.016.428.204.942.407 1.543.651 2.571.895 4.414 1.911 5.486 3.01.985 1.097 1.5 2.52 1.5 4.31zM80.425 68.51v23.83h-5.957v-2.358c-.38.456-.76.828-1.18 1.159-.675.496-1.392.827-2.235 1.034-.505.124-1.292.166-1.84.166-1.728 0-3.12-.456-4.173-1.366l-.506-.496c-.084-.124-.21-.248-.295-.373-1.138-1.489-1.686-3.64-1.686-6.453V68.51h5.957v15.307c.042 2.276 1.082 3.392 2.6 3.392 1.433 0 2.725-.62 3.358-1.82V68.51h5.957zM59.575 56.596v36.673c0 2.588-.607 4.61-1.78 5.945-1.213 1.375-2.843 2.063-5.027 2.063-.93 0-1.82-.122-2.71-.364l-.04-4.894c.647.121 1.173.202 1.578.202 1.334 0 2.022-.93 2.022-2.79V56.596h5.957z"/>
    <path fill="#fff" d="M95.319 107.234v-5.958L80.425 86.383h-5.957v5.957l14.893 14.894h5.958z" opacity=".25"/>
    <path fill="#fff" d="M95.319 101.276H101.276V107.23299999999999H95.319z" transform="rotate(90 95.319 101.276)"/>
    <path fill="#fff" d="M101.277 43.807c0 2.033-.815 3.7-2.443 4.96-1.629 1.261-3.772 1.871-6.386 1.871-1.243 0-2.4-.162-3.472-.488-.429-.122-.857-.284-1.243-.488-1.371-.65-2.4-1.585-3.214-2.765-.515-.773-.815-1.586-.986-2.4-.086-.446-.129-.894-.129-1.382h6c0 .285.044.57.086.814.129.65.343 1.138.686 1.545.386.407.943.65 1.714.732.215.04.429.04.686.04 1.715 0 2.529-.731 2.529-2.195 0-.488-.257-.976-.772-1.424-.514-.447-1.671-1.016-3.428-1.748-.9-.366-1.758-.732-2.443-1.058-.429-.203-.772-.406-1.115-.65-.771-.447-1.371-.935-1.8-1.423-.385-.407-.685-.895-.9-1.383-.386-.773-.557-1.667-.557-2.643 0-1.993.772-3.66 2.314-4.962 1.543-1.3 3.558-1.951 6.087-1.951 2.657 0 4.8.65 6.385 1.951l.643.61c1.158 1.22 1.758 2.766 1.758 4.636h-6.344v-.284c-.085-1.668-.9-2.522-2.443-2.522-.685 0-1.2.204-1.671.61-.429.407-.643.936-.643 1.668 0 .488.257.976.729 1.342.343.244.943.61 1.843 1.016.428.204.942.407 1.543.65 2.571.896 4.414 1.912 5.486 3.01.985 1.098 1.5 2.521 1.5 4.31zM80.152 34.86c-.35-2.033-1.053-3.74-2.107-5.083-.078-.122-.195-.244-.312-.366l-.39-.407c0-.04-.04-.04-.04-.04-1.287-1.22-2.887-1.952-4.799-2.115-.312-.04-.663-.04-1.015-.04-2.77 0-4.956.976-6.555 2.968-1.561 1.993-2.38 4.717-2.38 8.215v1.464c0 1.626.155 3.09.506 4.35.39 1.505 1.015 2.806 1.874 3.864 1.56 1.992 3.746 2.968 6.594 2.968 2.81 0 4.995-.976 6.556-2.968 1.561-1.952 2.342-4.717 2.342-8.215v-1.463c0-1.098-.118-2.156-.274-3.132zm-5.502 5.653c-.156 3.416-1.21 5.124-3.122 5.124-2.107 0-3.16-2.034-3.16-6.14v-1.505c0-2.115.273-3.66.82-4.677.545-1.017 1.326-1.505 2.301-1.505.859 0 1.561.366 2.069 1.098.117.122.195.285.273.448.546 1.016.82 2.562.82 4.676v2.48zM53.617 14.893v14.196c-1.173-1.537-2.735-2.265-4.514-2.265-2.427 0-4.287.93-5.54 2.75-1.214 1.86-1.86 4.65-1.86 8.371v1.74c.04 3.558.687 6.342 1.94 8.202.122.162.243.324.364.445.283.364.607.647.93.93 1.133.89 2.508 1.375 4.206 1.375 1.78 0 3.301-.809 4.474-2.386v2.386h5.958V14.893h-5.958zm0 29.037c-.607 1.052-1.602 1.578-2.775 1.578-1.133 0-1.941-.445-2.427-1.335-.485-.89-.728-2.467-.728-4.732v-1.577c0-2.264.243-3.842.769-4.731.525-.89 1.294-1.335 2.426-1.335 1.173 0 2.128.566 2.735 1.699V43.93zM36.517 28.75c-1.471-1.294-3.101-1.941-5.784-1.941-2.597 0-4.76.687-6.448 2.062-1.688 1.335-2.51 3.074-2.51 5.177h6.404c0-1.74.78-2.63 2.38-2.63.736 0 1.255.203 1.645.648.39.445.563 1.132.563 2.184v1.82h-1.948c-3.072.04-5.41.687-7.054 1.981-1.644 1.294-2.466 3.155-2.466 5.54 0 2.023.692 3.68 2.034 4.934 1.341 1.254 3.029 1.901 5.106 1.901 1.774 0 3.246-.607 4.328-1.82v7.99h5.957V34.33c0-2.427-.736-4.287-2.207-5.581zm-3.75 15.69c-.26.365-.606.688-1.126.971-.476.283-1.081.405-1.817.405-1.428 0-2.12-.85-2.12-2.548 0-1.092.302-1.941.951-2.588.606-.647 1.472-.97 2.554-.97h1.558v4.73zM11.915 5.957v23.132c-1.173-1.537-2.735-2.264-4.514-2.264-2.427 0-4.287.93-5.54 2.75C.646 31.434 0 34.224 0 37.944v1.74c.04 3.559.687 6.343 1.941 8.203.121.162.243.323.364.445.283.364.607.647.93.93 1.133.89 2.508 1.375 4.206 1.375 1.78 0 3.301-.809 4.474-2.386v2.386h5.957V5.957h-5.957zm0 37.974c-.607 1.052-1.603 1.577-2.775 1.577-1.133 0-1.942-.445-2.427-1.334-.485-.89-.728-2.467-.728-4.732v-1.577c0-2.265.243-3.842.769-4.732.525-.89 1.294-1.334 2.426-1.334 1.173 0 2.128.566 2.735 1.698v10.434z"/>
    <path fill="#fff" d="M23.83 65.532h5.957l8.936-8.936V50.64h-5.957l-8.936 8.936v5.957z" opacity=".25"/>
    <path fill="#fff" d="M29.787 65.532H35.744V71.48899999999999H29.787z" transform="rotate(-180 29.787 65.532)"/>
    <path fill="#fff" d="M38.723 0h5.958l14.893 14.894v5.958h-5.957L38.723 5.958V.001z" opacity=".25"/>
    <path fill="#fff" d="M0 0H5.957V5.957H0z" transform="matrix(-1 0 0 1 44.68 0)"/>
    <path fill="#fff" d="M140 68.795l-.081 5.904-1.941-.162h-.041c-1.617 0-3.301.729-3.867 2.144v24.597h-5.985V68.512h5.621l.162 2.912c.93-1.942 2.775-2.912 4.474-2.912.687 0 1.253.08 1.658.283zM123.286 71.433c-1.172-1.86-3.07-2.922-5.618-2.922-1.86 0-3.344.94-4.477 2.437V59.575h-5.957v32.766h5.5l.202-2.669c1.173 1.78 2.791 2.67 4.772 2.67 1.052 0 1.982-.162 2.831-.486 1.132-.445 2.1-1.213 2.788-2.305 1.173-1.86 1.779-4.61 1.779-8.33v-1.7c-.04-3.558-.647-6.227-1.82-8.088zm-7.276 16.055c-1.335 0-2.293-.606-2.819-1.698V75.397c.567-1.133 1.525-1.699 2.778-1.699 1.173 0 1.982.405 2.427 1.254.445.849.687 2.426.687 4.853v2.183c-.04 2.144-.283 3.6-.728 4.368-.445.728-1.213 1.132-2.345 1.132z"/>
    <path fill="#fff" d="M122.128 50.639h-5.957l-8.937 8.936v5.957h5.958l8.936-8.936V50.64z" opacity=".25"/>
    <path fill="#fff" d="M116.17 50.639H122.127V56.596000000000004H116.17z"/>
</svg>
