<svg xmlns="http://www.w3.org/2000/svg" width="36" height="36" fill="none" viewBox="0 0 36 36">
    <path fill="#fff" d="M21.857 36H36V19.929L24.429 8.357l-5.786 1.286v1.286l-1.286-1.286-5.786-1.286v4.5l.643.643H9v5.143h.643v7.714L21.857 36z" opacity=".25"/>
    <path fill="#fff" d="M27 18.643h-.643v7.714h-7.714V13.5H27v5.143zM17.357 13.5v12.857H9.643v-7.714H9V13.5h8.357z"/>
    <path fill="#fff" fill-rule="evenodd" d="M18.643 9.643l5.785-1.286v4.5h-5.785V9.643zm1.285 1.286l3.215-.643v1.285h-3.215v-.642zM17.357 9.643l-5.785-1.286v4.5h5.785V9.643zm-1.285 1.286l-3.215-.643v1.285h3.215v-.642z" clip-rule="evenodd"/>
</svg>
