<svg xmlns="http://www.w3.org/2000/svg" width="36" height="36" fill="none" viewBox="0 0 36 36">
    <mask id="gfle94uqra" width="36" height="36" x="0" y="0" maskUnits="userSpaceOnUse">
        <circle cx="18" cy="18" r="18" fill="#fff"/>
    </mask>
    <g mask="url(#gfle94uqra)">
        <path fill="#fff" d="M36 0H0v36h36V0z"/>
        <path fill="#3F5363" fill-opacity=".1" d="M17.357 36H0V18.643l6.429-6.429H29.57v11.572L17.357 36z"/>
    </g>
    <path fill="#3E5363" d="M24.7 15.429H11.3c-.322.743-.921 1.335-1.657 1.657v1.821c.743.322 1.335.922 1.657 1.657h13.393c.321-.742.921-1.335 1.657-1.657v-1.821c-.736-.322-1.329-.914-1.65-1.657zM18 19.286c-.707 0-1.286-.579-1.286-1.286 0-.707.579-1.286 1.286-1.286.707 0 1.286.579 1.286 1.286 0 .714-.579 1.286-1.286 1.286z"/>
    <path fill="#3E5363" d="M6.429 12.214v11.572h23.143V12.214H6.429zm21.214 7.715c-.493 0-.943.185-1.286.493-.057.05-.107.1-.15.15-.307.342-.493.792-.493 1.285H10.286c0-.493-.186-.943-.493-1.285-.05-.058-.1-.108-.15-.15-.343-.308-.793-.493-1.286-.493v-3.857c.493 0 .943-.186 1.286-.493.057-.05.107-.1.15-.15.307-.343.493-.793.493-1.286h15.428c0 .493.186.943.493 1.286.05.057.1.107.15.15.343.307.793.492 1.286.492v3.858z"/>
</svg>
