<svg xmlns="http://www.w3.org/2000/svg" width="105" height="81" fill="none" viewBox="0 0 105 81">
    <path fill="#fff" d="M75.957 63.996c0 1.515-.61 2.757-1.832 3.696-1.221.939-2.829 1.393-4.79 1.393-.931 0-1.8-.12-2.603-.363-.321-.091-.643-.212-.932-.364-1.029-.484-1.8-1.181-2.411-2.06-.386-.575-.61-1.181-.74-1.787-.064-.333-.096-.667-.096-1.03h4.5c0 .212.033.424.065.606.096.484.257.848.514 1.151.29.303.707.485 1.286.545.16.03.321.03.514.03 1.286 0 1.897-.545 1.897-1.635 0-.364-.193-.727-.579-1.06-.386-.334-1.254-.758-2.572-1.303-.674-.273-1.317-.545-1.832-.788-.321-.151-.578-.303-.836-.485-.578-.333-1.028-.696-1.35-1.06-.289-.303-.514-.666-.675-1.03-.289-.575-.417-1.242-.417-1.969 0-1.484.578-2.726 1.735-3.696 1.157-.97 2.668-1.454 4.565-1.454 1.993 0 3.6.485 4.79 1.454l.481.455c.868.908 1.319 2.06 1.319 3.453H71.2v-.212c-.064-1.242-.675-1.878-1.832-1.878-.514 0-.9.151-1.254.454-.321.303-.482.697-.482 1.242 0 .364.193.727.546 1 .258.182.708.454 1.383.757.321.152.707.303 1.157.485 1.929.666 3.31 1.424 4.114 2.242.74.818 1.126 1.878 1.126 3.21zM60.32 51.333v17.752H55.85V67.33c-.284.339-.569.616-.885.863-.506.37-1.043.616-1.675.77-.38.093-.97.123-1.381.123-1.296 0-2.34-.339-3.13-1.017l-.38-.37c-.062-.092-.157-.184-.22-.277-.854-1.11-1.265-2.712-1.265-4.808v-11.28h4.468v11.403c.032 1.696.811 2.528 1.95 2.528 1.075 0 2.044-.463 2.518-1.356V51.333h4.468zM44.681 42.457v27.32c0 1.929-.454 3.435-1.334 4.43-.91 1.023-2.133 1.536-3.77 1.536-.698 0-1.365-.09-2.033-.271l-.03-3.646c.485.09.88.15 1.183.15 1 0 1.517-.692 1.517-2.078V42.457h4.468z"/>
    <path fill="#fff" d="M71.49 80.18v-4.437L60.32 64.647H55.85v4.438l11.17 11.096h4.468z" opacity=".25"/>
    <path fill="#fff" d="M71.489 75.742H75.927V80.21000000000001H71.489z" transform="rotate(90 71.49 75.742)"/>
    <path fill="#7F3D8B" d="M75.957 32.93c0 1.514-.61 2.756-1.832 3.695-1.221.94-2.829 1.394-4.79 1.394-.931 0-1.8-.121-2.603-.364-.321-.09-.643-.212-.932-.363-1.029-.485-1.8-1.182-2.411-2.06-.386-.576-.61-1.182-.74-1.788-.064-.333-.096-.666-.096-1.03h4.5c0 .213.033.425.065.606.096.485.257.849.514 1.152.29.303.707.484 1.286.545.16.03.321.03.514.03 1.286 0 1.897-.545 1.897-1.636 0-.363-.193-.727-.579-1.06-.386-.333-1.254-.757-2.572-1.303-.674-.272-1.317-.545-1.832-.787-.321-.152-.578-.303-.836-.485-.578-.333-1.028-.697-1.35-1.06-.289-.303-.514-.667-.675-1.03-.289-.576-.417-1.242-.417-1.97 0-1.484.578-2.726 1.735-3.695 1.157-.97 2.668-1.454 4.565-1.454 1.993 0 3.6.484 4.79 1.454l.481.454c.868.909 1.319 2.06 1.319 3.454H71.2v-.212c-.064-1.243-.675-1.879-1.832-1.879-.514 0-.9.152-1.254.455-.321.303-.482.697-.482 1.242 0 .363.193.727.546 1 .258.181.708.454 1.383.757.321.151.707.303 1.157.485 1.929.666 3.31 1.423 4.114 2.241.74.818 1.126 1.879 1.126 3.211zM60.114 26.265c-.263-1.515-.79-2.787-1.58-3.787-.059-.09-.146-.182-.234-.273l-.293-.302c0-.03-.03-.03-.03-.03-.965-.91-2.165-1.455-3.599-1.576-.234-.03-.497-.03-.76-.03-2.079 0-3.718.727-4.918 2.211-1.17 1.484-1.785 3.514-1.785 6.12v1.09c0 1.212.117 2.302.38 3.241.293 1.121.761 2.09 1.405 2.878 1.171 1.485 2.81 2.212 4.946 2.212 2.108 0 3.747-.727 4.917-2.212 1.171-1.454 1.756-3.514 1.756-6.119v-1.09c0-.819-.088-1.606-.205-2.333zm-4.126 4.21c-.117 2.545-.907 3.818-2.342 3.818-1.58 0-2.37-1.515-2.37-4.575v-1.12c0-1.576.205-2.727.614-3.484.41-.758.995-1.121 1.727-1.121.644 0 1.17.272 1.551.818.088.09.147.212.205.333.41.757.615 1.909.615 3.484v1.848zM40.213 11.39v10.576c-.88-1.145-2.051-1.687-3.386-1.687-1.82 0-3.215.693-4.155 2.049-.91 1.386-1.395 3.464-1.395 6.236v1.295c.03 2.652.515 4.726 1.456 6.111.09.121.181.242.273.332.212.271.454.482.697.693.85.663 1.88 1.024 3.154 1.024 1.335 0 2.476-.602 3.356-1.777v1.777h4.468V11.391h-4.468zm0 21.633c-.455.783-1.202 1.175-2.082 1.175-.849 0-1.456-.332-1.82-.995-.364-.662-.545-1.837-.545-3.524v-1.175c0-1.687.181-2.862.576-3.525.394-.663.97-.994 1.82-.994.88 0 1.596.421 2.05 1.265v7.773zM27.388 21.713c-1.104-.964-2.326-1.446-4.338-1.446-1.948 0-3.57.512-4.836 1.536-1.266.994-1.883 2.29-1.883 3.856h4.804c0-1.295.584-1.958 1.785-1.958.552 0 .941.15 1.233.482.292.332.422.844.422 1.627v1.356h-1.46c-2.305.03-4.057.512-5.29 1.476-1.234.964-1.85 2.35-1.85 4.127 0 1.507.519 2.742 1.525 3.676 1.006.934 2.272 1.416 3.83 1.416 1.33 0 2.434-.452 3.245-1.356v5.952h4.468V25.87c0-1.807-.552-3.193-1.655-4.157zm-2.813 11.689c-.195.271-.454.512-.844.723-.357.21-.811.301-1.363.301-1.07 0-1.59-.632-1.59-1.898 0-.813.227-1.446.714-1.928.454-.482 1.103-.723 1.915-.723h1.168v3.525zM8.936 4.733v17.233c-.88-1.145-2.05-1.687-3.385-1.687-1.82 0-3.216.693-4.156 2.049C.485 23.713 0 25.792 0 28.564v1.295c.03 2.651.516 4.725 1.456 6.111.09.12.182.241.273.332.212.27.455.482.697.693.85.663 1.881 1.024 3.155 1.024 1.334 0 2.476-.603 3.355-1.777v1.777h4.468V4.733H8.936zm0 28.29c-.455.783-1.202 1.175-2.081 1.175-.85 0-1.456-.332-1.82-.995-.364-.662-.546-1.837-.546-3.524v-1.175c0-1.688.182-2.863.576-3.525.395-.663.97-.994 1.82-.994.88 0 1.596.421 2.051 1.265v7.773z"/>
    <path fill="#7F3D8B" d="M17.872 49.114h4.468l6.703-6.657v-4.438h-4.469l-6.702 6.657v4.438z" opacity=".25"/>
    <path fill="#7F3D8B" d="M22.341 49.114H26.809V53.552H22.341z" transform="rotate(-180 22.34 49.114)"/>
    <path fill="#7F3D8B" d="M29.043.295h4.468L44.68 11.39v4.438h-4.468L29.043 4.733V.295z" opacity=".25"/>
    <path fill="#7F3D8B" d="M0 0H4.468V4.438H0z" transform="matrix(-1 0 0 1 33.51 .295)"/>
    <path fill="#3E5363" d="M105 51.544l-.061 4.398-1.456-.12h-.03c-1.213 0-2.476.542-2.9 1.597v18.324h-4.49v-24.41h4.217l.121 2.17c.698-1.447 2.081-2.17 3.355-2.17.516 0 .941.06 1.244.21zM92.465 53.51c-.88-1.386-2.303-2.177-4.214-2.177-1.395 0-2.508.7-3.358 1.815v-8.472h-4.468v24.41h4.125l.152-1.989c.88 1.326 2.093 1.988 3.58 1.988.788 0 1.485-.12 2.122-.361.85-.332 1.575-.904 2.091-1.717.88-1.386 1.334-3.435 1.334-6.207v-1.265c-.03-2.651-.485-4.64-1.364-6.025zm-5.458 11.96c-1 0-1.72-.452-2.114-1.265v-7.743c.425-.843 1.144-1.265 2.084-1.265.88 0 1.486.301 1.82.934.333.632.515 1.807.515 3.615v1.627c-.03 1.597-.212 2.681-.546 3.254-.333.542-.91.843-1.759.843z"/>
    <path fill="#3E5363" d="M91.596 38.018h-4.469l-6.702 6.657v4.438h4.468l6.703-6.657v-4.438z" opacity=".25"/>
    <path fill="#3E5363" d="M87.127 38.019H91.595V42.457H87.127z"/>
</svg>
