<svg xmlns="http://www.w3.org/2000/svg" width="140" height="90" fill="none" viewBox="0 0 140 90">
    <path fill="#34BA96" d="M121.799 62.96c-1.107-1.755-2.862-2.595-5.266-2.595-1.755 0-3.129.725-4.197 2.137v-7.555h-5.648v27.359h5.19l.191-2.137c1.106 1.679 2.633 2.518 4.502 2.518.992 0 1.87-.152 2.671-.457 1.069-.42 1.946-1.145 2.595-2.175 1.107-1.756 1.679-4.35 1.679-7.861v-1.603c-.038-3.357-.611-5.876-1.717-7.631zm-6.83 15.072c-1.26 0-2.137-.496-2.633-1.526v-9.807c.534-1.068 1.412-1.602 2.595-1.602 1.106 0 1.869.381 2.289 1.183.42.8.649 2.29.649 4.579v2.06c-.039 2.022-.267 3.396-.687 4.121-.42.687-1.145 1.069-2.213 1.069v-.077zM137.596 59.526l-.076 5.57-1.832-.152h-.038c-1.526 0-2.594.687-3.129 2.022v22.971h-5.647V59.678h5.304l.153 2.328c.877-1.832 2.098-2.747 3.701-2.747.649 0 1.183.076 1.564.267z"/>
    <path fill="#fff" d="M60.289 47.62v34.228c0 2.442-.572 4.35-1.679 5.61-1.145 1.296-2.747 1.945-4.808 1.945-.877 0-1.717-.114-2.556-.343l-.038-4.617c.61.114 1.106.19 1.488.19 1.259 0 1.907-.877 1.907-2.632V47.62h5.686zM79.1 60.365v21.94h-5.647V80.17c-.343.42-.687.763-1.068 1.069-.61.457-1.26.763-2.022.953-.458.115-.916.153-1.412.153-1.565 0-2.824-.42-3.778-1.26l-.458-.457c-.076-.114-.19-.229-.267-.343-1.03-1.374-1.526-3.358-1.526-5.953V60.365h5.647v14.119c.038 2.098.725 3.129 2.099 3.129 1.297 0 2.213-.573 2.785-1.68V60.366h5.648zM97.912 75.933c0 1.946-.725 3.473-2.175 4.656-1.45 1.183-3.358 1.755-5.685 1.755-1.03 0-1.946-.115-2.824-.382-.458-.152-.916-.305-1.374-.534-.763-.382-1.411-.877-1.946-1.45-.343-.343-.61-.725-.877-1.145-.687-1.106-1.03-2.289-1.03-3.586h5.341c.039.992.268 1.717.687 2.213.42.496 1.145.725 2.137.725.344 0 .649-.038.878-.115.725-.19 1.145-.61 1.297-1.297.038-.19.077-.42.077-.649 0-.458-.23-.916-.687-1.335-.458-.42-1.488-.954-3.053-1.641-2.328-.954-3.93-1.908-4.808-2.938-.877-1.03-1.297-2.251-1.297-3.778 0-1.87.687-3.434 2.06-4.655 1.374-1.221 3.167-1.832 5.419-1.832 2.365 0 4.273.611 5.685 1.832s2.137 2.862 2.137 4.922h-5.647c0-1.755-.725-2.633-2.213-2.633-.611 0-1.069.191-1.489.573-.381.381-.572.877-.572 1.564 0 .458.229.916.649 1.26.42.343 1.45.877 3.014 1.564 2.29.84 3.93 1.793 4.884 2.824.23.267.458.534.649.839.496.916.763 1.984.763 3.243z"/>
    <path fill="#B361C6" d="M11.142 0v21.826c-1.107-1.45-2.48-2.137-4.16-2.137-2.289 0-4.044.878-5.227 2.595C.611 24.039 0 26.672 0 30.183v1.64c.038 3.358.649 5.877 1.832 7.632.114.153.229.305.343.42.267.343.572.61.878.877 1.068.84 2.365 1.298 3.968 1.298 1.679 0 3.09-.764 4.197-2.252v2.252h5.648V0h-5.724zm0 35.83c-.572.992-1.412 1.488-2.518 1.488-1.069 0-1.832-.42-2.29-1.26-.458-.839-.687-2.327-.687-4.464v-1.488c0-2.137.23-3.625.725-4.464.496-.84 1.221-1.26 2.29-1.26 1.106 0 1.946.535 2.518 1.603v9.845h-.038zM32.09 22.551c-1.297-1.221-3.129-1.831-5.494-1.831-2.29 0-4.198.648-5.686 1.946-1.488 1.259-2.213 2.9-2.213 4.884h5.647c0-1.641.687-2.48 2.1-2.48.648 0 1.106.19 1.449.61.343.42.496 1.068.496 2.06v1.718h-1.717c-2.71.038-4.77.648-6.22 1.87-1.45 1.22-2.175 2.976-2.175 5.227 0 1.908.61 3.472 1.794 4.655 1.183 1.183 2.67 1.794 4.502 1.794 1.565 0 2.862-.573 3.816-1.718v7.937h5.647V27.817c0-2.29-.648-4.045-1.946-5.266zm-3.7 14.805c-.23.344-.535.649-.993.916-.42.267-.954.382-1.603.382-1.259 0-1.87-.802-1.87-2.404 0-1.03.268-1.832.84-2.443.534-.61 1.297-.915 2.251-.915h1.374v4.464zM48.765 7.174v14.652c-1.106-1.45-2.48-2.137-4.16-2.137-2.288 0-4.044.878-5.227 2.595-.038.038-.076.114-.114.153-1.145 1.755-1.679 4.311-1.679 7.746v1.64c.038 3.358.649 5.877 1.831 7.632 1.183 1.717 2.9 2.595 5.19 2.595 1.679 0 3.09-.764 4.197-2.252v2.252h5.648V7.174h-5.686zm0 28.656c-.572.992-1.412 1.488-2.518 1.488-1.069 0-1.832-.42-2.29-1.26-.458-.839-.687-2.327-.687-4.464v-1.488c0-1.412.115-2.556.306-3.396.114-.42.229-.801.42-1.068.457-.84 1.22-1.26 2.25-1.26 1.107 0 1.947.535 2.52 1.603v9.845zM74.483 27.206c-.343-1.908-1.03-3.51-2.06-4.77-.076-.114-.19-.228-.305-.343l-.382-.381c0-.038-.038-.038-.038-.038-1.26-1.145-2.824-1.832-4.693-1.985-.306-.038-.65-.038-.992-.038-2.71 0-4.847.916-6.411 2.786-1.526 1.87-2.328 4.426-2.328 7.707v1.374c0 1.526.153 2.9.496 4.083.382 1.412.993 2.633 1.832 3.625 1.526 1.87 3.663 2.785 6.449 2.785 2.747 0 4.884-.915 6.41-2.785 1.526-1.832 2.29-4.426 2.29-7.708v-1.374c0-1.03-.115-2.022-.268-2.938zm-5.38 5.304c-.152 3.205-1.183 4.808-3.052 4.808-2.06 0-3.091-1.908-3.091-5.762v-1.412c0-1.984.267-3.434.801-4.388.534-.954 1.297-1.412 2.252-1.412.839 0 1.526.344 2.022 1.03.114.115.19.268.267.42.534.954.801 2.404.801 4.389v2.327zM93.486 35.64c0 1.907-.725 3.471-2.175 4.654-1.45 1.183-3.358 1.756-5.686 1.756-1.106 0-2.136-.153-3.09-.458-.382-.115-.763-.267-1.107-.458-1.22-.61-2.137-1.488-2.862-2.595-.458-.725-.725-1.488-.877-2.251-.077-.42-.115-.84-.115-1.298h5.342c0 .267.038.535.077.764.114.61.305 1.068.61 1.45.344.381.84.61 1.526.686.191.038.382.038.61.038 1.527 0 2.252-.686 2.252-2.06 0-.458-.229-.916-.687-1.336-.457-.42-1.488-.953-3.052-1.64-.801-.344-1.565-.687-2.175-.992-.382-.191-.687-.382-.992-.61-.687-.42-1.221-.878-1.603-1.336-.343-.382-.61-.84-.801-1.298-.344-.725-.496-1.564-.496-2.48 0-1.87.687-3.434 2.06-4.655 1.374-1.221 3.167-1.832 5.419-1.832 2.365 0 4.273.61 5.685 1.832l.572.572c1.03 1.145 1.565 2.595 1.565 4.35h-5.647v-.267c-.077-1.564-.802-2.366-2.175-2.366-.61 0-1.069.191-1.489.573-.381.381-.572.877-.572 1.564 0 .458.23.916.649 1.26.305.228.84.572 1.64.953.382.191.84.382 1.374.61 2.29.84 3.93 1.794 4.884 2.824.878 1.03 1.336 2.366 1.336 4.045z"/>
</svg>
