<svg xmlns="http://www.w3.org/2000/svg" width="36" height="36" fill="none" viewBox="0 0 36 36">
    <path fill="#fff" d="M20.571 9.643l-.3-3.557L14.186 0H0v16.071l14.786 14.786h1.928v-2.571l2.572 2.571h1.928v-7.714l1.286 1.286h1.286V12.857L20.57 9.643z" opacity=".25"/>
    <path fill="#fff" d="M23.786 12.857H22.5V24.43h1.286V12.857zM13.5 12.857h-1.286V24.43H13.5V12.857zM14.786 12.857v18h1.928V22.5h2.572v8.357h1.928v-18h-6.428zM18 11.571c1.775 0 3.214-1.439 3.214-3.214S19.775 5.143 18 5.143s-3.214 1.439-3.214 3.214 1.439 3.214 3.214 3.214z"/>
</svg>
