<svg xmlns="http://www.w3.org/2000/svg" width="36" height="36" fill="none" viewBox="0 0 36 36">
    <path fill="#97BC3D" d="M36 0H0v36h36V0z"/>
    <path fill="#3F5363" d="M14.143 36H0V19.929L11.571 8.357l5.786 1.286v1.286l1.286-1.286 5.786-1.286v4.5l-.643.643H27v5.143h-.643v7.714L14.143 36z" opacity=".25"/>
    <path fill="#fff" d="M9 18.643h.643v7.714h7.714V13.5H9v5.143zM18.643 13.5v12.857h7.714v-7.714H27V13.5h-8.357z"/>
    <path stroke="#fff" stroke-width="2" d="M1 35V1h34v34H1z"/>
    <path fill="#fff" fill-rule="evenodd" d="M17.357 9.643l-5.786-1.286v4.5h5.786V9.643zm-1.286 1.286l-3.214-.643v1.285h3.214v-.642zM18.643 9.643l5.786-1.286v4.5h-5.786V9.643zm1.286 1.286l3.214-.643v1.285h-3.214v-.642z" clip-rule="evenodd"/>
</svg>
