<svg xmlns="http://www.w3.org/2000/svg" width="36" height="36" fill="none" viewBox="0 0 36 36">
    <path fill="#5FC2A7" d="M36 36H0V0h36v36z"/>
    <path fill="#3F5363" d="M27.643 15.429H25.07l1.286-1.286s.007-2.572 0-2.572h-18L0 19.93V36h14.786s11.571-11.564 11.571-11.571v-2.572l1.286-1.286V15.43z" opacity=".25"/>
    <path fill="#fff" d="M18 21.857h8.357v2.572c0 .007-18 0-18 0V11.57h18c.007 0 0 2.572 0 2.572H18v7.714z"/>
    <path fill="#fff" d="M19.285 20.571v-5.143h8.358v5.143h-8.358zm3.858-3.857c-.707 0-1.286.579-1.286 1.286 0 .707.579 1.286 1.286 1.286.707 0 1.285-.579 1.285-1.286 0-.714-.578-1.286-1.285-1.286z"/>
    <path stroke="#fff" stroke-width="2" d="M1 1v34h34V1H1z"/>
</svg>
