<svg xmlns="http://www.w3.org/2000/svg" width="36" height="36" fill="none" viewBox="0 0 36 36">
    <path fill="#fff" d="M8.357 15.429h2.572l-1.286-1.286s-.007-2.572 0-2.572h18L36 19.93V36H21.214S9.643 24.436 9.643 24.429v-2.572l-1.286-1.286V15.43z" opacity=".25"/>
    <path fill="#fff" d="M18 21.857H9.643v2.572c0 .007 18 0 18 0V11.57h-18c-.007 0 0 2.572 0 2.572H18v7.714z"/>
    <path fill="#fff" d="M16.715 20.571v-5.143H8.357v5.143h8.358zm-3.858-3.857c.708 0 1.286.579 1.286 1.286 0 .707-.578 1.286-1.286 1.286-.707 0-1.285-.579-1.285-1.286 0-.714.578-1.286 1.285-1.286z"/>
</svg>
