<svg xmlns="http://www.w3.org/2000/svg" width="100" height="99" viewBox="0 0 100 99">
    <g fill="none" fill-rule="evenodd">
        <path fill="#FFF" d="M18.78 0h62.113l-.06 51.615c-.845 7.18-4.176 12.126-9.32 17-6.515 5.792-14.284 10.063-21.746 14.5l-3.955-2.432c-11.84-7.244-26.424-14.911-27.032-30.638V0z"/>
        <path fill="#2FBB96" d="M49.528 29.752c-.146 4.825 1.683 5.06 1.353 8.15 1.714-1.114 1.637-4.744 4.058-7.195-1.787 4.483-.149 5.327-1.517 8.12 1.993-.461 3.16-3.898 6.276-5.374-3.215 3.602-1.963 4.957-4.203 7.113 2.029.248 4.303-2.582 7.735-2.904-4.252 2.287-3.541 3.987-6.382 5.246 1.822.928 4.926-.954 8.26-.082-4.776.694-4.689 2.535-7.79 2.748 1.394 1.493 4.955.787 7.79 2.747-4.725-.983-5.273.777-8.26-.084.8 1.882 4.387 2.435 6.382 5.247-4.105-2.54-5.222-1.072-7.735-2.904.108 2.041 3.29 3.788 4.203 7.112-2.989-3.788-4.542-2.794-6.276-5.372-.596 1.954 1.796 4.685 1.517 8.12-1.513-4.584-3.311-4.179-4.058-7.195-1.23 1.632.084 5.016-1.353 8.148.146-4.824-1.683-5.058-1.352-8.148-1.715 1.113-1.637 4.743-4.06 7.194 1.789-4.482.15-5.328 1.518-8.12-1.993.46-3.16 3.897-6.276 5.373 3.214-3.601 1.963-4.957 4.203-7.112-2.029-.248-4.303 2.582-7.735 2.904 4.252-2.286 3.541-3.987 6.383-5.247-1.823-.927-4.927.954-8.262.084 4.777-.695 4.69-2.537 7.79-2.747-1.393-1.496-4.954-.79-7.79-2.748 4.726.981 5.275-.779 8.262.082-.801-1.88-4.388-2.434-6.383-5.246 4.105 2.54 5.223 1.072 7.735 2.904-.108-2.042-3.29-3.79-4.203-7.113 2.99 3.79 4.541 2.794 6.276 5.373.596-1.954-1.796-4.686-1.517-8.12 1.513 4.583 3.312 4.178 4.059 7.195 1.23-1.633-.086-5.017 1.352-8.15"/>
        <path fill="#2FBB96" d="M49.237 79.628c-8.152-4.985-19.007-9.935-23.484-18.702 3.808-2.762 8.906-7.121 13.69-10.92 3.318-2.634 6.723-4.548 10.14-4.5 4.366.061 6.602 2.326 11.274 6.174l12.444 10.295c.149 5.674-17.965 15.847-24.064 17.653"/>
        <path fill="#2FBB96" d="M25.947 60.823L37.488 50.53c3.428-3.17 6.826-6.483 11.598-6.663h.06v2.46c-.057 0-.114-.002-.17 0-4.173.052-5.93 1.906-10.397 5.25l-12.632 9.246z"/>
        <path fill="#2FBB96" d="M73.234 61.848L60.788 50.53c-3.427-3.17-6.825-6.484-11.597-6.663-.02-.002-.039 0-.06-.002v2.462h.171c4.173.053 5.93 1.906 10.396 5.25l13.536 10.271z"/>
        <path stroke="#2FBB96" stroke-width=".787" d="M22.502 20.058h54.67l-.052 31.267C75.583 64.406 62.242 71.19 52.157 77.364l-2.36 1.403-2.028-1.249c-10.464-6.4-24.73-13.608-25.267-27.546V20.058z"/>
        <path fill="#FFF" d="M6.007 83.297l6.661-8.979c6.52 7.224 20.739 12.254 37.168 12.254 16.43 0 30.65-5.03 37.17-12.254l6.66 8.979c-6.922 8.987-23.976 15.372-43.83 15.372S12.93 92.284 6.007 83.297"/>
        <path fill="#FFF" d="M20.27 74.387l-5.281 8.986L0 70.91l7.177-.762-1.384-7.635c.658.337 14.492 11.853 14.477 11.874M79.403 74.387l5.281 8.986 14.99-12.463-7.178-.762 1.384-7.635c-.66.337-14.492 11.853-14.477 11.874"/>
        <path fill="#2FBB96" d="M72.789 14.362c-.71.205-1.379.357-2.015.458-.636.101-1.248.149-1.84.149-1.434 0-2.564-.406-3.389-1.22-.826-.813-1.24-1.919-1.24-3.315 0-1.4.461-2.515 1.384-3.345.923-.83 2.167-1.244 3.736-1.244.624 0 1.2.066 1.728.2.53.133 1.032.339 1.51.615-.11.247-.202.5-.278.764-.08.264-.14.533-.187.81h-.156c-.29-.506-.643-.884-1.06-1.136-.42-.25-.904-.376-1.456-.376-.871 0-1.57.338-2.099 1.012-.528.678-.794 1.577-.794 2.7 0 1.13.248 2.012.747 2.645.497.633 1.187.95 2.068.95.232 0 .44-.012.632-.038.191-.024.373-.064.549-.118v-.357c0-.456-.012-.914-.033-1.376-.02-.459-.05-.921-.094-1.386.219.017.428.028.63.036.198.008.383.013.552.013.167 0 .35-.005.545-.013.198-.008.403-.019.622-.036-.047.49-.08.888-.098 1.2-.02.307-.03.571-.03.79 0 .157.005.359.014.599.01.239.027.58.052 1.019zM58.69 8.122c-.175-.454-.452-.796-.828-1.028-.378-.233-.847-.348-1.404-.348-.888 0-1.583.303-2.087.91-.503.606-.755 1.443-.755 2.508 0 1.273.248 2.237.747 2.894.497.657 1.225.984 2.182.984.548 0 1.03-.09 1.445-.27.415-.18.747-.442.994-.785l.194.093c-.061.237-.12.462-.17.675-.05.217-.091.427-.125.632-.38.206-.798.357-1.253.458-.456.101-.957.15-1.499.15-1.518 0-2.7-.402-3.547-1.21-.846-.806-1.27-1.94-1.27-3.396 0-1.39.445-2.494 1.335-3.307.893-.814 2.104-1.221 3.64-1.221.53 0 1.044.056 1.538.17.497.113.99.287 1.479.52-.093.271-.175.538-.243.797-.07.26-.129.517-.18.773h-.193zm-17.87 6.691c.055-.46.095-.95.123-1.47.029-.52.04-1.195.04-2.024V9.893c0-.944-.011-1.7-.04-2.265-.028-.568-.07-1.098-.129-1.591.853.03 1.441.047 1.767.054.324.006.571.009.743.009.3 0 .664-.005 1.087-.013.424-.009.963-.024 1.614-.05l-.02.325c-.007.097-.01.18-.01.25 0 .074.003.155.01.247.006.093.015.197.028.32-.334-.031-.671-.052-1.006-.067-.337-.016-.68-.022-1.027-.022l-.509.001c-.112.003-.216.01-.31.019-.018.254-.031.518-.039.79s-.013.635-.013 1.089v.68c.352-.01.762-.022 1.23-.042.468-.018.994-.04 1.58-.066-.004.046-.009.114-.018.201-.021.207-.03.34-.03.4 0 .052.007.162.024.329.013.109.02.197.025.263-.522-.034-1.017-.06-1.484-.08-.466-.02-.91-.029-1.327-.033v2.397c0 .347.01.662.027.944.02.282.048.56.086.831-.263-.013-.5-.021-.712-.027-.21-.006-.387-.012-.53-.012-.148 0-.318.006-.518.012-.198.006-.418.014-.661.027zm-13.998-8.77c.277.022.51.035.703.044.193.008.36.013.503.013.133 0 .292-.005.475-.013.181-.009.424-.024.734-.05-.056.636-.1 1.293-.127 1.972-.028.68-.041 1.45-.041 2.306 0 1.426.146 2.363.438 2.81.294.45.804.672 1.531.672.41 0 .772-.08 1.088-.236.315-.157.564-.381.744-.674.157-.256.272-.588.338-.998.067-.41.1-1.045.1-1.906 0-.732-.013-1.426-.035-2.082-.027-.656-.065-1.28-.115-1.864.206.026.364.041.479.05.11.008.202.013.275.013.075 0 .163-.005.266-.013.102-.009.245-.022.43-.044-.039.557-.066 1.069-.085 1.538-.02.466-.028.884-.028 1.248v1.9c0 .87-.059 1.53-.175 1.982-.12.453-.314.835-.584 1.147-.332.377-.749.66-1.252.845-.504.187-1.098.279-1.784.279-.753 0-1.4-.103-1.941-.31-.543-.208-.958-.508-1.244-.901-.21-.287-.358-.66-.445-1.115-.088-.457-.133-1.181-.133-2.172V8.917c0-.573-.009-1.088-.028-1.542-.02-.452-.048-.897-.087-1.332zM86.193 84.903c-.073-.105-.152-.211-.234-.323-.082-.112-.189-.255-.32-.43l.068-.07c.213.13.412.186.597.167.184-.02.36-.115.526-.284.153-.156.237-.312.25-.468.016-.155-.04-.29-.167-.409-.093-.086-.2-.13-.32-.13-.122 0-.352.064-.69.196-.454.175-.79.255-1.008.243-.218-.012-.42-.103-.606-.276-.27-.252-.392-.543-.364-.874.028-.332.202-.66.522-.986.137-.14.278-.256.424-.35.147-.094.3-.167.46-.216.056.118.115.23.178.34.064.11.13.217.203.324l-.047.047c-.21-.083-.395-.113-.554-.086-.159.023-.307.107-.443.245-.135.137-.208.279-.223.423-.016.146.03.27.138.369.144.133.447.108.91-.075.08-.031.141-.056.185-.072.45-.166.777-.241.981-.22.205.02.4.116.585.288.29.272.42.588.384.945-.036.36-.233.721-.59 1.085-.132.135-.27.254-.414.355-.143.1-.288.18-.431.242zm-74.154-.697c.104-.077.21-.16.32-.247.114-.087.256-.2.43-.339l.073.062c-.124.215-.173.412-.146.59.029.178.132.342.314.494.165.139.33.21.49.214.16.005.297-.058.412-.19.084-.094.124-.2.119-.317-.003-.12-.08-.34-.228-.66-.198-.43-.295-.75-.29-.964.002-.214.089-.415.257-.606.248-.28.54-.418.883-.411.34.006.684.154 1.032.445.149.125.274.255.376.391.104.136.184.28.24.435-.117.06-.23.124-.34.193-.11.068-.218.14-.324.217l-.05-.042c.075-.21.099-.391.066-.545-.033-.153-.124-.291-.27-.414-.146-.123-.294-.186-.445-.192-.149-.004-.274.048-.37.16-.132.147-.094.441.112.879l.082.176c.19.427.279.74.266.94-.012.2-.103.395-.272.585-.267.302-.585.447-.953.436-.37-.013-.75-.18-1.138-.505-.144-.12-.27-.246-.38-.381-.11-.133-.197-.268-.266-.404zm5.064-.991c.098.073.182.133.25.18.072.047.132.088.187.121.05.03.11.066.179.105.07.04.165.09.288.154-.176.219-.352.45-.527.693-.176.242-.367.521-.575.835-.347.522-.52.9-.518 1.133 0 .232.137.43.41.6.152.096.307.15.463.167.156.016.302-.009.442-.074.12-.057.244-.152.368-.288.124-.134.292-.36.5-.674.177-.27.342-.526.493-.773.149-.245.286-.483.41-.709.07.058.125.1.165.129.04.028.074.052.101.068.028.018.062.038.102.057.04.022.098.05.172.085-.15.195-.286.377-.406.543-.12.168-.224.318-.313.452l-.461.697c-.21.318-.393.546-.548.686-.152.136-.318.232-.496.284-.215.061-.44.068-.673.02-.233-.05-.479-.154-.734-.313-.282-.175-.499-.363-.651-.565-.151-.202-.235-.408-.245-.62-.01-.154.026-.324.103-.511.08-.187.237-.464.478-.827l.271-.41.11-.165c.139-.21.26-.4.362-.571.104-.17.201-.34.293-.51zm3.476 4.415l-.34.684c-.025.051-.066.148-.126.288-.057.14-.12.304-.194.488-.114-.066-.207-.116-.28-.154-.073-.038-.138-.07-.195-.095-.055-.026-.122-.055-.2-.087-.078-.031-.178-.07-.299-.115.14-.23.277-.468.41-.711.134-.245.302-.572.505-.978.169-.337.315-.646.445-.928.128-.282.244-.557.35-.823.092.05.168.094.228.126.061.032.115.058.164.082.097.046.252.11.467.198.214.087.38.159.495.212.413.19.678.406.794.645.118.236.098.515-.06.83-.182.365-.437.583-.767.653-.329.072-.732-.003-1.207-.225l-.118-.054-.072-.036zm.175-.362c.274.128.498.166.67.113.17-.053.32-.204.443-.453.1-.202.127-.376.08-.523-.045-.148-.162-.265-.352-.354l-.072-.027-.123-.042-.064.118-.056.111-.144.288-.382.769zm1.623 2.737c.118-.224.232-.455.345-.694.11-.239.238-.529.377-.87l.076-.18c.163-.395.295-.729.396-1.003.099-.274.189-.54.267-.8.012.007.026.012.044.019.162.075.278.127.353.156.104.04.278.099.52.179.244.08.433.143.565.194.411.158.682.347.812.569.13.22.13.49-.002.808-.103.245-.26.418-.471.518-.213.1-.45.113-.716.036.056.387.122.763.195 1.132.075.37.157.732.245 1.086-.152-.07-.27-.122-.356-.159-.085-.038-.157-.067-.212-.086-.065-.026-.14-.053-.227-.081-.085-.027-.187-.06-.307-.095-.006-.214-.034-.494-.086-.838-.052-.344-.127-.747-.226-1.21l-.28.679c-.079.188-.147.364-.206.527-.06.165-.113.322-.16.475-.114-.056-.206-.098-.278-.13-.07-.03-.132-.055-.184-.076-.052-.02-.115-.041-.19-.066-.074-.025-.172-.055-.294-.09zm1.702-1.586l.023.009c.293.111.528.138.706.08.179-.058.316-.206.413-.443.09-.215.099-.392.026-.533-.072-.139-.233-.258-.482-.353 0-.001-.016-.006-.045-.02-.027-.012-.055-.024-.085-.035-.042.082-.082.165-.12.25-.04.087-.086.197-.14.33l-.296.715zm3.082 1.683l.06.02c.174.056.299.095.374.116.084.025.224.06.416.108l.03.008c0-.197-.007-.4-.021-.609-.013-.208-.034-.426-.063-.65-.15.179-.294.353-.427.522-.133.17-.256.33-.37.485zm-1.558 1.145c.483-.546.948-1.09 1.396-1.637.447-.546.88-1.094 1.295-1.648l.016.006c.117.047.204.08.259.096.044.013.118.028.224.047.027.005.048.01.06.011.025.718.06 1.418.106 2.104.045.684.101 1.361.168 2.031l-.302-.1-.223-.068c-.08-.023-.165-.046-.257-.068-.09-.024-.188-.048-.294-.073l-.003-.534c-.001-.25-.003-.444-.006-.58-.033-.012-.118-.04-.256-.084-.136-.044-.247-.078-.331-.103-.028-.007-.107-.028-.24-.06-.132-.035-.25-.064-.358-.092-.138.192-.355.49-.653.892l-.021.025-.16-.057c-.043-.016-.078-.028-.103-.035l-.146-.037c-.054-.012-.11-.025-.171-.036zm8.012.148c-.099.494-.074.898.072 1.212.148.316.398.505.756.567.349.063.654-.029.914-.273.26-.244.439-.611.536-1.1.1-.498.077-.905-.07-1.223-.147-.318-.396-.508-.75-.57-.355-.063-.661.028-.92.274-.26.244-.44.616-.538 1.113zm-1.028-.134c.125-.629.417-1.084.877-1.365.46-.282 1.036-.36 1.731-.236.67.12 1.154.374 1.455.764.303.389.395.88.276 1.469-.128.64-.418 1.104-.873 1.39-.455.286-1.033.367-1.734.24-.678-.12-1.165-.375-1.464-.765-.3-.39-.39-.889-.268-1.497zm4.762 2.697c.127-.412.233-.762.317-1.048.084-.288.159-.557.226-.807l.496-1.868c.103.022.183.037.24.047.055.01.104.017.146.022.047.005.102.008.166.013.062 0 .141.003.237.004.129.509.254.977.372 1.401.119.425.24.827.358 1.207l.906-1.436c.115-.185.213-.352.294-.5.081-.15.152-.297.214-.44.098.022.176.037.236.047.058.01.109.018.15.022.05.006.103.01.165.012.06.004.138.006.237.006l-.052 1.883c-.002.044-.005.11-.006.202-.02.793-.016 1.374.013 1.745-.131-.025-.236-.043-.313-.055-.077-.012-.144-.022-.199-.027-.062-.008-.134-.012-.214-.018-.077-.005-.182-.01-.312-.013.032-.294.056-.67.071-1.118.001-.034.003-.06.005-.074l.027-1.336c-.252.399-.5.795-.736 1.193-.237.398-.468.794-.693 1.192-.033-.008-.064-.014-.093-.019-.03-.005-.064-.01-.105-.014-.022-.003-.065-.005-.129-.008l-.08-.005c-.117-.44-.24-.871-.372-1.3-.131-.427-.273-.852-.424-1.273l-.356 1.497-.083.43-.093.503c-.093-.02-.163-.036-.21-.045-.045-.007-.084-.014-.114-.017-.03-.003-.066-.005-.11-.006h-.182zm5.743.608c.039-.277.069-.56.095-.851.027-.291.05-.64.072-1.045.013-.252.024-.538.032-.857.008-.32.014-.67.018-1.048.097.013.175.022.231.028.058.006.105.01.144.01.042.003.092.003.147.002.055-.001.13-.004.225-.01.324.449.655.885.999 1.312.343.426.697.84 1.061 1.248l.056-1.047c.016-.3.027-.555.032-.77.005-.218.007-.436.006-.657.067.012.123.02.17.026l.125.01c.03.001.083 0 .156-.003l.163-.007c-.04.202-.074.477-.105.823-.03.345-.064.857-.1 1.533l-.016.267c-.014.275-.022.503-.023.682-.003.179-.002.344.006.494-.09-.014-.161-.023-.21-.029-.048-.005-.093-.01-.13-.01-.038-.003-.085-.003-.135 0-.052 0-.121.005-.209.012-.327-.445-.664-.884-1.013-1.318-.35-.432-.715-.865-1.094-1.295l-.083 1.54-.017.418c-.006.17-.01.358-.014.567-.068-.013-.126-.022-.174-.03-.049-.005-.091-.008-.129-.009-.022-.001-.056-.001-.097.001l-.19.013zm4.728.153c.025-.2.042-.412.055-.638.013-.226.018-.519.018-.878v-.62c0-.41-.005-.736-.018-.982-.013-.246-.031-.476-.058-.689.381.009.642.013.788.014h.332c.133-.001.295-.005.484-.01.19-.006.428-.015.72-.03 0 .015-.003.037-.006.07-.01.088-.015.147-.015.18 0 .034.006.091.015.172l.006.073c-.15-.01-.299-.018-.448-.023-.15-.005-.302-.006-.456-.004-.104.001-.181.001-.23.003-.052.001-.098.003-.138.006-.008.139-.013.277-.016.413-.003.135-.003.272-.003.405v.295c.156-.005.339-.014.546-.023.21-.011.444-.024.707-.04-.008.052-.014.1-.017.144-.004.046-.006.086-.006.12 0 .023.003.07.011.142.005.047.01.085.012.116-.216-.013-.427-.023-.635-.03-.21-.005-.415-.008-.618-.008v.608c0 .167 0 .309.006.427.004.116.013.221.024.313.213-.002.42-.009.625-.021.206-.013.41-.03.618-.051-.005.035-.01.072-.012.111-.002.039-.003.089-.003.15 0 .023.001.057.005.103l.01.158c-.42-.007-.734-.01-.942-.011-.206-.001-.37-.002-.491 0-.146 0-.29.004-.435.01-.144.006-.29.015-.435.025zm3.267-.15c.025-.125.049-.256.071-.392.025-.137.054-.312.089-.527l.097-.003c.055.238.155.417.297.529.143.113.334.165.575.159.22-.006.391-.06.514-.16.125-.103.184-.239.18-.409-.002-.125-.044-.23-.129-.313-.085-.084-.293-.196-.625-.336-.444-.187-.738-.36-.88-.52-.145-.158-.22-.364-.223-.613-.007-.366.12-.66.38-.878.26-.217.619-.331 1.08-.345.198-.006.382.01.552.043.17.032.33.086.478.162-.046.122-.088.243-.122.364-.035.122-.067.246-.094.372l-.067.002c-.087-.204-.195-.352-.324-.443-.13-.093-.293-.135-.489-.13-.193.006-.349.054-.464.148-.116.094-.173.215-.17.359.003.195.234.386.69.574.08.032.139.058.182.076.437.19.719.362.847.517.128.155.192.359.197.61.007.394-.132.708-.417.94-.287.233-.685.356-1.2.37-.192.005-.373-.006-.547-.031-.173-.029-.332-.07-.478-.126zm6.405-.145c.002-.2-.003-.413-.015-.64-.012-.225-.038-.517-.076-.873l-.042-.382-.025-.232c-.044-.406-.084-.732-.123-.976-.039-.243-.082-.468-.129-.68.063-.002.146-.007.252-.013.14-.01.228-.019.268-.024.093-.01.25-.032.468-.068l.092-.016c0 .191.007.379.018.563.01.184.027.379.049.585l.014.132.142 1.314c.024.228.045.389.058.484.014.095.029.177.044.248.215-.023.425-.052.628-.085.204-.033.405-.071.606-.113 0 .055.001.102.003.146.001.042.006.08.009.115.002.02.012.073.03.155l.02.101c-.42.036-.733.066-.94.084l-.491.051c-.143.016-.287.035-.43.055-.144.022-.288.045-.43.07zm2.44-4.132c.123-.01.225-.022.31-.033.087-.01.16-.02.224-.03.059-.01.129-.024.208-.04.079-.017.186-.042.32-.075.02.276.046.561.082.853.034.294.083.622.142.99.1.61.23 1 .39 1.17.16.17.4.229.72.175.18-.03.334-.09.462-.18s.222-.203.281-.342c.051-.12.08-.27.08-.45s-.03-.455-.09-.824c-.05-.313-.105-.608-.161-.888-.057-.279-.117-.542-.18-.789.092-.003.163-.008.214-.013.05-.005.09-.01.122-.015.034-.006.072-.014.116-.025.044-.01.108-.027.187-.05.022.242.045.463.07.664.024.202.05.382.075.536l.131.813c.062.373.081.659.062.86-.02.204-.08.38-.176.534-.121.185-.284.337-.493.453-.208.117-.464.199-.766.25-.332.053-.624.056-.876.007-.253-.05-.457-.147-.61-.295-.114-.108-.205-.256-.275-.445-.07-.189-.14-.495-.21-.92l-.077-.477-.032-.192c-.04-.245-.079-.466-.12-.658-.04-.193-.084-.38-.13-.564zm4.803 2.98l.11-.245c.195-.434.323-.722.385-.87l.374-.896-1.609-1.72c.15-.022.265-.04.35-.054l.22-.042.25-.06.345-.097c.077.104.147.196.212.278.061.082.112.14.147.18l.507.58c.085-.22.161-.438.232-.653.07-.216.137-.439.198-.668.087-.009.157-.017.212-.025.054-.007.1-.016.14-.024l.137-.035c.05-.016.117-.037.2-.066-.093.191-.206.438-.337.744-.132.304-.286.669-.46 1.093l1.685 1.862c-.154.024-.279.045-.38.063-.101.016-.186.033-.258.05-.05.01-.215.054-.492.131l-.036.01c-.066-.097-.126-.185-.178-.255-.052-.072-.087-.118-.104-.136l-.661-.764c-.091.234-.176.47-.254.709-.078.24-.151.49-.218.755-.138.016-.23.03-.276.036-.046.007-.082.014-.111.02-.051.011-.103.025-.158.04-.055.018-.112.038-.172.06zm6.627-1.504c-.037-.197-.084-.405-.139-.625-.056-.218-.138-.499-.247-.841l-.115-.367-.071-.222c-.122-.39-.227-.702-.312-.933-.086-.23-.172-.444-.26-.642.061-.015.144-.034.245-.061l.26-.071c.089-.027.238-.078.446-.155l.088-.033c.039.188.082.37.128.548.046.179.1.368.162.566l.04.125.398 1.26c.068.219.119.372.151.463.034.09.064.17.093.237.207-.064.406-.131.6-.2.195-.071.386-.146.573-.225l.033.142c.01.042.02.08.031.112.007.02.026.07.06.147.016.039.03.07.039.096-.406.113-.708.199-.907.256l-.472.14c-.14.044-.278.088-.414.136-.137.046-.274.096-.41.147zm1.41-4.507c.117-.038.216-.071.298-.1l.21-.078c.054-.023.12-.05.194-.085.072-.034.17-.08.295-.142.082.264.174.534.276.81.103.277.225.588.369.93.237.571.455.922.65 1.054.196.13.443.134.745.012.17-.068.305-.16.41-.277.104-.114.169-.246.194-.394.023-.128.015-.28-.026-.456-.041-.175-.133-.434-.277-.779-.122-.294-.244-.57-.363-.829-.12-.258-.24-.501-.358-.727.089-.024.157-.044.206-.06.047-.014.086-.028.116-.041.03-.012.066-.028.107-.049.042-.02.099-.05.171-.09.078.23.151.44.222.63.069.19.136.36.196.505l.317.76c.146.35.232.624.26.824.026.2.009.388-.05.557-.075.205-.2.39-.377.548-.177.159-.407.295-.69.408-.312.128-.595.194-.855.201-.258.008-.48-.043-.664-.153-.135-.08-.258-.204-.37-.372-.113-.168-.252-.45-.418-.847l-.186-.448-.076-.18c-.094-.23-.184-.435-.268-.613-.085-.177-.17-.351-.258-.519zm7.116-1.93c-.163-.136-.343-.21-.54-.22-.198-.009-.406.043-.625.16-.35.185-.56.445-.631.78-.07.336.005.708.228 1.114.265.483.565.798.9.945.332.147.688.12 1.064-.078.215-.114.387-.249.512-.403.125-.155.2-.325.227-.506l.096-.004c.025.102.05.198.075.291.024.092.052.18.082.266-.105.158-.24.304-.397.437-.158.132-.345.256-.558.368-.598.315-1.147.407-1.65.277-.502-.132-.906-.475-1.21-1.03-.292-.53-.346-1.043-.166-1.538.18-.494.572-.902 1.176-1.22.208-.11.422-.196.64-.257.22-.059.45-.096.69-.108.021.123.045.24.072.354.028.113.059.223.091.33l-.076.041zm3.08 1.629c-.098-.175-.209-.359-.331-.55-.122-.19-.29-.431-.502-.723l-.227-.312-.139-.19c-.24-.334-.438-.598-.594-.79-.154-.191-.306-.37-.453-.527.318-.206.539-.348.66-.428l.273-.185.393-.28c.154-.11.345-.252.577-.426.009.012.02.032.035.059.044.078.076.13.096.156.02.027.057.07.113.131l.048.056c-.13.075-.257.152-.384.23-.127.08-.253.166-.379.253-.085.059-.15.102-.189.132-.04.028-.077.056-.11.081.078.117.154.232.231.345.078.112.158.222.237.331l.172.24c.126-.092.274-.2.44-.325.166-.125.352-.268.559-.427.022.046.047.089.07.127.025.04.045.073.067.1.013.019.043.055.092.11.032.035.058.064.077.087-.185.109-.365.22-.54.33-.177.113-.349.225-.515.34l.358.495c.097.135.183.25.256.341.072.093.141.174.204.242.175-.12.342-.242.505-.367.162-.125.32-.253.48-.386.017.032.035.065.055.097.02.033.049.074.085.123.014.019.035.047.065.081l.102.122c-.351.23-.612.403-.784.518-.172.115-.307.205-.406.274-.12.084-.237.167-.353.252-.115.086-.23.173-.343.263z"/>
    </g>
</svg>
