<svg xmlns="http://www.w3.org/2000/svg" xmlns:xlink="http://www.w3.org/1999/xlink" width="210" height="60" viewBox="0 0 210 60">
    <defs>
        <path id="prefix__a" d="M0.209 0.116L150.278 0.116 150.278 12.173 0.209 12.173z"/>
        <path id="prefix__c" d="M0 0.003L33.419 0.003 33.419 46.918 0 46.918z"/>
    </defs>
    <g fill="none" fill-rule="evenodd">
        <path fill="#FFF" d="M60.953 40.724v2.543h1.41c.448 0 .718-.109.807-.327.05-.117.074-.284.074-.501h.407v2.252h-.405c0-.539-.23-.81-.698-.81h-1.595v1.823c0 .512.084.81.252.906.093.054.235.08.426.08h.192v.443h-3.028v-.437h.162c.218 0 .373-.048.462-.144.087-.096.133-.262.133-.502v-4.574c0-.315-.035-.533-.105-.667-.094-.18-.27-.271-.522-.271h-.13v-.432h5.12V41.7h-.369c-.016-.325-.055-.56-.117-.683-.093-.192-.267-.282-.521-.282h-1.955v-.011zm5.222 2.963c0-1.114.362-2.03 1.093-2.756.725-.725 1.658-1.088 2.793-1.088 1.067 0 1.936.336 2.609 1.003.675.668 1.011 1.53 1.011 2.59 0 .806-.203 1.526-.608 2.156-.394.619-.933 1.072-1.611 1.355-.475.202-1.003.304-1.59.304-.676 0-1.29-.139-1.844-.422-.613-.309-1.081-.767-1.406-1.36-.293-.543-.437-1.135-.437-1.78l-.01-.002zm1.515-.538c0 1.066.224 1.94.672 2.612.437.667 1.018 1.003 1.738 1.003.89 0 1.503-.485 1.84-1.45.151-.448.227-.933.227-1.472 0-.97-.202-1.786-.607-2.452-.431-.704-1.012-1.056-1.744-1.056-.878 0-1.498.442-1.86 1.333-.179.432-.267.922-.267 1.477v.005zm12.886-2.64v-.442h2.629v.443h-.075c-.327 0-.56.064-.702.192-.154.144-.23.389-.23.746v2.81c0 .997-.255 1.754-.756 2.26-.485.491-1.184.736-2.09.736-.864 0-1.552-.192-2.069-.576-.613-.447-.917-1.124-.917-2.036v-3.375c0-.299-.053-.501-.155-.608-.106-.107-.287-.16-.554-.16h-.176v-.442h3.172v.437h-.176c-.48 0-.72.256-.72.768v3.37c0 .836.31 1.396.928 1.668.272.123.576.181.907.181.613 0 1.093-.176 1.44-.522.367-.368.548-.885.548-1.557V41.65c0-.539-.117-.885-.34-1.045-.123-.08-.289-.123-.497-.123h-.18l.013.027zm5.61.96v4.271c0 .464.127.741.389.837.144.054.347.08.613.08v.443h-2.456v-.443h.059c.263 0 .45-.048.564-.144.138-.106.21-.298.21-.57v-5.188c-.214-.165-.485-.25-.812-.25v-.443h2.09l4.137 4.814v-3.412c0-.512-.117-.81-.346-.89-.14-.048-.342-.073-.619-.073h-.101v-.44h2.612v.437h-.101c-.267 0-.453.027-.565.08-.176.085-.267.25-.267.498v6.046h-.56l-4.857-5.662.01.01zm7.991-.943v-.443c.24-.016.48-.026.72-.042l.49-.027c.035 0 .177-.01.425-.027.539-.037 1.003-.058 1.386-.058 1.317 0 2.277.154 2.874.453.71.357 1.205.933 1.49 1.722.144.405.219.842.219 1.312 0 .986-.315 1.834-.942 2.532-.689.768-1.836 1.152-3.44 1.152h-3.222v-.437c.326 0 .55-.043.678-.128.176-.112.266-.336.266-.662v-4.366c0-.512-.117-.821-.346-.917-.134-.048-.336-.08-.598-.08v.016zm2.341.011v5.277c0 .377.05.614.155.713.103.099.346.146.725.146 1.034 0 1.791-.336 2.276-1.013.395-.56.592-1.247.592-2.08 0-.97-.25-1.737-.752-2.297-.48-.544-1.22-.81-2.207-.81-.282 0-.544.015-.789.053v.011zm11.511 3.977h-2.218l-.426 1.324c-.102.313-.107.533-.014.657.09.123.363.188.816.188h.133v.44h-2.687v-.438h.155c.277 0 .496-.101.66-.304.118-.144.23-.39.337-.73l1.733-5.39-.107-.331h1.503l2.026 5.747c.123.341.24.576.358.715.16.18.378.282.655.304v.442h-3.294v-.437h.357c.298 0 .485-.075.56-.219.074-.138.058-.352-.048-.645l-.48-1.306-.019-.017zm-.232-.623l-.93-2.642-.851 2.642h1.783-.002zm8.855-3.227v5.15c0 .331.07.56.213.683.123.107.347.16.661.16h.246v.443h-3.647v-.437h.34c.518 0 .78-.283.78-.848v-5.15h-1.2c-.246 0-.416.015-.523.053-.176.058-.293.181-.368.373-.069.17-.138.474-.208.901h-.415l.18-2.117h.326c.09.096.16.15.192.16.07.022.165.032.293.032h4.825c.198 0 .358-.064.486-.192h.33l.181 2.117h-.415c-.06-.352-.102-.581-.134-.698-.085-.288-.208-.475-.362-.544-.128-.059-.33-.09-.603-.09h-1.189l.01.004zm4.462-.144v-.442h3.22v.437h-.17c-.517 0-.773.283-.773.848v4.473c0 .304.059.517.187.64.122.123.325.181.602.181h.15v.437h-3.226v-.442h.144c.49 0 .736-.261.736-.779v-4.52c0-.305-.06-.523-.171-.657-.112-.133-.31-.197-.581-.197h-.134l.016.021zm5.241 3.194c0-1.114.363-2.037 1.088-2.762.725-.725 1.658-1.087 2.794-1.087 1.066 0 1.935.336 2.607 1.002.672.666 1.008 1.53 1.008 2.591 0 .805-.203 1.525-.608 2.154-.4.619-.938 1.072-1.616 1.35-.48.202-1.007.303-1.588.303-.677 0-1.296-.139-1.85-.421-.614-.315-1.083-.768-1.408-1.36-.293-.538-.443-1.135-.443-1.775l.016.005zm1.514-.533c0 1.068.226 1.941.673 2.616.44.669 1.018 1.004 1.738 1.004.89 0 1.504-.485 1.842-1.45.15-.448.227-.938.227-1.472 0-.97-.203-1.791-.608-2.457-.43-.71-1.01-1.061-1.742-1.061-.879 0-1.499.442-1.863 1.332-.181.432-.266.923-.266 1.477v.011zm9.442-1.682v4.27c0 .462.13.738.39.835.145.053.35.08.615.08v.437h-2.454v-.443h.058c.264 0 .451-.047.565-.143.139-.107.208-.299.208-.57v-5.189c-.215-.165-.485-.25-.813-.25v-.443h2.09l4.139 4.815V41.48c0-.512-.117-.81-.347-.89-.135-.048-.34-.075-.618-.075h-.1v-.442h2.613v.437h-.1c-.263 0-.45.026-.564.074-.177.086-.266.251-.266.496v6.052h-.56l-4.856-5.663v.03z"/>
        <g transform="translate(58.648 23.22)">
            <mask id="prefix__b" fill="#fff">
                <use xlink:href="#prefix__a"/>
            </mask>
            <path fill="#FFF" d="M3.115 12.153c.848 0 1.893-.091 2.65-.635 1.152-.812 1.589-1.733 1.589-2.87 0-1.386-.65-2.56-2.746-3.716l-.65-.357c-1.427-.795-1.68-1.333-1.68-2.02 0-1.046 1.03-1.643 2.165-1.643 1.029 0 1.535.432 1.77.72.341.4.416.869.416 1.013 0 .181.053.272.16.272.124 0 .198-.16.198-.486 0-1.21.053-1.647.053-1.844 0-.112-.073-.166-.217-.203-.415-.107-1.227-.25-2.255-.25C2.366.134.561 1.344.561 3.22c0 1.354.613 2.383 2.49 3.486l.917.544c1.407.832 1.567 1.498 1.567 2.165 0 1.082-.831 1.951-2.202 1.951-.991 0-2.186-.378-2.527-1.514-.09-.272-.144-.592-.144-.794 0-.107-.021-.25-.165-.25-.128 0-.197.164-.197.399-.022.25-.09 1.21-.09 2.037 0 .346.052.415.303.522.682.315 1.658.405 2.58.405l.022-.02zm9.906-6.804c-.058 0-.111-.017-.111-.108v-.325c0-2.325 0-2.884.032-3.375.037-.538.16-.757.593-.826.181-.038.325-.054.451-.054.197 0 .288-.053.288-.16 0-.106-.112-.144-.325-.144-.635 0-1.733.038-2.112.038-.437 0-1.482-.032-2.33-.032-.218 0-.346.037-.346.144 0 .112.112.165.272.165.234 0 .506.021.634.059.507.144.65.309.688.831.021.49.021.923.021 3.253v2.703c0 1.407 0 2.618-.074 3.268-.054.448-.144.741-.47.81-.143.038-.325.054-.56.054-.197 0-.255.09-.255.165 0 .112.106.165.304.165.634 0 1.68-.053 2.036-.053.454 0 1.552.053 2.58.053.203 0 .326-.053.326-.165 0-.07-.07-.16-.25-.16-.23 0-.592-.016-.81-.053-.47-.07-.56-.357-.614-.795-.07-.671-.09-1.844-.09-3.252V6.382c0-.074.053-.09.111-.09h5.988c.037 0 .09.037.09.09v1.173c0 1.408 0 2.58-.074 3.231-.054.453-.144.741-.47.81-.143.038-.325.06-.58.06-.179 0-.251.09-.251.16 0 .106.128.164.344.164.613 0 1.732-.053 2.095-.053.435 0 1.482.053 2.511.053.197 0 .325-.058.325-.165 0-.07-.09-.16-.255-.16-.254 0-.596-.016-.814-.053-.485-.075-.575-.363-.629-.795-.074-.666-.074-1.876-.074-3.284V4.815c0-2.33 0-2.762.035-3.253.038-.543.16-.757.576-.831.197-.038.341-.054.47-.054.18 0 .287-.053.287-.165 0-.107-.109-.144-.344-.144-.613 0-1.658.037-2.038.037-.416 0-1.536-.032-2.384-.032-.234 0-.34.038-.34.144 0 .112.09.166.271.166.219 0 .49.016.613.053.507.144.65.309.688.832.017.49.037 1.05.037 3.375v.325c0 .09-.053.112-.09.112H13.02v-.03zm12.722 1.707c0 2.22.629 3.357 1.445 4.06 1.151 1.019 2.793 1.051 3.625 1.051 1.03 0 2.234-.16 3.354-1.104C35.5 9.965 35.68 8.158 35.68 6.446V4.793c0-2.33.016-2.761.032-3.247.035-.538.144-.757.577-.826.197-.037.288-.059.469-.059s.27-.053.27-.165c0-.107-.106-.144-.325-.144-.613 0-1.68.037-1.855.037-.016 0-1.083-.032-1.893-.032-.219 0-.325.038-.325.144 0 .112.09.166.272.166.18 0 .453.016.575.053.502.144.63.304.667.832.016.485.037.922.037 3.247v1.93c0 1.573-.037 2.905-.922 3.737-.635.613-1.445.81-2.133.81-.544 0-1.3-.053-2.005-.613-.773-.613-1.21-1.476-1.21-3.716V4.782c0-2.328 0-2.762.032-3.248.038-.543.16-.76.576-.831.197-.037.288-.059.47-.059.164 0 .25-.053.25-.165 0-.112-.112-.144-.347-.144-.58 0-1.642.032-2.042.032-.469 0-1.535-.037-2.383-.037-.235 0-.347.032-.347.144 0 .106.091.16.272.16.214 0 .486.016.613.053.502.144.65.288.688.832.032.485.016.917.016 3.247V7.02l.033.035zm16.517.45c0 1.408 0 2.618-.074 3.269-.06.45-.144.739-.47.81-.128.038-.325.056-.56.056-.197 0-.255.09-.255.162 0 .109.106.165.304.165.629 0 1.711-.053 2.074-.053.447 0 1.514.053 2.559.053.181 0 .306-.056.306-.165 0-.072-.07-.161-.252-.161-.235 0-.598-.017-.81-.055-.47-.069-.56-.358-.614-.794-.075-.666-.09-1.877-.09-3.284v-6.23l1.999.035c1.429.018 1.844.488 1.876.883l.022.16c.021.235.058.307.181.307.09 0 .128-.09.144-.253 0-.397.037-1.534.037-1.858 0-.234-.016-.325-.122-.325-.054 0-.182.036-.432.073-.235.036-.576.072-1.082.072H40.56c-.523 0-1.114-.018-1.584-.072-.394-.053-.56-.18-.682-.18-.09 0-.144.089-.181.288-.032.126-.342 1.606-.342 1.859 0 .162.038.253.144.253.112 0 .144-.075.182-.203.037-.112.112-.309.272-.522.234-.347.613-.453 1.535-.475l2.367-.053V7.48l-.01.028zm11.426 0c0 1.408 0 2.618-.075 3.269-.053.45-.144.739-.469.81-.128.038-.325.056-.56.056-.197 0-.256.09-.256.162 0 .109.107.165.304.165.63 0 1.712-.053 2.074-.053.448 0 1.514.053 2.56.053.18 0 .305-.056.305-.165 0-.072-.07-.161-.25-.161-.235 0-.598-.017-.813-.055-.469-.069-.56-.358-.613-.794-.071-.666-.09-1.877-.09-3.284v-6.23l2.004.035c1.426.018 1.841.488 1.877.883l.018.16c.018.235.053.307.181.307.09 0 .126-.09.144-.253 0-.397.035-1.534.035-1.858 0-.234-.016-.325-.125-.325-.056 0-.181.036-.434.073-.235.036-.576.072-1.083.072h-6.44c-.523 0-1.12-.018-1.59-.072-.394-.053-.559-.18-.682-.18-.09 0-.143.089-.18.288-.038.126-.345 1.606-.345 1.859 0 .162.038.253.144.253.107 0 .144-.075.182-.203.035-.112.106-.309.271-.522.235-.347.614-.453 1.533-.475l2.368-.053V7.48l.005.028zm11.442-2.708c0-2.328 0-2.762.032-3.249.032-.544.16-.76.591-.832.182-.037.432-.053.613-.053.198 0 .288-.055.288-.164 0-.112-.112-.144-.346-.144-.613 0-1.911.032-2.293.032-.432 0-1.44-.035-2.18-.035-.235 0-.345.035-.345.144 0 .108.09.163.272.163.197 0 .396.016.523.053.504.144.65.308.685.832.016.487.016.92.016 3.248v2.709c0 1.407 0 2.618-.075 3.268-.053.453-.144.741-.47.81-.143.038-.324.06-.559.06-.197 0-.256.09-.256.16 0 .106.107.164.31.164.325 0 .72-.016 1.098-.032.378 0 .72-.02.9-.02.646 0 1.318.02 2.112.042.794.037 1.712.053 2.847.053.832 0 .901-.07 1.008-.416.128-.448.234-1.589.234-1.765 0-.18-.037-.34-.144-.34-.127 0-.165.09-.18.234-.038.288-.198.725-.395.922-.4.416-1.013.432-1.861.432-1.226 0-1.84-.09-2.111-.325-.342-.288-.342-1.258-.342-3.231v-2.72h.028zm7.832 2.709c0 1.407 0 2.617-.075 3.268-.053.45-.144.74-.47.81-.143.038-.324.056-.559.056-.197 0-.256.09-.256.162 0 .11.107.165.31.165.325 0 .72-.016 1.098-.033.378 0 .72-.022.9-.022.47 0 1.062.022 1.84.038.774.035 1.733.053 2.922.053.597 0 .741 0 .848-.4.09-.307.218-1.354.218-1.695 0-.164-.021-.363-.144-.363-.112 0-.147.073-.181.235-.112.632-.288.957-.688 1.137-.416.177-1.082.197-1.498.197-1.626 0-2.111-.235-2.149-1.283-.018-.45 0-1.75 0-2.274V6.332c0-.09.016-.165.091-.165.396 0 2.202.034 2.49.07.595.054.794.289.883.597.036.197.036.397.054.56 0 .072.035.126.144.126.145 0 .163-.217.163-.343 0-.107.037-.72.072-1.03.09-.773.124-1.028.124-1.12 0-.09-.055-.159-.127-.159-.075 0-.128.09-.256.197-.144.166-.379.203-.757.235-.359.037-2.416.037-2.778.037-.09 0-.108-.074-.108-.16V1.37c0-.09.037-.144.107-.144.325 0 2.22.034 2.49.07.794.072.922.289 1.048.56.09.179.109.45.109.56 0 .125.018.198.126.198.128 0 .165-.181.181-.254.037-.181.075-.848.09-1.01.038-.705.129-.886.129-.993 0-.069-.02-.144-.11-.144-.075 0-.165.054-.256.075-.123.021-.379.075-.666.09-.304.022-3.829 0-4.33 0-.453 0-1.46-.037-2.292-.037-.235 0-.363.038-.363.144 0 .112.112.166.272.166.235 0 .507.021.634.058.507.144.65.31.688.832.016.49.016.922.016 3.252v2.709l.016.005zm12.29 4.1c.143.4.234.563.431.563.235 0 .325-.181.613-.816.645-1.407 2.778-6.84 3.05-7.49h.037l3.226 7.565c.234.563.341.744.56.744.234 0 .325-.181.5-.725.774-2.293 2.4-7.166 3.141-9.096.325-.885.507-1.462.885-1.606.181-.055.395-.072.56-.072.144 0 .213-.072.213-.181 0-.09-.112-.125-.288-.125-.522 0-1.21.037-1.317.037-.149 0-.869-.032-1.7-.032-.254 0-.379.038-.379.144 0 .091.125.166.27.166.632 0 .776.18.776.432 0 .213-.056.522-.165.885-.56 1.786-1.768 5.832-2.074 6.717h-.056l-3.178-7.581c-.199-.485-.344-.72-.522-.72-.144 0-.307.123-.47.56l-3.028 7.837h-.053c-.235-.703-1.68-5.353-1.952-6.36-.197-.704-.34-1.21-.34-1.408 0-.165.015-.25.16-.309.123-.037.271-.053.394-.053.162 0 .288-.054.288-.16 0-.112-.108-.144-.343-.144-.919 0-1.695.032-1.839.032-.144 0-1.029-.038-1.84-.038-.24 0-.366.038-.366.144 0 .112.09.166.254.166.143 0 .453.016.613.128.234.144.36.5.56 1.06l3.357 9.736h.021zm20.108.56c4.098 0 6.66-2.762 6.66-6.28 0-3.52-2.494-5.738-6.499-5.738-4.82 0-6.659 3.397-6.659 6.01 0 2.724 1.877 6.013 6.494 6.013l.004-.005zm.65-.848c-2.995 0-4.8-2.49-4.8-5.646 0-3.785 2.075-4.724 3.844-4.724 2.563 0 4.602 2.096 4.602 5.486 0 4.372-2.527 4.895-3.645 4.895v-.01zm8.971-3.828c0 1.408 0 2.618-.073 3.268-.055.454-.144.742-.469.81-.145.038-.325.06-.56.06-.199 0-.252.09-.252.165 0 .112.112.165.309.165.634 0 1.642-.053 1.951-.053.235 0 1.557.053 2.474.053.197 0 .325-.053.325-.165 0-.07-.069-.16-.197-.16-.197 0-.538-.016-.773-.053-.485-.07-.56-.358-.613-.81-.07-.651-.09-1.84-.09-3.27V7.29c0-.091.053-.123.127-.123l1.429.037c.112 0 .197.022.288.112.203.235.869 1.264 1.498 2.096.885 1.188 1.482 1.914 2.17 2.255.416.218.848.31 1.733.31h1.52c.197 0 .309-.033.309-.166 0-.07-.07-.16-.198-.16s-.213 0-.378-.037c-.25-.054-.81-.123-1.696-1.008-.954-.955-2.074-2.346-3.481-4.079 1.551-1.242 2.202-2.255 2.202-3.39 0-1.03-.667-1.803-1.12-2.112-.848-.56-2.005-.65-3.012-.65-.485 0-1.93.037-2.474.037-.325 0-1.333-.033-2.165-.033-.234 0-.357.038-.357.145 0 .106.107.165.272.165.235 0 .501.021.63.059.506.144.65.309.687.83.016.492.016.924.016 3.254v2.703l-.032-.043zM117 1.408c0-.123.036-.176.144-.214.163-.031.543-.053.94-.053.938 0 2.417.56 2.417 2.73 0 1.264-.543 1.93-1.029 2.277-.272.197-.49.256-1.12.256-.4 0-.868-.032-1.21-.144-.112-.054-.144-.107-.144-.272v-4.57l.002-.01zm11.785 6.078c0 1.413 0 2.618-.071 3.268-.055.453-.144.741-.47.81-.126.038-.325.06-.56.06-.198 0-.253.09-.253.164 0 .112.11.166.308.166.631 0 1.714-.054 2.075-.054.451 0 1.516.054 2.563.054.18 0 .307-.054.307-.166 0-.069-.072-.16-.253-.16-.235 0-.596-.015-.812-.053-.469-.07-.56-.357-.613-.794-.073-.667-.09-1.877-.09-3.285V1.28l2.002.037c1.427.018 1.842.487 1.877.883l.019.163c.017.234.054.307.18.307.09 0 .128-.09.15-.252 0-.397.036-1.534.036-1.858 0-.235-.016-.325-.122-.325-.054 0-.182.032-.432.069-.235.037-.576.07-1.082.07h-6.446c-.523 0-1.12-.022-1.59-.075-.394-.054-.559-.182-.682-.182-.09 0-.144.091-.18.288-.033.128-.342 1.605-.342 1.861 0 .16.037.25.144.25.106 0 .144-.074.181-.202.037-.112.107-.31.272-.522.235-.347.613-.454 1.536-.475l2.361-.059v6.206l-.013.023zm11.552-2.148c-.055 0-.109-.017-.109-.108v-.325c0-2.327 0-2.888.032-3.375.038-.542.16-.758.598-.83.18-.038.325-.055.447-.055.198 0 .288-.053.288-.16 0-.106-.112-.144-.325-.144-.634 0-1.733.038-2.111.038-.432 0-1.482-.032-2.33-.032-.219 0-.347.037-.347.144 0 .112.107.165.272.165.235 0 .501.021.63.059.506.144.65.309.682.831.016.486.016.923.016 3.247v2.709c0 1.407 0 2.618-.075 3.268-.053.453-.144.741-.47.81-.143.038-.324.06-.559.06-.197 0-.25.09-.25.164 0 .112.106.166.303.166.63 0 1.68-.054 2.037-.054.448 0 1.552.054 2.58.054.198 0 .326-.054.326-.166 0-.069-.075-.16-.256-.16-.235 0-.597-.015-.81-.053-.47-.07-.56-.362-.614-.794-.074-.667-.09-1.84-.09-3.247V6.377c0-.07.053-.09.106-.09h5.993c.037 0 .09.037.09.09V7.55c0 1.407 0 2.58-.074 3.23-.053.454-.144.742-.47.817-.143.037-.324.058-.575.058-.181 0-.256.09-.256.165 0 .112.123.166.341.166.614 0 1.733-.054 2.09-.054.432 0 1.477.054 2.506.054.198 0 .326-.054.326-.166 0-.069-.091-.16-.256-.16-.256 0-.598-.016-.816-.053-.485-.07-.576-.357-.634-.794-.071-.667-.071-1.877-.071-3.285V4.81c0-2.324 0-2.761.037-3.247.038-.538.166-.757.578-.826.198-.037.342-.053.47-.053.18 0 .287-.054.287-.16 0-.107-.108-.145-.343-.145-.613 0-1.663.038-2.042.038-.416 0-1.536-.038-2.383-.038-.235 0-.345.033-.345.145 0 .106.091.16.272.16.219 0 .49.016.615.053.507.144.65.304.688.826.021.486.037 1.045.037 3.375v.326c0 .09-.053.106-.09.106h-5.988l.042-.03z" mask="url(#prefix__b)"/>
        </g>
        <g transform="translate(0 12.024)">
            <mask id="prefix__d" fill="#fff">
                <use xlink:href="#prefix__c"/>
            </mask>
            <path fill="#FFF" d="M17.422.003C8.074 4.473 2.272 12.95 2.594 20.67c.259 6.192 5.065 13.868 13.011 18.594C5.887 39.561.107 27.72.346 21.98-1.04 28.654 1.38 41.25 14.19 45.801c4.22 1.498 12.11 1.73 15.633-.808 6.09-4.387 3.638-10.427-1.375-14.542-5.806-4.767-10.9-7.921-13.828-14.39-1.988-4.39-2.708-9.866 2.8-16.058" mask="url(#prefix__d)"/>
        </g>
        <path fill="#FFF" d="M22.405 32.671c-8.226-8.43-6.508-14.13-1.247-21.436 2.45-3.401 4.867-6.8 4.46-11.235 12.52 13.366.811 17.728 6.96 24.568.873-3.775 3.529-7.72 7.235-10.556-1.029 10.615 2.474 10.95 5.554 17.493 4.75 10.087-1.822 21.283-11.631 25.949 4.164-4.09 4.595-9.71-.304-15.238-2.496-2.815-7.017-5.454-11.02-9.554"/>
    </g>
</svg>
