<svg xmlns="http://www.w3.org/2000/svg" width="295" height="245" fill="none" viewBox="0 0 295 245">
    <path fill="#3F5363" d="M177.866 134.057v3.913c0 .441.097.685.339.783.146.049.34.098.582.098v.391h-2.23v-.391h.048c.243 0 .388-.049.534-.147.145-.098.193-.293.193-.538v-4.745c-.193-.147-.436-.244-.727-.244v-.392h1.891l3.782 4.403v-3.131c0-.489-.097-.734-.291-.832-.146-.048-.291-.048-.582-.048h-.097v-.392h2.376v.392h-.097c-.243 0-.388.048-.534.048-.145.098-.242.245-.242.441v5.527h-.485l-4.46-5.136zm-8.582 1.565c0 .979.194 1.761.631 2.397.388.636.921.93 1.6.93.824 0 1.357-.441 1.697-1.321.145-.391.193-.881.193-1.37 0-.88-.193-1.663-.533-2.25-.388-.636-.921-.978-1.6-.978-.775 0-1.357.391-1.697 1.223-.194.391-.291.831-.291 1.369zm-1.357.49c0-1.028.339-1.859.97-2.544.678-.685 1.503-.978 2.521-.978.969 0 1.745.293 2.375.929.631.636.921 1.419.921 2.397 0 .734-.193 1.418-.533 1.957-.388.587-.873.978-1.454 1.222-.437.196-.921.294-1.455.294-.63 0-1.163-.147-1.697-.391-.533-.294-.969-.685-1.26-1.272-.291-.489-.388-1.027-.388-1.614zm-4.751-2.935v-.392h2.909v.392h-.146c-.485 0-.678.244-.678.782v4.109c0 .294.048.489.193.587.097.098.291.147.534.147h.145v.391h-2.957v-.391h.145c.437 0 .679-.245.679-.734v-4.158c0-.293-.048-.489-.145-.587-.097-.098-.291-.195-.534-.195l-.145.049zm-4.073.146v4.745c0 .294.049.538.194.636.097.098.291.147.582.147h.242v.391h-3.296v-.391h.291c.484 0 .727-.245.727-.783v-4.745h-1.067c-.242 0-.388 0-.485.049-.145.049-.291.147-.339.343-.048.146-.145.44-.194.831h-.388l.146-1.956h.291c.097.097.145.146.193.146.049 0 .146.049.291.049h4.412c.194 0 .34-.049.437-.195h.29l.146 1.956h-.388c-.048-.342-.097-.538-.097-.636-.097-.244-.194-.44-.339-.489-.097-.049-.291-.098-.534-.098h-1.115zm-8.048 2.935l-.824-2.446-.776 2.446h1.6zm.194.587h-2.036l-.388 1.223c-.097.294-.097.489 0 .587.097.098.34.196.727.196h.097v.391h-2.424v-.391h.146c.242 0 .436-.098.582-.294.096-.146.193-.342.29-.684l1.552-4.941-.097-.294h1.357l1.843 5.283c.097.294.194.539.339.636.145.147.339.245.582.294v.391h-3.006v-.391h.339c.291 0 .437-.049.534-.196.048-.147.048-.342-.049-.587l-.388-1.223zm-10.472-3.668v4.842c0 .343.049.587.146.636.097.098.291.147.678.147.922 0 1.649-.294 2.085-.929.34-.539.533-1.126.533-1.908 0-.881-.242-1.614-.678-2.104-.437-.489-1.115-.733-1.988-.733-.291 0-.533 0-.776.049zm-2.133 0v-.392c.194 0 .436-.049.679-.049l.436-.049c.049 0 .146 0 .388-.049.485-.048.921-.048 1.26-.048 1.213 0 2.085.146 2.619.391.63.342 1.115.88 1.357 1.565.145.392.194.783.194 1.223 0 .881-.291 1.663-.873 2.348-.63.685-1.648 1.076-3.103 1.076h-2.908v-.391c.29 0 .484-.049.63-.098.145-.098.242-.293.242-.587v-4.011c0-.489-.097-.734-.291-.832-.194-.097-.388-.097-.63-.097zm-7.272.88v3.913c0 .441.097.685.339.783.146.049.34.098.533.098v.391h-2.23v-.391h.049c.242 0 .388-.049.533-.147.146-.098.194-.293.194-.538v-4.745c-.194-.147-.436-.244-.727-.244v-.392h1.891l3.781 4.403v-3.131c0-.489-.097-.734-.291-.832-.145-.048-.291-.048-.582-.048h-.097v-.392h2.376v.392h-.097c-.242 0-.436.048-.533.097-.146.098-.243.245-.243.441v5.527h-.533l-4.363-5.185zm-5.091-.88v-.392h2.376v.392h-.049c-.291 0-.533.048-.63.195-.145.147-.194.343-.194.685v2.544c0 .929-.242 1.614-.679 2.054-.436.44-1.066.685-1.89.685-.776 0-1.406-.196-1.891-.538-.534-.391-.824-1.027-.824-1.859v-3.082c0-.293-.049-.44-.146-.538-.097-.098-.242-.146-.485-.146h-.145v-.392h2.86v.392h-.145c-.436 0-.679.244-.679.684v3.082c0 .783.291 1.272.824 1.517.243.097.534.146.825.146.533 0 1.018-.146 1.309-.489.339-.342.484-.831.484-1.418v-2.544c0-.489-.097-.832-.291-.978-.097-.098-.242-.098-.436-.098l-.194.098zm-11.684 2.396c0 .979.194 1.761.63 2.397.388.587.922.93 1.6.93.824 0 1.358-.44 1.649-1.321.145-.391.194-.88.194-1.37 0-.88-.194-1.614-.534-2.25-.388-.636-.921-.978-1.6-.978-.775 0-1.357.391-1.697 1.223-.193.44-.242.88-.242 1.369zm-1.406.49c0-1.028.339-1.859 1.018-2.544s1.503-.978 2.521-.978c.97 0 1.746.293 2.376.929.63.636.921 1.419.921 2.397 0 .734-.194 1.419-.533 1.957-.34.587-.873.978-1.455 1.223-.436.195-.921.293-1.454.293-.63 0-1.164-.147-1.697-.391-.533-.294-.97-.685-1.261-1.272-.29-.44-.436-.978-.436-1.614zm-4.751-2.691v2.348h1.26c.388 0 .631-.098.728-.293.048-.098.048-.245.048-.441h.388v2.055h-.388c0-.489-.194-.734-.63-.734h-1.455v1.663c0 .49.097.734.243.832.097.049.194.098.388.098h.194v.391h-2.764v-.391h.146c.194 0 .339-.049.436-.147.097-.098.097-.245.097-.44v-4.207c0-.294-.049-.489-.097-.587-.097-.147-.242-.245-.485-.245h-.097v-.391h4.654v1.468h-.339c0-.294-.048-.539-.097-.636-.097-.196-.242-.245-.485-.245l-1.745-.098zM233.959 122.219c-.049 0-.097 0-.097-.098v-.293c0-2.152 0-2.642.048-3.082.049-.489.146-.685.533-.782.146-.049.291-.049.388-.049.194 0 .243-.049.243-.147 0-.098-.097-.147-.291-.147-.582 0-1.552.049-1.939.049-.388 0-1.358-.049-2.134-.049-.194 0-.291.049-.291.147 0 .098.097.147.243.147.194 0 .436 0 .582.049.484.146.581.293.63.782v5.479c0 1.272 0 2.397-.049 2.984-.048.391-.145.685-.436.733-.145.049-.291.049-.485.049s-.242.098-.242.147c0 .098.097.147.291.147.582 0 1.503-.049 1.842-.049.388 0 1.406.049 2.327.049.194 0 .291-.049.291-.147 0-.049-.048-.147-.242-.147s-.534 0-.728-.049c-.436-.048-.484-.342-.533-.733-.048-.587-.097-1.663-.097-2.984v-1.076c0-.049.049-.098.097-.098h5.43c.049 0 .097.049.097.098v1.076c0 1.272 0 2.348-.048 2.984-.049.391-.146.685-.437.733-.145.049-.291.049-.533.049-.146 0-.243.098-.243.147 0 .098.097.147.291.147.534 0 1.552-.049 1.891-.049.388 0 1.358.049 2.279.049.194 0 .291-.049.291-.147 0-.049-.097-.147-.243-.147-.242 0-.533 0-.727-.049-.436-.048-.533-.342-.582-.733-.048-.587-.048-1.712-.048-3.033v-2.495c0-2.152 0-2.543.048-2.984.049-.489.146-.685.534-.782.194-.049.29-.049.436-.049.145 0 .242-.049.242-.147 0-.098-.097-.147-.291-.147-.533 0-1.502.049-1.842.049-.388 0-1.406-.049-2.182-.049-.193 0-.29.049-.29.147 0 .098.097.147.242.147.194 0 .436 0 .582.049.485.146.582.293.63.782 0 .441.049.979.049 3.082v.294c0 .097-.049.097-.097.097l-5.43.049zm-10.521 1.957c0 1.321 0 2.397-.048 2.984-.049.391-.146.685-.437.734-.097.048-.291.048-.485.048s-.242.098-.242.147c0 .098.097.147.291.147.582 0 1.551-.049 1.891-.049.388 0 1.357.049 2.327.049.145 0 .291-.049.291-.147 0-.049-.049-.147-.243-.147s-.533 0-.727-.048c-.436-.049-.485-.343-.533-.734-.049-.587-.097-1.712-.097-3.033v-5.625l1.842.049c1.309 0 1.697.44 1.697.831v.147c0 .196.048.293.145.293.097 0 .097-.097.146-.244 0-.343.048-1.419.048-1.712 0-.196 0-.294-.097-.294-.048 0-.145.049-.387.049-.194.049-.534.049-.97.049h-5.866c-.485 0-1.019 0-1.455-.049-.339-.049-.485-.147-.63-.147-.097 0-.146.098-.146.245-.048.098-.29 1.467-.29 1.712 0 .147.048.245.145.245.097 0 .145-.049.145-.196.049-.098.097-.294.243-.489.194-.343.533-.392 1.406-.44l2.133-.049-.097 5.674zm-10.714-5.577c0-.097.048-.146.145-.195.145-.049.485-.049.873-.049.872 0 2.181.538 2.181 2.495 0 1.174-.484 1.761-.921 2.103-.242.196-.436.245-1.018.245-.388 0-.776-.049-1.115-.147-.097-.049-.145-.098-.145-.245v-4.207zm-1.794 5.577c0 1.272 0 2.397-.049 2.984-.048.391-.145.685-.436.734-.146.048-.291.048-.485.048s-.242.098-.242.147c0 .098.097.147.291.147.581 0 1.503-.049 1.793-.049.194 0 1.406.049 2.231.049.194 0 .29-.049.29-.147 0-.049-.048-.147-.193-.147-.194 0-.485 0-.728-.048-.436-.049-.484-.343-.533-.734-.048-.587-.097-1.663-.097-2.984v-.196c0-.098.049-.098.097-.098l1.309.049c.097 0 .194 0 .242.098.194.196.776 1.174 1.358 1.908.824 1.076 1.357 1.761 1.988 2.054.388.196.775.294 1.551.294h1.406c.194 0 .291-.049.291-.147 0-.049-.049-.147-.194-.147-.145 0-.194 0-.339-.049-.243-.048-.728-.097-1.552-.929-.872-.88-1.891-2.152-3.151-3.766 1.406-1.126 1.988-2.055 1.988-3.131 0-.93-.582-1.663-1.018-1.957-.776-.538-1.843-.587-2.715-.587-.437 0-1.746.049-2.231.049-.29 0-1.212-.049-1.987-.049-.194 0-.34.049-.34.147 0 .098.097.147.243.147.194 0 .436 0 .581.049.485.146.582.293.631.782v5.479zm-8.194 3.522c-2.715 0-4.363-2.299-4.363-5.185 0-3.473 1.891-4.354 3.491-4.354 2.327 0 4.169 1.908 4.169 5.039.049 4.011-2.279 4.5-3.297 4.5zm-.581.783c3.733 0 6.06-2.544 6.06-5.773 0-3.228-2.279-5.283-5.915-5.283-4.363 0-6.06 3.131-6.06 5.528 0 2.495 1.697 5.528 5.915 5.528zm-18.278-.539c.145.392.194.539.388.539s.291-.147.533-.734c.582-1.272 2.521-6.261 2.764-6.897h.048l2.909 6.946c.194.538.291.685.485.685s.291-.147.436-.685c.727-2.104 2.182-6.555 2.861-8.365.29-.832.484-1.321.824-1.467.145-.049.339-.049.485-.049.145 0 .193-.049.193-.147 0-.098-.097-.098-.242-.098-.485 0-1.115.049-1.212.049-.145 0-.776-.049-1.551-.049-.243 0-.34.049-.34.147 0 .098.097.147.243.147.581 0 .727.146.727.391 0 .196-.049.489-.146.831-.484 1.615-1.6 5.332-1.89 6.164h-.049l-2.909-6.946c-.194-.44-.291-.636-.485-.636-.145 0-.29.098-.436.538l-2.763 7.191h-.049c-.194-.636-1.503-4.892-1.794-5.821-.194-.636-.291-1.125-.291-1.272 0-.147 0-.245.146-.294.097-.049.242-.049.339-.049.146 0 .243-.049.243-.146 0-.098-.097-.147-.291-.147-.824 0-1.552.049-1.697.049-.146 0-.921-.049-1.697-.049-.242 0-.339.049-.339.147 0 .097.097.146.242.146.146 0 .436 0 .533.098.194.147.34.44.485.979l3.297 8.804zm-11.199-3.766c0 1.272 0 2.397-.049 2.984-.048.391-.145.685-.436.734-.146.048-.291.048-.485.048s-.242.098-.242.147c0 .098.097.147.29.147.291 0 .679 0 1.019-.049h.824c.436 0 .969 0 1.697.049.727.049 1.551.049 2.666.049.533 0 .679 0 .776-.391.097-.294.194-1.223.194-1.566 0-.147 0-.342-.146-.342-.097 0-.145.049-.145.195-.097.587-.243.881-.63 1.028-.388.146-.97.195-1.358.195-1.454 0-1.939-.195-1.939-1.174v-3.228c0-.098 0-.147.097-.147.339 0 1.988.049 2.278.049.534.049.728.245.825.538.048.196.048.343.048.538 0 .049.049.098.146.098.145 0 .145-.196.145-.293 0-.098.049-.636.049-.93.096-.685.097-.929.097-1.027 0-.098-.049-.147-.097-.147-.049 0-.097.098-.243.196-.145.147-.339.196-.679.196-.339.048-2.181.048-2.521.048-.097 0-.097-.048-.097-.146v-3.473c0-.098.049-.147.097-.147.291 0 2.037.049 2.279.049.727.049.824.244.97.538.097.147.097.391.097.538 0 .098 0 .196.097.196.096 0 .145-.147.145-.245.048-.147.048-.783.097-.929.048-.636.097-.832.097-.93 0-.049 0-.147-.097-.147-.049 0-.146.049-.242.049-.097 0-.34.049-.582.098h-3.927c-.437 0-1.309-.049-2.085-.049-.194 0-.339.049-.339.147 0 .098.097.147.242.147.194 0 .485 0 .582.049.485.146.582.293.63.782v2.984l-.145 2.544zm-7.079-2.446c0-2.152 0-2.544.049-2.984.048-.489.145-.685.533-.782.146-.049.388-.049.533-.049.194 0 .243-.049.243-.147 0-.098-.097-.147-.291-.147-.533 0-1.745.049-2.085.049-.388 0-1.309-.049-1.988-.049-.193 0-.29.049-.29.147 0 .098.097.147.242.147.194 0 .339 0 .485.049.436.146.582.293.63.782v5.479c0 1.272 0 2.397-.048 2.984-.049.391-.146.685-.437.733-.145.049-.291.049-.533.049-.194 0-.242.098-.242.147 0 .098.096.147.29.147.291 0 .679 0 1.019-.049h.824c.582 0 1.212 0 1.939.049.727.049 1.551.049 2.57.049.775 0 .824-.049.921-.392.097-.391.194-1.467.194-1.614 0-.147-.049-.293-.146-.293-.097 0-.145.098-.145.195-.049.245-.194.685-.34.832-.388.391-.921.391-1.697.391-1.115 0-1.648-.098-1.939-.293-.291-.245-.291-1.174-.291-2.984v-2.446zm-10.423 2.446c0 1.272 0 2.397-.049 2.984-.048.391-.145.685-.436.734-.097.048-.291.048-.533.048-.194 0-.243.098-.243.147 0 .098.097.147.291.147.582 0 1.552-.049 1.891-.049.388 0 1.357.049 2.327.049.145 0 .291-.049.291-.147 0-.049-.049-.147-.242-.147-.194 0-.534 0-.728-.048-.436-.049-.533-.343-.533-.734-.049-.587-.097-1.712-.097-3.033v-5.625l1.842.049c1.309 0 1.697.44 1.697.831v.147c0 .196.049.293.146.293.097 0 .097-.097.145-.244 0-.343.049-1.419.049-1.712 0-.196 0-.294-.097-.294-.049 0-.146.049-.388.049-.194.049-.534.049-.97.049h-5.866c-.485 0-1.018 0-1.455-.049-.339-.049-.533-.147-.63-.147-.097 0-.145.098-.145.245-.049.098-.291 1.467-.291 1.712 0 .147.048.245.145.245.097 0 .146-.049.146-.196.048-.098.097-.294.242-.489.194-.343.533-.392 1.406-.44l2.133-.049-.048 5.674zm-10.375 0c0 1.272 0 2.397-.049 2.984-.048.391-.145.685-.436.734-.097.048-.291.048-.533.048-.194 0-.243.098-.243.147 0 .098.097.147.291.147.582 0 1.551-.049 1.891-.049.388 0 1.357.049 2.327.049.145 0 .291-.049.291-.147 0-.049-.049-.147-.243-.147s-.533 0-.727-.048c-.436-.049-.533-.343-.533-.734-.049-.587-.097-1.712-.097-3.033v-5.625h1.794c1.309 0 1.697.44 1.697.831v.147c0 .196.048.293.145.293.097 0 .097-.097.145-.244 0-.343.049-1.419.049-1.712 0-.196 0-.294-.097-.294-.048 0-.145.049-.388.049-.194.049-.533.049-.969.049h-5.867c-.485 0-1.018 0-1.454-.049-.34-.049-.534-.147-.63-.147-.097 0-.146.098-.146.245-.048.098-.291 1.468-.291 1.712 0 .147.049.245.146.245.097 0 .145-.049.145-.196.049-.098.097-.293.242-.489.194-.343.534-.391 1.406-.44l2.134-.049v5.723zm-15.03-.391c0 2.054.582 3.081 1.309 3.717 1.067.93 2.521.979 3.297.979.921 0 2.036-.147 3.054-1.028 1.212-1.027 1.358-2.641 1.358-4.255v-1.517c0-2.152 0-2.543.048-2.984.049-.489.146-.685.534-.782.194-.049.242-.049.436-.049.145 0 .242-.049.242-.147 0-.098-.097-.147-.29-.147-.534 0-1.503.049-1.697.049 0 0-.97-.049-1.746-.049-.194 0-.291.049-.291.147 0 .098.097.147.243.147.145 0 .436 0 .533.049.436.146.582.293.582.782 0 .441.048.832.048 2.984v1.761c0 1.419-.048 2.642-.824 3.424-.582.587-1.309.734-1.939.734-.485 0-1.164-.049-1.842-.587-.679-.587-1.115-1.37-1.115-3.424v-2.006c0-2.152 0-2.543.048-2.984.049-.489.146-.684.533-.782.194-.049.243-.049.437-.049.145 0 .242-.049.242-.147 0-.098-.097-.147-.291-.147-.533 0-1.503.049-1.842.049-.436 0-1.406-.049-2.182-.049-.194 0-.291.049-.291.147 0 .098.097.147.243.147.194 0 .436 0 .533.049.436.147.582.244.63.782.049.441 0 .832 0 2.984v2.202zm-11.587-1.566c-.048 0-.097 0-.097-.098v-.293c0-2.152 0-2.642.049-3.082.048-.489.145-.685.533-.782.145-.049.291-.049.388-.049.194 0 .242-.049.242-.147 0-.098-.097-.147-.291-.147-.581 0-1.551.049-1.939.049-.388 0-1.357-.049-2.133-.049-.194 0-.291.049-.291.147 0 .098.097.147.242.147.194 0 .437 0 .582.049.437.146.582.293.63.782v5.479c0 1.272 0 2.397-.048 2.984-.049.391-.145.685-.436.733-.146.049-.291.049-.534.049-.194 0-.242.098-.242.147 0 .098.097.147.291.147.582 0 1.503-.049 1.842-.049.436 0 1.406.049 2.327.049.194 0 .291-.049.291-.147 0-.049-.048-.147-.242-.147s-.534 0-.727-.049c-.437-.048-.534-.342-.534-.733-.048-.636-.097-1.712-.097-2.984v-1.076c0-.049.049-.098.097-.098h5.43c.049 0 .097.049.097.098v1.076c0 1.272 0 2.348-.048 2.984-.049.391-.146.685-.437.733-.145.049-.291.049-.533.049-.145 0-.242.098-.242.147 0 .098.097.147.29.147.534 0 1.552-.049 1.891-.049.388 0 1.358.049 2.279.049.194 0 .291-.049.291-.147 0-.049-.097-.147-.243-.147-.242 0-.533 0-.727-.049-.436-.048-.533-.342-.582-.733-.048-.587-.048-1.712-.048-3.033v-2.495c0-2.152 0-2.543.048-2.984.049-.489.146-.685.534-.782.194-.049.291-.049.436-.049.145 0 .242-.049.242-.147 0-.098-.097-.147-.29-.147-.534 0-1.503.049-1.843.049-.388 0-1.406-.049-2.181-.049-.194 0-.291.049-.291.147 0 .098.097.147.242.147.194 0 .436 0 .533.049.437.146.582.293.631.782 0 .441.048.979.048 3.082v.294c0 .097-.048.097-.097.097l-5.333.049zm-9.017 6.213c.775 0 1.745-.098 2.424-.587 1.066-.734 1.454-1.566 1.454-2.642 0-1.272-.582-2.348-2.472-3.424l-.582-.342c-1.309-.734-1.503-1.223-1.503-1.859 0-.979.921-1.517 1.988-1.517.921 0 1.406.392 1.599.636.291.392.388.783.388.93 0 .146.049.244.146.244.097 0 .194-.146.194-.44 0-1.125.048-1.516.048-1.712 0-.098-.048-.147-.194-.196-.388-.098-1.115-.244-2.036-.244-1.988 0-3.636 1.125-3.636 2.837 0 1.223.533 2.201 2.279 3.179l.824.49c1.26.782 1.406 1.369 1.406 2.005 0 .978-.776 1.81-1.988 1.81-.921 0-1.988-.342-2.279-1.37-.097-.244-.145-.538-.145-.733 0-.098 0-.245-.146-.245-.097 0-.194.147-.194.391 0 .245-.096 1.125-.096 1.859 0 .343.048.392.29.489.485.392 1.406.49 2.231.441zM68.879 107.055c-8.533 4.06-13.77 11.838-13.478 18.931.242 5.674 4.605 12.718 11.83 17.072-8.873.293-14.11-10.615-13.915-15.849-1.26 6.114.921 17.659 12.605 21.865 3.83 1.37 11.005 1.566 14.205-.733 5.527-4.011 3.297-9.588-1.26-13.354-5.285-4.354-9.89-7.289-12.557-13.208-1.794-4.06-2.473-9.05 2.57-14.724z"/>
    <path fill="#3F5363" d="M73.387 125.986c-7.466-7.729-5.915-12.963-1.115-19.665 2.23-3.13 4.412-6.261 4.073-10.321 11.393 12.278.727 16.24 6.35 22.551.776-3.474 3.2-7.093 6.594-9.686-.92 9.734 2.23 10.028 5.042 16.045 4.267 9.245-1.697 19.517-10.617 23.822 3.781-3.767 4.17-8.903-.291-13.99-2.279-2.593-6.4-5.039-10.036-8.756z"/>
</svg>
