<svg width="295" height="245" viewBox="0 0 295 245" fill="none" xmlns="http://www.w3.org/2000/svg">
<path fill-rule="evenodd" clip-rule="evenodd" d="M142.856 159.085L147.419 161.889C156.033 156.778 164.996 151.854 172.513 145.172C178.447 139.55 182.287 133.841 183.259 125.551L183.334 66H111.666V123.743C112.364 141.881 129.193 150.732 142.856 159.085ZM165.794 74.1778C166.854 73.2179 168.287 72.7442 170.107 72.7442C170.818 72.7442 171.478 72.819 172.102 72.9686C172.713 73.1306 173.286 73.3675 173.835 73.6791C173.71 73.9659 173.598 74.265 173.51 74.5642C173.423 74.8634 173.348 75.1751 173.299 75.4992H173.124C172.787 74.9133 172.376 74.477 171.902 74.1902C171.416 73.9035 170.855 73.7539 170.219 73.7539C169.21 73.7539 168.412 74.1404 167.801 74.9257C167.19 75.6986 166.878 76.7458 166.878 78.0423C166.878 79.3388 167.165 80.361 167.739 81.084C168.312 81.8195 169.11 82.181 170.132 82.181C170.394 82.181 170.643 82.1686 170.855 82.1436C171.08 82.1062 171.291 82.0688 171.491 82.0065V81.5951C171.491 81.0715 171.478 80.5355 171.454 80.0119C171.429 79.4759 171.391 78.9398 171.341 78.4038C171.591 78.4287 171.84 78.4412 172.064 78.4412C172.301 78.4661 172.513 78.4661 172.713 78.4661C172.9 78.4661 173.112 78.4661 173.336 78.4412C173.56 78.4412 173.797 78.4287 174.059 78.4038C173.997 78.9772 173.959 79.426 173.934 79.7875C173.922 80.1491 173.909 80.4482 173.909 80.6976C173.909 80.8846 173.909 81.1089 173.922 81.3957C173.934 81.6699 173.959 82.0688 173.984 82.5675C173.161 82.8043 172.389 82.9789 171.665 83.0911C170.93 83.2157 170.219 83.2656 169.534 83.2656C167.876 83.2656 166.579 82.8043 165.632 81.8694C164.672 80.922 164.198 79.6504 164.198 78.0423C164.198 76.4217 164.722 75.1377 165.794 74.1778ZM150.747 74.1653C151.77 73.2304 153.178 72.7566 154.948 72.7566C155.559 72.7566 156.145 72.8314 156.719 72.9561C157.292 73.0932 157.865 73.2927 158.426 73.5545C158.314 73.8661 158.227 74.1778 158.152 74.477C158.065 74.7762 157.99 75.0753 157.94 75.3621H157.716C157.516 74.8509 157.192 74.452 156.756 74.1902C156.32 73.916 155.784 73.7789 155.135 73.7789C154.113 73.7789 153.315 74.1279 152.729 74.8385C152.156 75.5241 151.857 76.4965 151.857 77.7306C151.857 79.2016 152.144 80.3111 152.717 81.0715C153.29 81.8195 154.138 82.206 155.235 82.206C155.871 82.206 156.432 82.0938 156.906 81.8943C157.392 81.6824 157.766 81.3832 158.052 80.9843L158.277 81.084C158.202 81.3583 158.14 81.6201 158.077 81.8694C158.028 82.1187 157.978 82.3556 157.94 82.6049C157.504 82.8417 157.018 83.0163 156.494 83.1285C155.971 83.2407 155.385 83.303 154.761 83.303C153.016 83.303 151.645 82.8417 150.673 81.9068C149.688 80.9718 149.202 79.6629 149.202 77.9924C149.202 76.3843 149.713 75.1127 150.747 74.1653ZM139.129 73.0309H139.989C140.338 73.0309 140.749 73.0309 141.236 73.0184C141.734 73.006 142.345 72.9935 143.106 72.9686C143.093 73.1057 143.081 73.2304 143.081 73.3425C143.068 73.4547 143.068 73.542 143.068 73.6293C143.068 73.7165 143.068 73.8038 143.081 73.916C143.081 74.0157 143.093 74.1404 143.106 74.2775C142.719 74.2401 142.345 74.2152 141.946 74.2027C141.56 74.1902 141.161 74.1778 140.762 74.1778H140.176C140.051 74.1902 139.927 74.1902 139.827 74.2027C139.802 74.5019 139.79 74.8011 139.777 75.1127C139.765 75.4244 139.765 75.8482 139.765 76.3718V77.1572C140.164 77.1447 140.637 77.1198 141.186 77.1073C141.722 77.0824 142.333 77.0575 143.006 77.0325C143.006 77.0824 142.993 77.1572 142.981 77.2569C142.956 77.5062 142.944 77.6558 142.944 77.7306C142.944 77.7805 142.956 77.9051 142.968 78.1046C142.993 78.2293 143.006 78.329 143.006 78.4038C142.407 78.3664 141.834 78.3415 141.298 78.3165C140.749 78.2916 140.238 78.2791 139.765 78.2791V81.0466C139.765 81.4455 139.777 81.807 139.79 82.1312C139.815 82.4553 139.852 82.7794 139.889 83.0911C139.59 83.0786 139.316 83.0661 139.067 83.0537C138.83 83.0537 138.63 83.0412 138.456 83.0412C138.294 83.0412 138.094 83.0537 137.857 83.0537C137.633 83.0661 137.384 83.0786 137.097 83.0911C137.159 82.555 137.209 81.994 137.234 81.3957C137.271 80.7973 137.284 80.0119 137.284 79.0645V77.419C137.284 76.322 137.271 75.4493 137.234 74.8011C137.209 74.1404 137.159 73.5295 137.084 72.9686C138.069 72.9935 138.755 73.0184 139.129 73.0309ZM121.751 73.0184C121.976 73.0309 122.175 73.0309 122.337 73.0309C122.487 73.0309 122.674 73.0309 122.886 73.0184C123.097 73.006 123.372 72.9935 123.733 72.9686C123.671 73.6916 123.621 74.452 123.584 75.2374C123.559 76.0228 123.534 76.9079 123.534 77.9051C123.534 79.5507 123.708 80.6228 124.045 81.1463C124.381 81.6575 124.967 81.9192 125.815 81.9192C126.289 81.9192 126.7 81.8195 127.074 81.645C127.423 81.4705 127.722 81.2087 127.922 80.8596C128.109 80.5729 128.233 80.1864 128.321 79.7127C128.383 79.239 128.433 78.5035 128.433 77.5187C128.433 76.671 128.408 75.8732 128.383 75.1127C128.358 74.3523 128.321 73.6417 128.258 72.9686C128.495 72.9935 128.67 73.006 128.807 73.0184C128.944 73.0309 129.044 73.0309 129.131 73.0309C129.206 73.0309 129.318 73.0309 129.43 73.0184C129.555 73.006 129.717 72.9935 129.929 72.9686C129.879 73.6168 129.854 74.2027 129.829 74.7388C129.817 75.2873 129.804 75.7734 129.804 76.1848V78.3789C129.804 79.3762 129.729 80.1366 129.592 80.6602C129.455 81.1837 129.231 81.6201 128.919 81.9816C128.545 82.4179 128.059 82.7545 127.473 82.9664C126.9 83.1783 126.214 83.2905 125.429 83.2905C124.556 83.2905 123.808 83.1659 123.185 82.929C122.549 82.6921 122.075 82.3431 121.751 81.8943C121.502 81.5577 121.327 81.1214 121.228 80.5978C121.128 80.0743 121.078 79.239 121.078 78.0921V76.2846C121.078 75.6238 121.065 75.0379 121.041 74.5019C121.028 73.9908 120.991 73.4797 120.953 72.9686C121.265 72.9935 121.539 73.006 121.751 73.0184ZM115.506 123.681V88.6883H179.494V89.1496L179.432 125.214C178.883 129.901 177.076 133.878 174.495 137.356C174.483 137.381 174.47 137.393 174.458 137.406C169.334 144.287 161.169 149.174 153.664 153.687C152.555 154.347 151.47 154.996 150.411 155.656L147.444 157.414L144.876 155.818C143.804 155.17 142.694 154.497 141.56 153.824C133.881 149.224 124.918 143.863 119.769 136.259C117.288 132.631 115.693 128.493 115.506 123.681Z" fill="#3E5363"/>
<path fill-rule="evenodd" clip-rule="evenodd" d="M136.474 121.387C134.454 121.587 131.886 122.459 129.169 121.749C134.679 120.951 134.579 118.819 138.157 118.582C136.549 116.862 132.435 117.672 129.169 115.416C134.616 116.55 135.252 114.506 138.693 115.503C137.783 113.334 133.644 112.698 131.338 109.457C136.075 112.387 137.359 110.691 140.263 112.798C140.139 110.454 136.461 108.435 135.414 104.595C138.855 108.971 140.65 107.824 142.657 110.791C143.343 108.535 140.575 105.393 140.899 101.429C142.644 106.715 144.726 106.241 145.587 109.731C147.008 107.849 145.487 103.947 147.145 100.319C146.97 105.892 149.089 106.166 148.703 109.731C150.685 108.447 150.598 104.259 153.39 101.429C151.321 106.602 153.216 107.575 151.645 110.791C153.939 110.267 155.285 106.303 158.875 104.595C155.173 108.759 156.619 110.317 154.026 112.798C156.37 113.085 159 109.831 162.952 109.457C158.053 112.088 158.863 114.057 155.584 115.503C157.691 116.575 161.269 114.406 165.121 115.416C159.611 116.214 159.711 118.333 156.133 118.582C157.741 120.303 161.842 119.492 165.121 121.749C160.882 120.864 159.549 121.898 157.542 121.936C158.414 122.696 159.274 123.494 160.134 124.292L173.822 136.746C176.291 133.417 178.011 129.615 178.522 125.164L178.584 89.5986H116.416V123.656C116.59 128.281 118.086 132.245 120.442 135.723L133.258 124.292C134.317 123.307 135.377 122.31 136.474 121.387Z" fill="#3E5363"/>
<path fill-rule="evenodd" clip-rule="evenodd" d="M142.021 153.051C143.155 153.724 144.277 154.397 145.349 155.046L147.456 156.355L149.949 154.871C150.997 154.223 152.094 153.575 153.203 152.901C160.645 148.451 168.736 143.589 173.76 136.833L173.236 136.409L159.76 126.187L158.875 125.513C153.727 121.649 151.695 119.505 146.883 119.442C146.833 119.442 146.758 119.455 146.708 119.455C146.696 119.455 146.696 119.455 146.683 119.455C146.633 119.455 146.559 119.442 146.509 119.442C141.697 119.505 139.665 121.649 134.504 125.513L134.329 125.638L134.317 125.651C133.768 126.162 133.07 126.698 132.11 127.271L131.549 127.682L120.467 135.773C125.404 143.091 134.068 148.289 142.021 153.051Z" fill="#3E5363"/>
<path fill-rule="evenodd" clip-rule="evenodd" d="M205 147.815L196.722 146.93L198.318 138.129C197.558 138.515 181.614 151.792 181.614 151.829L184.456 156.666C175.792 162.276 162.441 165.879 147.506 165.879C132.572 165.879 119.221 162.276 110.544 156.666L113.386 151.829C113.386 151.792 97.4423 138.515 96.6818 138.129L98.2775 146.93L90 147.815L100.833 156.828L96.9312 162.101C104.922 172.473 124.593 179.841 147.506 179.841C170.407 179.841 190.078 172.473 198.069 162.101L194.154 156.841L205 147.815ZM107.777 161.204C107.602 161.054 107.428 160.979 107.266 160.979C107.079 160.979 106.941 161.029 106.829 161.166C106.717 161.291 106.717 161.515 106.817 161.815C106.854 161.927 106.904 162.039 106.966 162.176C107.004 162.263 107.029 162.338 107.054 162.388C107.278 162.874 107.378 163.236 107.365 163.46C107.353 163.697 107.241 163.921 107.054 164.146C106.742 164.495 106.368 164.657 105.944 164.644C105.52 164.632 105.084 164.432 104.635 164.058C104.473 163.921 104.324 163.772 104.199 163.622C104.074 163.473 103.962 163.31 103.887 163.161C104.012 163.061 104.137 162.974 104.261 162.874C104.386 162.762 104.548 162.637 104.76 162.475L104.835 162.55C104.698 162.799 104.635 163.024 104.673 163.236C104.698 163.435 104.822 163.635 105.034 163.809C105.221 163.959 105.408 164.046 105.595 164.046C105.782 164.058 105.944 163.984 106.069 163.834C106.169 163.722 106.218 163.597 106.218 163.46C106.206 163.323 106.119 163.074 105.944 162.7C105.72 162.201 105.608 161.839 105.608 161.59C105.62 161.378 105.695 161.179 105.832 160.992C105.857 160.954 105.882 160.929 105.907 160.892C106.193 160.568 106.53 160.406 106.929 160.418C107.303 160.431 107.677 160.58 108.063 160.88C108.088 160.892 108.101 160.917 108.126 160.929C108.288 161.067 108.437 161.229 108.55 161.378C108.674 161.54 108.762 161.702 108.836 161.877C108.699 161.952 108.562 162.026 108.437 162.101C108.313 162.189 108.188 162.263 108.063 162.351L108.001 162.301C108.088 162.064 108.126 161.852 108.088 161.677C108.051 161.528 107.964 161.391 107.839 161.266C107.827 161.241 107.802 161.229 107.777 161.204ZM111.093 166.838C110.918 167 110.731 167.113 110.519 167.175C110.27 167.237 110.021 167.25 109.746 167.187C109.485 167.138 109.198 167.013 108.899 166.838C108.575 166.626 108.325 166.415 108.151 166.178C107.976 165.941 107.876 165.704 107.864 165.467C107.851 165.293 107.901 165.093 107.989 164.881C108.076 164.657 108.263 164.345 108.537 163.921L108.849 163.448L108.973 163.261C109.136 163.011 109.273 162.799 109.397 162.6C109.509 162.4 109.622 162.201 109.734 162.014C109.846 162.101 109.946 162.164 110.021 162.213C110.108 162.276 110.183 162.313 110.233 162.363C110.295 162.4 110.357 162.438 110.444 162.475C110.519 162.525 110.631 162.587 110.781 162.65C110.569 162.912 110.37 163.173 110.17 163.46C109.958 163.734 109.746 164.058 109.509 164.42C109.111 165.031 108.911 165.455 108.911 165.729C108.911 165.991 109.061 166.228 109.372 166.415C109.559 166.527 109.734 166.589 109.908 166.614C110.095 166.626 110.27 166.602 110.42 166.527C110.557 166.464 110.706 166.352 110.843 166.19C110.993 166.041 111.18 165.779 111.429 165.417C111.629 165.106 111.816 164.806 111.99 164.52C112.165 164.245 112.327 163.971 112.464 163.709C112.551 163.772 112.614 163.822 112.663 163.859C112.701 163.884 112.738 163.921 112.776 163.934C112.801 163.959 112.85 163.984 112.888 163.996C112.938 164.034 113 164.058 113.087 164.096C112.913 164.32 112.763 164.532 112.626 164.719C112.489 164.919 112.364 165.093 112.264 165.243L111.728 166.053C111.492 166.415 111.267 166.676 111.093 166.838ZM113.96 167.212C113.898 167.187 113.86 167.163 113.823 167.15C113.798 167.125 113.773 167.113 113.748 167.1L113.349 167.898C113.324 167.948 113.274 168.06 113.199 168.222C113.137 168.397 113.062 168.571 112.988 168.796C112.85 168.721 112.738 168.658 112.663 168.621C112.576 168.571 112.501 168.534 112.439 168.509C112.364 168.471 112.289 168.434 112.202 168.397C112.115 168.372 112.003 168.322 111.853 168.272C112.015 167.998 112.177 167.723 112.327 167.449C112.489 167.163 112.676 166.789 112.913 166.327C113.112 165.928 113.274 165.579 113.424 165.255C113.573 164.919 113.711 164.607 113.835 164.295C113.935 164.358 114.022 164.407 114.097 164.445C114.159 164.482 114.234 164.52 114.284 164.545C114.396 164.594 114.571 164.669 114.82 164.769C115.069 164.869 115.256 164.956 115.393 165.006C115.867 165.23 116.179 165.48 116.316 165.754C116.441 166.028 116.416 166.352 116.241 166.714C116.029 167.138 115.743 167.387 115.356 167.474C114.982 167.549 114.508 167.462 113.96 167.212ZM118.872 170.99C118.772 170.952 118.697 170.915 118.635 170.89C118.56 170.865 118.473 170.828 118.373 170.803C118.273 170.765 118.149 170.728 118.011 170.69C118.011 170.441 117.974 170.117 117.912 169.718C117.862 169.319 117.762 168.858 117.662 168.322L117.326 169.107C117.238 169.332 117.164 169.531 117.089 169.718C117.027 169.905 116.964 170.092 116.902 170.267C116.777 170.204 116.678 170.154 116.59 170.117C116.503 170.08 116.428 170.042 116.378 170.03C116.316 170.005 116.241 169.98 116.154 169.955C116.079 169.918 115.954 169.893 115.817 169.843C115.954 169.581 116.092 169.319 116.216 169.045C116.341 168.771 116.491 168.434 116.653 168.035L116.74 167.836C116.927 167.374 117.076 166.988 117.189 166.676C117.313 166.365 117.413 166.053 117.5 165.754C117.525 165.766 117.538 165.766 117.55 165.779C117.737 165.866 117.874 165.928 117.962 165.953C118.074 166.003 118.286 166.065 118.56 166.165C118.847 166.252 119.059 166.327 119.221 166.39C119.682 166.564 119.993 166.789 120.156 167.038C120.305 167.3 120.305 167.611 120.156 167.973C120.031 168.26 119.844 168.459 119.607 168.571C119.358 168.683 119.083 168.708 118.772 168.621C118.847 169.057 118.921 169.494 119.009 169.918C119.083 170.341 119.183 170.765 119.283 171.177C119.108 171.089 118.971 171.027 118.872 170.99ZM123.26 172.336C123.16 172.299 123.073 172.274 122.998 172.249C122.911 172.224 122.811 172.199 122.711 172.174C122.599 172.149 122.487 172.112 122.362 172.087V171.476C122.362 171.177 122.35 170.965 122.35 170.803C122.312 170.79 122.225 170.753 122.063 170.703C121.901 170.653 121.776 170.616 121.676 170.591C121.639 170.578 121.552 170.553 121.402 170.516C121.24 170.478 121.103 170.441 120.991 170.416C120.829 170.641 120.579 170.977 120.23 171.438L120.205 171.463C120.131 171.451 120.068 171.426 120.018 171.401C119.969 171.389 119.931 171.376 119.906 171.364C119.856 171.351 119.794 171.339 119.732 171.314C119.669 171.314 119.607 171.289 119.545 171.276C120.093 170.653 120.642 170.017 121.153 169.394C121.664 168.758 122.163 168.122 122.649 167.487C122.649 167.487 122.649 167.487 122.661 167.499C122.798 167.549 122.898 167.586 122.96 167.611C123.01 167.624 123.098 167.636 123.222 167.661C123.247 167.661 123.272 167.674 123.285 167.674C123.322 168.496 123.359 169.307 123.409 170.105C123.472 170.89 123.534 171.675 123.609 172.448C123.472 172.398 123.359 172.361 123.26 172.336ZM132.609 172.024C132.46 172.76 132.123 173.296 131.599 173.632C131.076 173.957 130.403 174.044 129.592 173.907C128.807 173.77 128.259 173.47 127.909 173.022C127.56 172.573 127.461 171.999 127.598 171.289C127.735 170.566 128.084 170.042 128.608 169.718C129.144 169.394 129.804 169.307 130.602 169.444C131.375 169.581 131.936 169.88 132.285 170.329C132.634 170.778 132.746 171.339 132.609 172.024ZM138.531 175.004C138.381 174.966 138.256 174.941 138.169 174.941C138.082 174.916 138.007 174.916 137.945 174.904C137.87 174.892 137.783 174.892 137.695 174.879C137.608 174.879 137.483 174.879 137.334 174.867C137.371 174.53 137.396 174.094 137.421 173.583V173.495L137.459 171.949C137.159 172.411 136.873 172.872 136.598 173.321C136.337 173.782 136.062 174.243 135.801 174.705C135.763 174.692 135.738 174.692 135.701 174.68C135.663 174.667 135.626 174.667 135.576 174.667C135.551 174.667 135.501 174.655 135.427 174.655H135.327C135.202 174.144 135.065 173.645 134.903 173.146C134.753 172.66 134.591 172.161 134.417 171.675L134.005 173.408C133.98 173.558 133.943 173.72 133.906 173.907C133.881 174.081 133.843 174.281 133.806 174.48C133.694 174.455 133.619 174.443 133.557 174.43C133.507 174.43 133.457 174.418 133.432 174.418C133.395 174.405 133.345 174.405 133.307 174.405H133.095C133.245 173.932 133.357 173.533 133.457 173.196C133.557 172.872 133.644 172.56 133.719 172.274L134.292 170.105C134.404 170.129 134.504 170.154 134.566 170.167C134.629 170.179 134.691 170.179 134.741 170.192C134.791 170.204 134.853 170.204 134.928 170.204H135.202C135.352 170.803 135.489 171.339 135.626 171.825C135.776 172.311 135.913 172.785 136.05 173.221L137.085 171.563C137.222 171.351 137.334 171.152 137.434 170.99C137.521 170.815 137.608 170.641 137.67 170.478C137.783 170.503 137.882 170.516 137.945 170.528C138.02 170.541 138.069 170.553 138.119 170.553C138.182 170.566 138.244 170.566 138.306 170.578H138.58L138.518 172.747V172.984C138.493 173.894 138.493 174.567 138.531 175.004ZM143.904 171.837C143.866 172.236 143.829 172.822 143.791 173.607L143.766 173.919C143.754 174.231 143.741 174.493 143.741 174.692C143.741 174.904 143.741 175.091 143.754 175.278C143.642 175.253 143.567 175.241 143.505 175.241C143.455 175.228 143.405 175.228 143.355 175.228H143.205C143.143 175.228 143.056 175.228 142.969 175.241C142.582 174.729 142.196 174.218 141.784 173.72C141.385 173.221 140.962 172.722 140.525 172.224L140.438 174.006C140.425 174.119 140.425 174.293 140.413 174.48C140.413 174.68 140.401 174.892 140.401 175.141C140.313 175.116 140.251 175.116 140.201 175.103C140.139 175.091 140.101 175.091 140.051 175.091H139.939C139.889 175.091 139.815 175.103 139.715 175.103C139.765 174.792 139.802 174.468 139.827 174.131C139.864 173.794 139.889 173.383 139.914 172.922C139.927 172.623 139.939 172.299 139.952 171.937C139.964 171.563 139.964 171.152 139.964 170.728C140.076 170.74 140.176 170.753 140.238 170.753C140.301 170.765 140.363 170.765 140.401 170.765H140.575C140.637 170.765 140.725 170.765 140.824 170.753C141.211 171.276 141.585 171.775 141.984 172.274C142.383 172.76 142.794 173.246 143.205 173.72L143.28 172.498C143.293 172.161 143.305 171.862 143.305 171.613C143.318 171.364 143.318 171.114 143.318 170.852C143.392 170.865 143.455 170.877 143.517 170.89C143.567 170.89 143.617 170.902 143.654 170.902C143.692 170.902 143.754 170.902 143.841 170.89H144.028C143.978 171.114 143.941 171.438 143.904 171.837ZM147.843 171.351C147.843 171.389 147.855 171.413 147.855 171.438C147.681 171.426 147.506 171.413 147.332 171.401H146.546C146.484 171.401 146.434 171.413 146.384 171.413C146.372 171.576 146.372 171.738 146.372 171.887C146.359 172.049 146.359 172.199 146.359 172.361V172.697C146.546 172.697 146.746 172.685 146.995 172.673C147.232 172.66 147.506 172.648 147.805 172.623C147.793 172.685 147.793 172.735 147.793 172.797C147.78 172.847 147.78 172.897 147.78 172.934C147.78 172.959 147.78 173.009 147.793 173.096C147.793 173.146 147.805 173.196 147.805 173.221C147.556 173.209 147.319 173.196 147.07 173.196C146.833 173.184 146.596 173.184 146.359 173.184V173.882C146.359 174.081 146.359 174.243 146.372 174.38C146.372 174.518 146.384 174.63 146.397 174.742C146.646 174.742 146.883 174.729 147.12 174.717C147.357 174.692 147.593 174.68 147.83 174.655C147.83 174.692 147.818 174.742 147.818 174.779V175.078C147.818 175.128 147.83 175.191 147.83 175.253C147.344 175.253 146.983 175.253 146.746 175.241H146.172C146.01 175.253 145.836 175.253 145.674 175.253C145.512 175.265 145.337 175.278 145.175 175.29C145.2 175.054 145.225 174.804 145.237 174.542C145.25 174.293 145.262 173.957 145.262 173.533V172.822C145.262 172.348 145.25 171.974 145.237 171.688C145.225 171.401 145.2 171.139 145.175 170.89C145.611 170.902 145.911 170.915 146.085 170.915H146.459C146.621 170.915 146.796 170.902 147.02 170.902C147.244 170.89 147.519 170.877 147.855 170.865C147.855 170.877 147.843 170.902 147.843 170.94C147.83 171.039 147.83 171.114 147.83 171.152C147.83 171.189 147.83 171.251 147.843 171.351ZM151.508 174.867C151.184 175.128 150.722 175.278 150.124 175.29C149.912 175.29 149.7 175.29 149.488 175.253C149.289 175.228 149.114 175.178 148.94 175.116C148.977 174.966 149.002 174.817 149.027 174.655C149.052 174.505 149.089 174.293 149.127 174.044H149.239C149.301 174.318 149.426 174.53 149.576 174.655C149.75 174.792 149.975 174.854 150.249 174.842C150.498 174.829 150.698 174.767 150.847 174.655C150.984 174.542 151.047 174.38 151.047 174.181C151.047 174.044 150.997 173.919 150.897 173.832C150.797 173.732 150.56 173.595 150.174 173.433C149.663 173.221 149.326 173.022 149.152 172.835C148.99 172.648 148.915 172.423 148.902 172.124C148.89 171.713 149.04 171.364 149.339 171.114C149.638 170.865 150.062 170.728 150.585 170.715C150.822 170.715 151.022 170.728 151.221 170.765C151.421 170.803 151.608 170.865 151.782 170.952C151.72 171.089 151.67 171.239 151.633 171.376C151.595 171.513 151.558 171.663 151.533 171.8H151.446C151.346 171.576 151.221 171.401 151.072 171.289C150.922 171.189 150.735 171.139 150.511 171.152C150.286 171.152 150.112 171.214 149.975 171.314C149.85 171.426 149.775 171.563 149.775 171.738C149.788 171.962 150.049 172.174 150.573 172.398C150.673 172.423 150.735 172.461 150.785 172.486C151.296 172.697 151.62 172.897 151.757 173.071C151.907 173.258 151.982 173.495 151.994 173.782C152.007 174.231 151.844 174.605 151.508 174.867ZM157.891 174.742C157.654 174.767 157.467 174.779 157.33 174.804C157.167 174.817 156.993 174.842 156.831 174.867C156.656 174.892 156.494 174.916 156.332 174.941C156.332 174.717 156.332 174.468 156.32 174.206C156.307 173.944 156.27 173.607 156.233 173.196L156.183 172.76L156.145 172.486C156.095 172.024 156.058 171.65 156.008 171.364C155.971 171.089 155.921 170.828 155.859 170.578C155.933 170.578 156.033 170.578 156.145 170.566C156.307 170.553 156.407 170.541 156.457 170.541C156.569 170.528 156.744 170.503 157.005 170.454C157.043 170.454 157.08 170.441 157.105 170.441C157.105 170.665 157.118 170.877 157.13 171.089C157.143 171.301 157.155 171.526 157.18 171.763L157.205 171.912L157.367 173.433C157.392 173.695 157.417 173.882 157.429 173.994C157.442 174.094 157.467 174.193 157.479 174.281C157.728 174.256 157.965 174.218 158.202 174.181C158.439 174.144 158.676 174.094 158.9 174.044V174.218C158.913 174.268 158.913 174.318 158.925 174.355C158.925 174.38 158.925 174.43 158.95 174.53C158.963 174.58 158.975 174.617 158.975 174.655C158.489 174.692 158.127 174.717 157.891 174.742ZM163.488 172.847C163.475 173.071 163.401 173.283 163.288 173.458C163.151 173.67 162.964 173.844 162.715 173.981C162.478 174.119 162.179 174.206 161.842 174.268C161.456 174.331 161.119 174.331 160.82 174.268C160.533 174.218 160.296 174.106 160.122 173.932C159.997 173.807 159.885 173.632 159.81 173.421C159.723 173.209 159.636 172.847 159.561 172.361L159.474 171.812L159.436 171.588C159.399 171.301 159.349 171.052 159.299 170.828C159.249 170.603 159.199 170.391 159.15 170.179C159.287 170.167 159.411 170.154 159.511 170.142C159.611 170.129 159.686 170.117 159.76 170.105C159.835 170.092 159.91 170.08 159.997 170.055C160.097 170.042 160.222 170.017 160.371 169.98C160.396 170.292 160.421 170.616 160.471 170.952C160.508 171.289 160.558 171.675 160.633 172.099C160.745 172.797 160.895 173.246 161.082 173.445C161.269 173.645 161.543 173.72 161.917 173.645C162.117 173.62 162.304 173.545 162.441 173.445C162.59 173.333 162.702 173.209 162.777 173.047C162.827 172.909 162.864 172.735 162.864 172.523C162.864 172.323 162.827 171.999 162.752 171.576C162.702 171.214 162.64 170.877 162.578 170.553C162.515 170.229 162.441 169.93 162.366 169.643C162.466 169.643 162.553 169.631 162.615 169.631C162.665 169.618 162.715 169.618 162.752 169.606C162.79 169.606 162.84 169.593 162.889 169.581C162.939 169.568 163.014 169.556 163.101 169.531C163.126 169.805 163.151 170.055 163.176 170.292C163.214 170.528 163.238 170.728 163.263 170.915L163.425 171.85C163.488 172.274 163.513 172.61 163.488 172.847ZM168.05 172.86C167.938 172.872 167.838 172.897 167.764 172.909C167.701 172.934 167.514 172.984 167.19 173.071L167.153 173.084C167.078 172.972 167.003 172.872 166.941 172.785C166.879 172.697 166.841 172.648 166.829 172.623L166.068 171.75C165.956 172.012 165.856 172.286 165.769 172.56C165.682 172.847 165.595 173.134 165.52 173.433C165.358 173.458 165.246 173.47 165.196 173.483C165.146 173.483 165.108 173.495 165.071 173.495C165.009 173.52 164.959 173.533 164.884 173.545C164.822 173.57 164.759 173.595 164.697 173.62L164.822 173.333C165.046 172.835 165.183 172.498 165.258 172.336L165.694 171.289L163.837 169.307C164.011 169.282 164.136 169.269 164.236 169.244C164.335 169.232 164.423 169.219 164.498 169.194C164.585 169.182 164.672 169.157 164.784 169.132C164.896 169.095 165.021 169.057 165.183 169.02C165.27 169.132 165.345 169.244 165.42 169.344C165.495 169.431 165.557 169.506 165.595 169.544L166.18 170.217C166.28 169.967 166.367 169.706 166.455 169.469C166.53 169.219 166.604 168.958 166.679 168.696C166.779 168.683 166.854 168.671 166.916 168.658C166.991 168.658 167.041 168.646 167.078 168.634C167.128 168.621 167.178 168.609 167.24 168.596C167.302 168.571 167.377 168.546 167.477 168.521C167.365 168.733 167.228 169.02 167.078 169.381C166.928 169.731 166.754 170.154 166.554 170.641L168.499 172.785C168.325 172.81 168.175 172.835 168.05 172.86ZM173.835 171.389C173.598 171.463 173.423 171.513 173.286 171.551C173.124 171.6 172.975 171.65 172.812 171.713C172.65 171.763 172.488 171.825 172.339 171.875C172.289 171.65 172.239 171.413 172.177 171.152C172.114 170.915 172.015 170.578 171.89 170.192L171.753 169.768L171.678 169.506C171.528 169.057 171.416 168.696 171.317 168.434C171.217 168.172 171.117 167.923 171.017 167.699C171.092 167.674 171.179 167.649 171.304 167.624C171.454 167.574 171.553 167.549 171.591 167.536C171.703 167.499 171.878 167.449 172.114 167.362C172.152 167.349 172.189 167.337 172.214 167.325C172.264 167.536 172.301 167.748 172.364 167.948C172.414 168.16 172.476 168.372 172.551 168.609L172.601 168.746L173.062 170.204C173.137 170.454 173.199 170.641 173.224 170.74C173.261 170.84 173.299 170.94 173.336 171.015C173.573 170.94 173.81 170.865 174.034 170.778C174.259 170.703 174.47 170.616 174.695 170.528C174.707 170.591 174.72 170.641 174.732 170.69C174.745 170.728 174.757 170.778 174.77 170.815C174.77 170.84 174.795 170.902 174.832 170.99C174.844 171.027 174.869 171.064 174.882 171.089C174.408 171.226 174.059 171.326 173.835 171.389ZM178.759 168.958C178.684 169.194 178.534 169.406 178.335 169.593C178.123 169.78 177.861 169.93 177.537 170.067C177.176 170.204 176.851 170.292 176.552 170.292C176.253 170.304 175.991 170.242 175.779 170.117C175.63 170.03 175.48 169.88 175.356 169.681C175.218 169.494 175.069 169.17 174.869 168.708L174.657 168.197L174.57 167.985C174.458 167.723 174.358 167.487 174.259 167.287C174.159 167.075 174.072 166.876 173.959 166.676C174.096 166.639 174.209 166.602 174.308 166.564C174.396 166.527 174.483 166.502 174.545 166.477C174.608 166.452 174.695 166.415 174.77 166.377C174.857 166.34 174.969 166.277 175.106 166.215C175.206 166.514 175.318 166.826 175.43 167.15C175.555 167.462 175.692 167.823 175.854 168.222C176.128 168.883 176.378 169.282 176.602 169.431C176.839 169.581 177.113 169.593 177.475 169.444C177.662 169.369 177.824 169.269 177.936 169.132C178.061 168.995 178.135 168.845 178.16 168.683C178.185 168.534 178.185 168.347 178.135 168.147C178.086 167.948 177.986 167.649 177.811 167.25C177.674 166.913 177.537 166.589 177.4 166.302C177.263 165.991 177.113 165.716 176.976 165.455C177.088 165.43 177.163 165.405 177.225 165.392C177.275 165.367 177.313 165.355 177.35 165.342C177.388 165.318 177.425 165.305 177.475 165.28C177.525 165.255 177.587 165.23 177.674 165.18C177.762 165.442 177.849 165.679 177.936 165.903C178.011 166.128 178.086 166.327 178.16 166.489L178.522 167.374C178.696 167.773 178.796 168.085 178.821 168.322C178.846 168.546 178.834 168.758 178.759 168.958ZM183.321 167.661C183.134 167.811 182.922 167.96 182.673 168.085C181.988 168.447 181.352 168.559 180.766 168.409C180.192 168.26 179.719 167.861 179.37 167.212C179.033 166.614 178.971 166.016 179.183 165.442C179.382 164.881 179.843 164.407 180.541 164.034C180.778 163.909 181.028 163.809 181.277 163.747C181.526 163.672 181.801 163.635 182.075 163.61C182.1 163.759 182.125 163.896 182.162 164.021C182.187 164.158 182.224 164.283 182.262 164.407L182.175 164.457C181.988 164.295 181.776 164.208 181.551 164.196C181.327 164.183 181.078 164.258 180.828 164.383C180.429 164.594 180.18 164.894 180.105 165.28C180.018 165.667 180.105 166.103 180.367 166.564C180.679 167.125 181.015 167.487 181.402 167.661C181.788 167.836 182.199 167.798 182.636 167.574C182.885 167.437 183.085 167.287 183.222 167.1C183.371 166.926 183.459 166.726 183.483 166.527L183.596 166.514C183.621 166.639 183.658 166.751 183.683 166.851C183.708 166.963 183.745 167.063 183.77 167.163C183.658 167.337 183.496 167.512 183.321 167.661ZM186.999 165.417C186.799 165.554 186.637 165.654 186.538 165.741C186.401 165.841 186.263 165.928 186.126 166.028C185.989 166.128 185.864 166.228 185.727 166.327C185.615 166.128 185.491 165.916 185.341 165.704C185.204 165.48 185.017 165.205 184.767 164.869L184.506 164.507L184.344 164.283C184.069 163.896 183.833 163.597 183.658 163.373C183.483 163.148 183.309 162.949 183.134 162.762C183.508 162.525 183.758 162.363 183.895 162.276C184.032 162.176 184.144 162.101 184.219 162.051C184.344 161.964 184.493 161.864 184.668 161.74C184.842 161.603 185.067 161.441 185.328 161.241C185.341 161.254 185.353 161.278 185.378 161.316C185.428 161.403 185.466 161.465 185.491 161.49C185.503 161.515 185.553 161.578 185.615 161.64C185.64 161.677 185.653 161.69 185.665 161.702C185.515 161.79 185.378 161.877 185.229 161.977C185.079 162.064 184.93 162.164 184.792 162.263C184.693 162.338 184.618 162.388 184.568 162.413C184.531 162.45 184.481 162.475 184.443 162.513C184.531 162.65 184.618 162.774 184.705 162.912C184.805 163.036 184.892 163.161 184.979 163.286L185.179 163.56C185.328 163.46 185.503 163.335 185.69 163.186C185.877 163.049 186.089 162.887 186.326 162.7C186.363 162.75 186.388 162.799 186.413 162.849C186.438 162.887 186.463 162.924 186.488 162.961C186.513 162.986 186.538 163.024 186.6 163.086C186.637 163.123 186.662 163.161 186.687 163.186C186.475 163.31 186.263 163.448 186.064 163.572C185.864 163.697 185.665 163.834 185.466 163.959L185.889 164.532C186.002 164.682 186.089 164.819 186.176 164.931C186.263 165.031 186.338 165.118 186.413 165.205C186.612 165.068 186.812 164.919 186.999 164.781C187.186 164.632 187.373 164.495 187.547 164.333C187.572 164.37 187.585 164.407 187.61 164.445C187.635 164.482 187.672 164.532 187.709 164.594C187.734 164.607 187.759 164.644 187.784 164.682C187.822 164.719 187.859 164.769 187.909 164.831C187.498 165.093 187.198 165.293 186.999 165.417ZM190.427 163.273C190.278 163.423 190.115 163.56 189.941 163.672C189.779 163.797 189.617 163.884 189.442 163.959C189.367 163.834 189.268 163.722 189.18 163.585C189.081 163.46 188.956 163.298 188.807 163.086L188.894 163.011C189.131 163.161 189.367 163.223 189.579 163.198C189.791 163.186 189.991 163.074 190.178 162.874C190.365 162.7 190.452 162.513 190.477 162.338C190.489 162.151 190.427 162.002 190.278 161.864C190.178 161.765 190.053 161.715 189.916 161.715C189.766 161.715 189.505 161.79 189.118 161.939C188.595 162.139 188.196 162.238 187.946 162.226C187.872 162.213 187.809 162.201 187.734 162.176L187.709 162.201L187.685 162.164C187.535 162.114 187.398 162.026 187.248 161.902C186.937 161.615 186.799 161.266 186.837 160.892C186.837 160.842 186.849 160.805 186.862 160.755C186.912 160.418 187.111 160.082 187.435 159.758C187.597 159.596 187.759 159.458 187.921 159.346C188.096 159.247 188.27 159.159 188.457 159.097C188.52 159.234 188.582 159.371 188.657 159.496C188.732 159.621 188.807 159.745 188.894 159.87L188.844 159.92C188.595 159.82 188.383 159.795 188.196 159.82C188.021 159.845 187.847 159.945 187.685 160.107C187.535 160.269 187.448 160.431 187.435 160.593C187.41 160.755 187.473 160.905 187.597 161.017C187.759 161.166 188.108 161.141 188.644 160.929C188.732 160.892 188.807 160.867 188.856 160.855C189.156 160.742 189.405 160.668 189.604 160.63C189.766 160.593 189.891 160.58 189.991 160.593C190.228 160.618 190.452 160.73 190.664 160.929C191.001 161.241 191.138 161.603 191.1 162.026C191.063 162.438 190.838 162.849 190.427 163.273Z" fill="#3E5363"/>
<path fill-rule="evenodd" clip-rule="evenodd" d="M130.465 169.843C130.054 169.78 129.705 169.88 129.405 170.167C129.106 170.441 128.894 170.877 128.782 171.451C128.67 172.024 128.695 172.485 128.869 172.847C129.031 173.208 129.331 173.433 129.742 173.508C130.141 173.57 130.49 173.47 130.789 173.183C131.088 172.909 131.3 172.485 131.412 171.912C131.525 171.338 131.5 170.877 131.325 170.503C131.163 170.142 130.876 169.917 130.465 169.843Z" fill="#3E5363"/>
<path fill-rule="evenodd" clip-rule="evenodd" d="M122.262 168.796C122.088 168.995 121.913 169.207 121.763 169.394C121.614 169.594 121.464 169.781 121.34 169.955C121.352 169.968 121.377 169.968 121.402 169.98C121.614 170.043 121.751 170.092 121.838 170.117C121.938 170.142 122.1 170.18 122.324 170.242L122.349 170.254C122.349 170.018 122.349 169.793 122.337 169.544C122.312 169.307 122.287 169.058 122.262 168.796Z" fill="#3E5363"/>
<path fill-rule="evenodd" clip-rule="evenodd" d="M119.109 167.611C119.208 167.362 119.221 167.15 119.133 166.988C119.046 166.839 118.859 166.701 118.572 166.589C118.572 166.589 118.548 166.577 118.523 166.564C118.485 166.552 118.46 166.539 118.423 166.527C118.373 166.614 118.323 166.714 118.286 166.814C118.236 166.913 118.186 167.038 118.124 167.188L117.787 168.023H117.812C118.149 168.16 118.41 168.185 118.622 168.123C118.834 168.048 118.984 167.886 119.109 167.611Z" fill="#3E5363"/>
<path fill-rule="evenodd" clip-rule="evenodd" d="M114.92 165.28C114.895 165.28 114.87 165.268 114.833 165.255C114.795 165.243 114.745 165.23 114.695 165.206C114.671 165.255 114.646 165.293 114.621 165.343C114.596 165.38 114.571 165.43 114.546 165.467L114.384 165.804L113.948 166.689C114.259 166.839 114.521 166.876 114.72 166.814C114.92 166.751 115.082 166.589 115.232 166.303C115.344 166.066 115.381 165.866 115.319 165.692C115.269 165.53 115.132 165.393 114.92 165.28Z" fill="#3E5363"/>
</svg>
