<svg width="295" height="245" viewBox="0 0 295 245" fill="none" xmlns="http://www.w3.org/2000/svg">
<path d="M246.49 68.0318C180.173 68.0333 113.854 68.0331 47.5364 68.0331C47.0423 68.0331 46.5483 68.0331 46 68.0331C46 104.57 46 140.999 46 177.537C46.5485 177.537 47.0425 177.537 47.5366 177.537C113.855 177.537 180.173 177.537 246.491 177.538C246.994 177.538 247.497 177.558 248 177.569C248 141.046 248 104.523 248 68C247.497 68.011 246.994 68.0318 246.49 68.0318ZM242.774 132.126C242.774 133.496 242.772 133.498 241.338 133.498C203.631 133.499 165.924 133.505 128.217 133.475C127.067 133.474 126.445 133.745 126.17 134.915C125.927 135.944 125.467 136.923 125.052 138.062C164.346 138.062 203.474 138.062 242.777 138.062C242.777 138.615 242.777 139.069 242.777 139.523C242.777 150.019 242.759 160.514 242.8 171.01C242.804 172.102 242.515 172.391 241.419 172.391C178.417 172.364 115.416 172.364 52.4149 172.39C51.3406 172.39 51.1146 172.052 51.1152 171.044C51.1392 138.874 51.1405 106.705 51.1079 74.5351C51.1068 73.407 51.4502 73.1779 52.5105 73.1783C115.476 73.2028 178.441 73.203 241.406 73.1779C242.481 73.1775 242.804 73.4303 242.802 74.544C242.766 93.738 242.775 112.932 242.774 132.126Z" fill="#3E5363"/>
<path d="M125.859 113.225C123.805 113.227 123.809 113.229 123.224 115.205C122.635 117.197 122.036 119.187 121.363 121.438C121.177 120.929 121.078 120.705 121.011 120.471C120.405 118.334 119.825 116.189 119.179 114.063C119.08 113.74 118.694 113.287 118.419 113.271C117.063 113.189 115.7 113.233 114.156 113.233C115.424 116.901 116.441 120.428 117.863 123.783C119.112 126.728 119.225 129.407 117.666 132.24C117.198 133.09 116.828 133.415 115.857 133.416C98.2997 133.445 80.7421 133.515 63.1845 133.579C62.84 133.58 62.4955 133.608 62.1577 133.623C62.1577 135.171 62.1577 136.59 62.1577 138.114C62.7652 138.114 63.2964 138.115 63.8276 138.114C82.1414 138.089 100.455 138.058 118.769 138.057C119.435 138.057 119.693 137.851 119.906 137.259C122.213 130.852 124.547 124.454 126.872 118.054C127.439 116.492 128.003 114.928 128.62 113.224C127.577 113.224 126.717 113.224 125.859 113.225Z" fill="#3E5363"/>
<path d="M76.8924 113.114C76.7426 110.847 75.4544 109.441 73.338 108.749C72.8297 108.583 72.3039 108.379 71.7811 108.364C68.6267 108.274 65.4707 108.233 62.3155 108.182C62.2608 108.181 62.2048 108.265 62.1802 108.285C62.1802 114.784 62.1802 121.258 62.1802 127.694C65.5462 127.694 68.8194 127.836 72.0741 127.651C74.8495 127.493 76.7444 125.801 77.1749 123.611C77.7344 120.765 77.0413 119.301 74.261 117.702C76.3333 116.778 77.0266 115.144 76.8924 113.114ZM66.8325 111.786C68.0088 111.786 69.1549 111.7 70.2819 111.809C71.5555 111.932 72.2485 112.827 72.2477 114.083C72.2468 115.318 71.5241 116.188 70.2281 116.299C69.1317 116.393 68.0207 116.319 66.8325 116.319C66.8325 114.817 66.8325 113.367 66.8325 111.786ZM71.0513 124.067C69.6856 124.272 68.2887 124.268 66.7586 124.363C66.7586 122.754 66.7398 121.329 66.7834 119.906C66.7886 119.737 67.1333 119.439 67.3233 119.437C68.505 119.424 69.6954 119.404 70.8671 119.532C72.0186 119.657 72.6447 120.55 72.6754 121.836C72.7017 122.949 72.1148 123.908 71.0513 124.067Z" fill="#3E5363"/>
<path d="M225.707 112.719C224.731 112.837 223.806 113.378 222.741 113.769C222.741 111.51 222.741 109.201 222.741 106.892C221.18 106.892 219.767 106.892 218.341 106.892C218.341 113.797 218.341 120.607 218.341 127.474C219.686 127.474 220.963 127.474 222.25 127.474C222.365 127.051 222.467 126.676 222.576 126.275C222.695 126.334 222.8 126.364 222.877 126.429C225.946 129.024 230.107 127.894 231.319 124.062C232.116 121.542 232.101 118.951 231.31 116.426C230.494 113.822 228.37 112.399 225.707 112.719ZM226.789 123.509C226.278 124.286 225.154 124.615 224.077 124.248C223.218 123.956 222.696 123.396 222.755 122.403C222.798 121.688 222.764 120.968 222.764 120.25C222.764 119.532 222.791 118.813 222.758 118.097C222.709 117.058 223.254 116.509 224.184 116.23C225.174 115.932 226.047 116.088 226.688 116.942C227.541 118.079 227.587 122.296 226.789 123.509Z" fill="#3E5363"/>
<path d="M135.823 102.444C137.216 102.444 138.563 102.444 139.956 102.444C139.956 97.5868 139.956 92.7953 139.956 87.9507C138.478 87.9507 137.058 87.9507 135.546 87.9507C135.526 88.3805 135.494 88.7637 135.493 89.1469C135.488 91.8762 135.494 94.6057 135.489 97.335C135.486 98.4789 134.912 99.1329 133.794 99.2976C132.055 99.5537 131.294 98.9408 131.269 97.1503C131.233 94.601 131.257 92.0508 131.256 89.5009C131.256 89.0088 131.256 88.5167 131.256 87.9656C129.704 87.9656 128.291 87.9656 126.846 87.9656C126.846 91.4714 126.799 94.9083 126.865 98.343C126.9 100.19 127.664 101.77 129.504 102.414C131.456 103.096 133.397 103.01 135.055 101.514C135.193 101.39 135.377 101.318 135.618 101.174C135.698 101.669 135.758 102.044 135.823 102.444Z" fill="#3E5363"/>
<path d="M92.3278 116.335C91.5248 114.626 90.1606 113.577 88.3535 113.152C83.8402 112.09 80.3633 114.383 79.501 118.94C78.5767 123.827 81.2381 127.53 86.1528 128.065C88.3784 128.307 90.4388 127.74 92.1303 126.196C92.346 125.999 92.5245 125.429 92.402 125.253C91.8999 124.533 91.2747 123.899 90.7003 123.239C88.9247 124.646 87.215 125.024 85.7556 124.344C84.7835 123.892 84.2039 123.142 84.0558 121.91C87.11 121.91 90.0697 121.91 93.1033 121.91C93.2031 119.914 93.1452 118.075 92.3278 116.335ZM88.6331 119.096C87.1076 119.096 85.6518 119.096 84.1101 119.096C84.0478 118.086 84.3389 117.138 85.2319 116.78C85.9432 116.494 86.9185 116.489 87.6539 116.731C88.6174 117.048 88.7754 118.018 88.6331 119.096Z" fill="#3E5363"/>
<path d="M74.3399 102.215C74.3505 99.0896 74.382 95.9635 74.3537 92.838C74.3464 92.0142 74.7283 91.5703 75.411 91.2794C77.0962 90.5617 78.5083 91.4324 78.5282 93.2454C78.5578 95.9401 78.5379 98.6355 78.539 101.33C78.5392 101.706 78.539 102.081 78.539 102.415C80.143 102.415 81.5612 102.415 83.0132 102.415C83.0132 98.9448 83.0923 95.5669 82.9808 92.1953C82.9225 90.4318 82.3746 88.724 80.4823 88.0202C78.4945 87.2808 76.5996 87.5259 74.9312 88.9356C74.7289 89.1066 74.5156 89.2643 74.4713 89.2993C74.1385 88.7889 73.8956 88.0098 73.5504 87.9618C72.3938 87.8008 71.2008 87.9006 69.9727 87.9006C69.9727 92.8646 69.9727 97.6578 69.9727 102.413C71.485 102.413 72.9012 102.413 74.2852 102.413C74.322 102.282 74.3399 102.249 74.3399 102.215Z" fill="#3E5363"/>
<path d="M185.384 117.527C185.341 115.68 184.532 114.236 182.858 113.455C180.171 112.2 177.478 112.348 174.928 113.863C173.67 114.611 172.953 115.768 172.951 117.334C174.444 117.334 175.876 117.334 177.294 117.334C177.869 115.924 178.541 115.526 179.733 115.862C180.689 116.133 181.026 117.001 180.749 118.704C180.034 118.704 179.28 118.633 178.547 118.721C177.521 118.844 176.47 118.97 175.5 119.301C173.499 119.984 172.582 121.397 172.597 123.474C172.611 125.317 173.645 126.827 175.504 127.457C177.49 128.13 179.392 127.975 180.857 126.534C181.301 126.908 181.648 127.448 182.039 127.483C183.321 127.597 184.618 127.526 185.973 127.526C185.807 126.778 185.583 126.191 185.563 125.598C185.472 122.909 185.446 120.217 185.384 117.527ZM180.884 122.554C180.879 123.946 179.826 124.848 178.429 124.633C177.733 124.527 177.216 124.184 177.139 123.417C177.045 122.489 177.251 121.612 178.204 121.3C178.993 121.042 179.871 121.054 180.884 120.923C180.884 121.635 180.885 122.095 180.884 122.554Z" fill="#3E5363"/>
<path d="M110.322 148.778C107.285 147.94 104.019 148.882 102.509 151.226C100.775 153.921 100.619 156.882 101.886 159.769C103.079 162.485 105.499 163.575 108.347 163.664C110.685 163.736 112.806 163.115 114.44 161.145C113.763 160.34 113.126 159.582 112.432 158.757C110.99 160.168 109.409 160.551 107.662 159.974C106.559 159.61 105.962 158.748 105.78 157.436C108.831 157.436 111.794 157.436 114.777 157.436C114.777 156.406 114.817 155.508 114.769 154.615C114.611 151.71 112.905 149.491 110.322 148.778ZM110.366 154.639C110.171 154.667 109.964 154.721 109.757 154.722C108.467 154.73 107.178 154.726 105.892 154.726C105.837 153.003 106.875 151.853 108.324 151.947C109.804 152.043 110.553 153.009 110.366 154.639Z" fill="#3E5363"/>
<path d="M89.103 153.203C89.0585 151.482 88.2171 150.21 86.7432 149.354C84.3443 147.961 80.3205 148.288 78.189 150.051C77.2389 150.837 76.6841 151.82 76.7289 153.079C76.8588 153.123 76.9251 153.165 76.9919 153.166C78.0694 153.176 79.1474 153.165 80.2245 153.193C80.7679 153.207 81.1257 153.148 81.3501 152.507C81.4787 152.139 82.0431 151.762 82.465 151.686C84.1306 151.387 84.9436 152.549 84.4584 154.41C83.1352 154.522 81.8054 154.554 80.5038 154.762C78.018 155.159 76.4823 156.687 76.3576 158.736C76.2143 161.092 77.3699 162.823 79.5926 163.435C81.4696 163.952 83.2266 163.73 84.6367 162.315C85.0469 162.727 85.345 163.294 85.6879 163.323C87.0006 163.431 88.3278 163.367 89.6675 163.367C89.5129 162.52 89.2871 161.792 89.2623 161.056C89.1741 158.44 89.1706 155.82 89.103 153.203ZM84.6227 158.697C84.5933 159.693 83.7896 160.43 82.6117 160.508C81.7784 160.563 81.1082 160.26 80.883 159.391C80.6099 158.336 81.17 157.303 82.2212 157.041C82.9338 156.863 83.693 156.872 84.6259 156.777C84.6257 157.563 84.6396 158.131 84.6227 158.697Z" fill="#3E5363"/>
<path d="M142.654 112.945C139.223 112.591 136.205 114.593 135.379 117.857C135.153 118.749 135.129 119.699 135.078 120.626C134.839 124.944 137.898 128.185 142.744 128.102C144.909 128.065 146.882 127.403 148.341 125.555C147.628 124.724 146.984 123.974 146.325 123.205C144.881 124.574 143.292 125.023 141.501 124.38C140.443 124 139.849 123.183 139.707 121.907C141.224 121.907 142.687 121.907 144.149 121.907C145.616 121.907 147.084 121.907 148.682 121.907C148.682 120.889 148.722 120.03 148.675 119.175C148.478 115.548 146.316 113.323 142.654 112.945ZM144.272 119.076C142.791 119.076 141.298 119.076 139.803 119.076C139.729 117.474 140.68 116.354 142.103 116.381C143.401 116.405 144.586 117.259 144.272 119.076Z" fill="#3E5363"/>
<path d="M211.597 113.077C208.69 112.211 205.947 112.508 203.773 114.868C202.24 116.532 201.966 118.618 202.02 120.796C202.125 125.049 204.762 127.725 208.976 127.797C212.64 127.859 215.216 125.955 215.906 122.485C216.146 121.276 216.138 119.973 216 118.741C215.693 116 214.364 113.901 211.597 113.077ZM211.319 122.613C210.95 123.884 210.194 124.387 208.951 124.348C207.826 124.313 206.937 123.714 206.789 122.499C206.614 121.067 206.6 119.581 206.774 118.15C206.937 116.812 207.882 116.115 209.021 116.095C210.164 116.075 211.012 116.738 211.362 118.059C211.552 118.777 211.584 119.536 211.696 120.338C211.58 121.071 211.535 121.867 211.319 122.613Z" fill="#3E5363"/>
<path d="M160.199 102.575C163.54 101.908 165.302 99.262 165.281 95.3373C165.281 94.9064 165.303 94.4739 165.278 94.0445C165.07 90.5878 162.686 88.0756 159.244 87.6752C155.569 87.2479 152.545 89.0376 151.613 92.3595C151.291 93.5092 151.246 94.7704 151.27 95.977C151.355 100.43 154.635 103.688 160.199 102.575ZM156.109 97.8618C155.841 97.0239 155.771 96.1227 155.593 95.1346C155.787 94.2662 155.915 93.3078 156.225 92.4113C156.533 91.5196 157.297 91.0861 158.242 91.0818C159.229 91.0773 159.995 91.5257 160.353 92.4533C161.048 94.2531 161.027 96.0911 160.404 97.9041C160.064 98.8937 159.307 99.3428 158.245 99.3341C157.179 99.3253 156.421 98.8364 156.109 97.8618Z" fill="#3E5363"/>
<path d="M170.313 108.016C170.313 107.637 170.269 107.258 170.246 106.894C168.67 106.894 167.219 106.894 165.675 106.894C165.675 107.451 165.675 107.913 165.675 108.376C165.675 112.542 165.695 116.708 165.659 120.873C165.652 121.646 165.53 122.458 165.262 123.177C164.937 124.046 164.133 124.34 163.229 124.24C162.358 124.143 161.762 123.704 161.592 122.792C161.528 122.447 161.436 122.108 161.356 121.768C159.801 121.768 158.307 121.768 156.816 121.768C156.748 123.662 157.372 125.354 158.673 126.317C161.177 128.17 163.958 128.298 166.734 127.123C169.344 126.019 170.348 123.826 170.324 121.052C170.288 116.707 170.318 112.361 170.313 108.016Z" fill="#3E5363"/>
<path d="M92.258 99.7213C90.8382 100.224 89.8529 99.6638 88.8933 98.0369C87.559 98.0369 86.2537 98.0369 84.9343 98.0369C84.9503 99.3733 85.5617 100.328 86.4363 101.119C88.8462 103.296 93.7481 103.381 96.276 101.316C98.3974 99.5825 98.2652 96.4568 95.9292 95.0089C95.0954 94.4921 94.0972 94.2226 93.1508 93.9106C92.3028 93.6309 91.365 93.5646 90.5801 93.1756C90.1483 92.9616 89.629 92.1909 89.7265 91.8251C89.8546 91.3444 90.4973 90.7914 91.0151 90.6654C92.2678 90.3609 92.8389 90.8372 93.4065 92.3031C94.8011 92.3031 96.1969 92.3031 97.6767 92.3031C97.8048 91.0607 97.3097 90.1666 96.5483 89.4082C94.2759 87.1451 89.1985 87.0159 86.7735 89.1398C84.6925 90.9625 84.8617 94.0173 87.2124 95.4592C88.111 96.0103 89.1782 96.2978 90.1863 96.6563C90.9276 96.9198 91.7519 96.9999 92.4342 97.3604C92.8588 97.5847 93.3632 98.2035 93.328 98.6007C93.2913 99.0139 92.7145 99.5598 92.258 99.7213Z" fill="#3E5363"/>
<path d="M67.8978 159.878C66.9895 159.901 66.7442 159.61 66.7522 158.721C66.7931 154.157 66.7714 149.592 66.7714 145.027C66.7714 144.614 66.7714 144.2 66.7714 143.756C65.1521 143.756 63.7177 143.756 62.1699 143.756C62.1699 150.325 62.1699 156.803 62.1699 163.3C66.4866 163.3 70.7125 163.3 74.9719 163.3C74.9719 162.133 74.9719 161.043 74.9719 159.858C72.5625 159.858 70.2288 159.818 67.8978 159.878Z" fill="#3E5363"/>
<path d="M196.443 122.445C195.874 124.053 195.328 124.459 193.965 124.336C192.907 124.24 192.216 123.567 192.117 122.182C192.018 120.794 192.028 119.376 192.201 117.997C192.36 116.734 193.16 116.117 194.19 116.099C195.275 116.079 195.962 116.714 196.275 118.013C196.307 118.147 196.381 118.272 196.445 118.422C197.752 118.422 199.04 118.422 200.469 118.422C200.552 116.765 200.046 115.422 198.948 114.338C195.902 111.329 189.995 112.449 188.228 116.338C187.439 118.074 187.405 119.903 187.591 121.73C187.838 124.162 188.893 126.208 191.235 127.183C193.672 128.197 196.169 128.178 198.425 126.589C199.815 125.61 200.538 124.231 200.475 122.445C199.048 122.445 197.735 122.445 196.443 122.445Z" fill="#3E5363"/>
<path d="M97.3866 142.416C94.9919 142.605 93.4015 143.993 92.95 146.357C92.8046 147.119 92.7868 147.905 92.7075 148.713C92.0162 148.772 91.3585 148.828 90.6987 148.885C90.6987 149.929 90.6987 150.848 90.6987 151.828C91.3821 151.86 92.0151 151.889 92.8322 151.927C92.8322 155.788 92.8322 159.538 92.8322 163.293C94.3651 163.293 95.7822 163.293 97.3365 163.293C97.3365 159.466 97.3365 155.718 97.3365 151.866C98.3544 151.866 99.2368 151.866 100.227 151.866C100.227 150.978 100.287 150.188 100.191 149.419C100.161 149.183 99.7204 148.861 99.435 148.823C98.7743 148.734 98.0935 148.795 97.1612 148.795C97.3633 147.882 97.2887 146.881 97.7298 146.534C98.4387 145.977 99.4886 145.852 100.494 145.511C100.479 145.586 100.512 145.484 100.517 145.38C100.661 142.295 100.525 142.168 97.3866 142.416Z" fill="#3E5363"/>
<path d="M118.03 92.1959C118.035 94.2423 118.015 96.2889 118.038 98.3351C118.079 102.148 121.739 104.176 125.069 102.281C125.069 101.304 125.069 100.346 125.069 99.3398C124.765 99.3242 124.521 99.3056 124.277 99.3005C122.81 99.2691 122.539 98.994 122.53 97.5132C122.527 97.0825 122.53 96.6515 122.53 96.2208C122.53 94.5118 122.53 92.803 122.53 91.0016C123.393 91.0016 124.099 91.0016 124.848 91.0016C124.848 89.9252 124.848 88.9462 124.848 87.8366C124.044 87.8366 123.313 87.8366 122.486 87.8366C122.486 86.5747 122.486 85.4425 122.486 84.3008C120.964 84.3008 119.547 84.3008 118.017 84.3008C118.017 85.5035 118.017 86.6363 118.017 87.812C117.321 87.8652 116.735 87.9099 116.175 87.9527C116.175 89.016 116.175 89.9716 116.175 90.9781C116.792 91.0148 117.35 91.0479 117.982 91.0855C118.001 91.4963 118.029 91.846 118.03 92.1959Z" fill="#3E5363"/>
<path d="M100.767 92.2777C100.77 94.4681 100.746 96.6588 100.785 98.8483C100.809 100.154 101.18 101.375 102.381 102.078C104.137 103.107 105.986 102.89 107.808 102.417C107.808 101.318 107.808 100.36 107.808 99.2933C107.329 99.2933 106.849 99.4208 106.501 99.2617C106.042 99.0525 105.355 98.6322 105.34 98.278C105.237 95.891 105.286 93.4977 105.286 91.0085C106.119 91.0085 106.823 91.0085 107.578 91.0085C107.578 89.9286 107.578 88.9494 107.578 87.8361C106.776 87.8361 106.047 87.8361 105.217 87.8361C105.217 86.571 105.217 85.4392 105.217 84.3003C103.691 84.3003 102.274 84.3003 100.748 84.3003C100.748 85.5053 100.748 86.6389 100.748 87.8156C100.056 87.8651 99.4689 87.907 98.8999 87.9477C98.8999 89.0094 98.8999 89.9651 98.8999 90.9744C99.5154 91.01 100.076 91.0424 100.767 91.0826C100.767 91.5079 100.766 91.8928 100.767 92.2777Z" fill="#3E5363"/>
<path d="M149.252 99.2991C148.432 99.3215 147.896 98.9284 147.881 98.1184C147.839 95.7958 147.866 93.4719 147.866 91.0273C148.694 91.0273 149.431 91.0273 150.212 91.0273C150.212 89.9229 150.212 88.9422 150.212 87.8434C149.399 87.8434 148.665 87.8434 147.813 87.8434C147.813 86.5967 147.813 85.4651 147.813 84.2886C146.272 84.2886 144.854 84.2886 143.297 84.2886C143.297 85.509 143.297 86.6712 143.297 87.8329C142.633 87.8752 142.108 87.9087 141.57 87.9431C141.57 88.996 141.57 89.9486 141.57 90.9572C142.162 91.0037 142.685 91.0448 143.276 91.0912C143.293 91.4772 143.321 91.8271 143.322 92.177C143.329 94.2601 143.29 96.3443 143.343 98.4264C143.387 100.154 143.777 101.878 145.665 102.386C146.97 102.737 148.42 102.583 149.804 102.575C150.026 102.574 150.413 102.168 150.436 101.922C150.516 101.081 150.467 100.229 150.467 99.2978C149.957 99.2975 149.605 99.2893 149.252 99.2991Z" fill="#3E5363"/>
<path d="M105.933 117.558C105.933 119.533 105.924 121.506 105.937 123.48C105.959 126.836 107.601 128.352 110.934 128.113C113.039 127.962 113.039 127.962 113.037 125.887C113.037 125.495 113.037 125.103 113.037 124.548C112.45 124.548 111.938 124.676 111.545 124.514C111.123 124.339 110.515 123.904 110.502 123.563C110.412 121.175 110.454 118.781 110.454 116.259C111.302 116.259 112.034 116.259 112.764 116.259C112.764 115.207 112.764 114.288 112.764 113.29C111.974 113.245 111.24 113.204 110.396 113.156C110.396 111.931 110.396 110.799 110.396 109.673C108.86 109.673 107.443 109.673 105.924 109.673C105.924 110.857 105.924 111.956 105.924 113.113C105.246 113.193 104.663 113.262 104.109 113.327C104.109 114.364 104.109 115.308 104.109 116.256C104.729 116.287 105.259 116.313 105.932 116.347C105.933 116.793 105.933 117.176 105.933 117.558Z" fill="#3E5363"/>
<path d="M95.8118 117.565C95.8131 119.718 95.7902 121.871 95.8226 124.024C95.8526 126.019 96.7184 127.451 98.3967 127.79C99.6623 128.047 101.015 127.903 102.327 127.867C102.529 127.861 102.872 127.483 102.89 127.258C102.955 126.381 102.916 125.496 102.916 124.568C102.588 124.568 102.413 124.568 102.239 124.568C100.544 124.558 100.311 124.33 100.305 122.648C100.301 121.356 100.304 120.064 100.304 118.772C100.304 117.965 100.304 117.159 100.304 116.254C101.204 116.254 101.908 116.254 102.617 116.254C102.617 115.204 102.617 114.259 102.617 113.284C101.825 113.239 101.119 113.199 100.284 113.152C100.284 111.943 100.284 110.816 100.284 109.669C98.7334 109.669 97.3192 109.669 95.7753 109.669C95.7753 110.872 95.7753 111.997 95.7753 113.15C95.1202 113.206 94.592 113.25 93.9727 113.303C93.9727 114.344 93.9727 115.261 93.9727 116.23C94.583 116.273 95.1399 116.313 95.8122 116.36C95.8118 116.792 95.8116 117.178 95.8118 117.565Z" fill="#3E5363"/>
<path d="M66.6071 82.9546C65.0563 82.9546 63.6068 82.9546 62.1506 82.9546C62.1506 89.4973 62.1506 95.9448 62.1506 102.451C63.6446 102.451 65.0686 102.451 66.6071 102.451C66.6071 95.8938 66.6071 89.4233 66.6071 82.9546Z" fill="#3E5363"/>
<path d="M124.696 148.512C124.034 148.593 123.334 148.724 122.758 149.033C122.205 149.329 121.789 149.88 121.252 150.376C121.15 149.835 121.065 149.384 120.952 148.789C119.947 148.789 118.947 148.84 117.956 148.774C117.061 148.715 116.788 149.031 116.797 149.928C116.839 154.054 116.814 158.18 116.818 162.306C116.818 162.62 116.857 162.935 116.887 163.378C118.056 163.378 119.163 163.337 120.264 163.392C121.05 163.432 121.336 163.193 121.319 162.37C121.269 160.003 121.3 157.634 121.302 155.266C121.303 153.619 122.018 152.852 123.679 152.752C124.278 152.717 124.88 152.747 125.719 152.747C125.719 151.627 125.655 150.592 125.739 149.569C125.809 148.718 125.407 148.425 124.696 148.512Z" fill="#3E5363"/>
<path d="M114.27 87.9546C112.79 87.9546 111.372 87.9546 109.9 87.9546C109.9 92.8081 109.9 97.6009 109.9 102.448C111.382 102.448 112.799 102.448 114.27 102.448C114.27 97.5931 114.27 92.7997 114.27 87.9546Z" fill="#3E5363"/>
<path d="M112.054 86.2819C113.518 86.2762 114.57 85.3219 114.544 84.0245C114.518 82.7769 113.485 81.8848 112.056 81.877C110.584 81.869 109.569 82.7964 109.587 84.1328C109.603 85.3854 110.639 86.2873 112.054 86.2819Z" fill="#3E5363"/>
</svg>
