<svg xmlns="http://www.w3.org/2000/svg" xmlns:xlink="http://www.w3.org/1999/xlink" width="150" height="124" viewBox="0 0 150 124">
    <defs>
        <path id="prefix__a" d="M0 0.273L11.754 0.273 11.754 9.77 0 9.77z"/>
        <path id="prefix__c" d="M0.106 0.601L3.631 0.601 3.631 7.729 0.106 7.729z"/>
    </defs>
    <g fill="none" fill-rule="evenodd">
        <path fill="#FFF" d="M47.69 3.221h54.574v38.476c0 15.046-12.24 27.287-27.287 27.287-15.046 0-27.287-12.241-27.287-27.287V3.22zm27.287 68.985c16.85 0 30.51-13.658 30.51-30.51V0H44.469v41.697c0 16.85 13.66 30.51 30.508 30.51z"/>
        <path fill="#FFF" d="M58.383 37.356l1.041-.379 5.002 13.743-3.956 1.44-.952-2.614 1.041-.379.573 1.574 1.874-.683-4.623-12.702zM61.2 36.33l4.623 12.703 1.874-.682-4.624-12.702 1.043-.379 5 13.743-3.955 1.44-5.003-13.743 1.042-.38zm3.799-7.784l1.38-.994.266.105.34 1.629.065.31c-.116-.067-.23-.136-.35-.195-.604-.306-1.237-.545-1.895-.717l.194-.138zm3.195 1.477l1.48-1.44.281.065 1.136 3.084 1.99-2.618c.014 0 .026.002.04.003v10.59l-1.878-5.17c-.654-1.797-1.807-3.27-3.24-4.328l.191-.186zm5.614 17.282l-3.956 1.44-.952-2.613 1.042-.38.573 1.573 1.873-.681-1.18-3.24-4.695-3.833-1.664-4.569 3.957-1.44.951 2.614-1.041.38-.572-1.574-1.875.682 1.181 3.242 4.696 3.83 1.662 4.57zm7.51-13.89l1.04.38-4.623 12.702 1.875.682.572-1.573 1.042.379-.952 2.614-3.956-1.44 5.001-13.743zm-4.484-4.298l.039-.003.246.322 1.745 2.296L80 28.648l.28-.065 1.673 1.63c-.075.056-.153.11-.227.168-1.327 1.042-2.39 2.455-3.01 4.156l-1.882 5.17v-10.59zm6.476-1.46l.265-.105 1.54 1.107.039.028c-.107.029-.216.054-.323.086-.673.199-1.317.48-1.927.827l.406-1.943zm3.74 7.846l2.914 1.06-.951 2.615-1.04-.38.572-1.572-1.874-.683-1.558 4.28 1.874.683-.378 1.04-1.874-.683-2.308 6.342 1.873.682.573-1.574 1.041.379-.951 2.614-2.915-1.06-1.042-.38 2.687-7.383.379-1.038 1.937-5.322 1.04.38zm3.65 1.327l1.077.393-.467 5.335 3.073-4.387 1.077.393-4.342 6.2-.66 7.543-1.078-.393.467-5.334-3.07 4.386-1.08-.392 4.343-6.2.66-7.544zM73.12 53.971V65.86l1.86 2.028 1.854-2.028V53.97l13.003 4.733 6.464-17.766c1.769-4.855-.737-10.224-5.592-11.992-1.46-.53-2.963-.674-4.403-.487l.004-.078.122-2.197.245-.14 2.929 1.51-.3-3.292.215-.169 3.127 1.06-.787-3.21.187-.195 3.25.587-1.25-3.06c.05-.073.104-.145.155-.22l3.305.098-1.69-2.84c.04-.08.083-.158.122-.24l3.277-.389-2.087-2.565c.028-.086.06-.17.086-.257l3.183-.865-2.45-2.229c.015-.087.034-.172.047-.26l3.026-1.334-2.757-1.842c0-.087.006-.173.007-.26l2.8-1.767-2.291-1.082H96.69c.11.877.168 1.768.168 2.675 0 11.458-8.81 20.853-20.024 21.797v-5.51c.096-.118.155-.264.155-.428v-.926l5.947 3.267c.318.173.708-.053.708-.417v-6.764c.005-.364-.386-.592-.704-.42l-5.951 3.27v-.919c0-.336-.245-.618-.563-.677.513-.956.845-2.41.845-4.042 0-2.342-.677-4.32-1.614-4.972v-.583h.214v-.56H74.09v.56h.21v.583c-.933.653-1.615 2.63-1.615 4.972 0 1.632.332 3.086.85 4.042-.323.059-.563.34-.563.677v.919l-5.956-3.27c-.315-.172-.705.056-.705.42l.005 6.764c0 .364.385.59.704.417l5.952-3.267v.926c0 .164.058.31.15.428v5.51c-11.216-.944-20.025-10.339-20.025-21.797 0-.907.06-1.798.168-2.675h-2.09l-2.292 1.082 2.801 1.767c0 .088.005.174.007.26l-2.757 1.842 3.026 1.334c.013.088.031.173.045.26l-2.45 2.23 3.184.864c.028.087.06.17.087.257l-2.088 2.565 3.278.39c.04.08.082.159.121.239l-1.69 2.84 3.305-.097c.05.073.104.145.155.217l-1.25 3.062 3.251-.587.186.195-.787 3.21 3.128-1.06c.07.057.143.113.214.169l-.3 3.291 2.93-1.51c.08.048.161.095.244.141l.121 2.125.01.153c-.099-.013-.195-.03-.294-.04-1.35-.132-2.75.027-4.114.524-4.856 1.768-7.36 7.137-5.592 11.992l6.466 17.766 13.001-4.733zM95.72 74.947c.03-.087.02-.182-.033-.29-.05-.1-.117-.164-.205-.193-.033-.011-.066-.017-.1-.017-.057 0-.116.016-.176.046-.105.053-.169.12-.198.207-.03.09-.02.182.03.282.053.107.12.173.208.202.088.028.178.019.278-.03.102-.05.167-.119.196-.207M86.164 78.434c-.076-.124-.162-.215-.256-.27-.09-.053-.198-.079-.32-.079h-.01c-.07 0-.226.017-.573.099l-.253.06.506 2.183.463-.107c.19-.045.326-.087.403-.128.099-.049.175-.114.227-.19.052-.075.084-.191.096-.346.01-.16-.016-.375-.077-.638-.06-.26-.13-.457-.206-.584M81.132 79.106c-.159-.141-.344-.212-.565-.212-.043 0-.086.003-.132.008-.28.033-.487.15-.636.36-.146.21-.199.513-.154.905.044.385.167.668.363.843.198.175.426.247.695.214.268-.03.472-.15.623-.363.15-.212.203-.52.157-.915-.045-.39-.164-.672-.351-.84M55.775 74.773c-.076-.06-.247-.156-.507-.285l-.234-.113-.986 2.013.427.21c.176.085.308.137.393.156.109.022.207.02.295-.005.09-.025.19-.096.295-.21.11-.118.225-.298.342-.54.118-.24.188-.438.209-.585.02-.143.01-.268-.028-.37-.038-.102-.108-.194-.206-.27M70.47 78.925c-.28-.03-.507.038-.7.21-.19.171-.309.455-.352.847-.043.385.013.69.166.903.154.215.36.334.63.363.269.03.494-.04.688-.214.194-.174.314-.463.357-.858.044-.389-.008-.692-.155-.898-.147-.207-.355-.323-.634-.353M62.296 78.787L63.058 79.004 62.967 77.858zM98.659 74.388c-.116-.037-.226-.023-.337.04-.126.073-.195.167-.206.288-.012.126.011.244.072.35.086.147.19.242.31.28.119.038.231.027.341-.037.108-.061.172-.148.2-.265.024-.119-.006-.255-.092-.406-.076-.13-.172-.215-.288-.25"/>
        <path fill="#FFF" d="M101.48 74.415l-1.379-2.094c-.089.289-.232.56-.428.806l-.056.071-.416-.634.028-.036c.113-.142.212-.337.295-.58.081-.24.096-.468.045-.68l-.012-.044.557-.367 2.047 3.11-.68.448zm-1.686.752c-.084.3-.288.545-.605.726-.235.135-.47.204-.703.204-.057 0-.114-.005-.171-.012-.342-.052-.607-.24-.793-.562-.101-.177-.152-.368-.15-.568.003-.16.052-.321.145-.478h-.005c-.146 0-.276-.03-.388-.09-.144-.079-.26-.193-.344-.339-.142-.247-.173-.503-.092-.764.079-.258.277-.48.588-.66.31-.177.6-.236.865-.173.265.06.472.216.615.463.088.155.128.318.116.486-.008.125-.043.244-.107.357.176-.002.33.027.47.097.176.086.32.222.426.408.172.3.218.606.133.905zm-2.535 1.416c-.104.295-.321.526-.649.69-.218.107-.432.16-.64.16-.082 0-.165-.008-.245-.024-.337-.072-.59-.276-.756-.608-.09-.183-.129-.377-.114-.576.011-.161.07-.318.173-.468-.148-.007-.278-.046-.387-.115-.14-.087-.248-.207-.323-.358-.127-.254-.142-.513-.046-.768.096-.255.305-.464.627-.622.32-.159.613-.2.874-.122.261.076.458.245.585.5.08.16.11.324.088.491-.016.124-.059.242-.13.352.172.005.327.045.464.124.172.096.306.243.4.433.155.31.18.617.079.911zm-3.498 1.92l-.97-2.313c-.14.267-.331.506-.57.715l-.067.06-.293-.7.035-.031c.138-.12.27-.293.395-.516.124-.22.181-.442.17-.661l-.002-.045.614-.257 1.439 3.432-.751.316zm-2.832 1.106l-2.659.834-1.11-3.538.061-.018 2.594-.815.22.7-1.843.58.2.633 1.715-.537.218.697-1.715.538.254.808 1.908-.6.219.698-.062.02zm-3.632.031c-.029.283-.11.529-.24.73-.1.156-.251.295-.451.415-.15.09-.36.165-.625.225l-1.388.321-.837-3.611 1.35-.313c.293-.069.53-.099.697-.09.229.014.44.085.633.21.187.125.35.295.482.508.131.211.237.486.314.817.067.294.09.56.065.788zm-5.267 1.67c-.285.373-.702.594-1.24.655-.094.012-.186.017-.276.017-.425 0-.79-.124-1.089-.37-.361-.295-.579-.74-.644-1.32-.044-.372-.023-.694.06-.958.061-.196.156-.38.284-.546.13-.166.278-.297.443-.39.217-.123.478-.203.775-.236.54-.064.997.058 1.361.357.365.3.584.75.651 1.345.068.586-.041 1.073-.325 1.447zm-4.353.852l-.85.034-.119-2.971-1.06.041-.031-.733 2.971-.119.03.733-1.06.042.12 2.973zm-2.461-.423c-.126.184-.303.323-.526.409-.196.074-.434.112-.71.112l-.097-.002c-.466-.014-.828-.136-1.074-.363-.247-.227-.391-.552-.427-.97l-.006-.064.83-.055.009.059c.032.22.106.384.22.49.115.102.275.158.478.165.213.004.38-.034.488-.12.106-.081.16-.177.164-.29.001-.07-.016-.128-.055-.176-.04-.051-.116-.098-.227-.142-.083-.033-.275-.09-.568-.173-.398-.112-.671-.24-.832-.394-.226-.216-.336-.477-.326-.779.005-.194.066-.377.181-.542.116-.165.28-.29.487-.37.205-.081.452-.12.735-.109.462.014.814.13 1.046.344.233.215.352.5.354.846v.064l-.844.012-.009-.057c-.02-.167-.077-.29-.164-.363-.087-.073-.226-.113-.414-.12-.194-.003-.35.03-.458.104-.062.041-.092.096-.094.167-.002.066.024.12.08.17.055.05.209.133.63.245.352.096.616.193.787.288.174.099.31.233.408.4.096.167.141.371.134.61-.006.215-.074.42-.2.604zm-3.087-1.45c-.066.589-.281 1.04-.64 1.34-.301.25-.67.376-1.097.376-.085 0-.17-.004-.257-.014-.545-.06-.967-.278-1.254-.648-.286-.37-.398-.851-.334-1.433.04-.37.132-.68.272-.92.106-.179.24-.336.4-.467.163-.136.337-.23.52-.283.237-.07.509-.091.805-.059.54.061.96.28 1.248.653.288.372.402.861.337 1.455zm-6.461-.067c.135.23.34.37.623.426.14.027.288.027.44 0 .144-.025.27-.065.381-.116l.07-.35-.813-.162.143-.718.063.013 1.591.315-.294 1.488-.023.015c-.183.119-.433.207-.745.263-.15.025-.299.039-.447.039-.156 0-.312-.016-.464-.046-.378-.074-.695-.221-.945-.436-.252-.215-.422-.49-.506-.815-.082-.323-.089-.66-.02-1.005.073-.375.22-.697.435-.957.217-.264.498-.446.836-.542.257-.075.562-.079.904-.01.448.088.786.256 1.003.497.22.241.333.542.34.893v.066l-.854-.009-.005-.058c-.016-.17-.074-.309-.18-.426-.109-.115-.259-.193-.448-.232-.294-.056-.54-.013-.748.14-.208.148-.349.41-.421.778-.08.398-.051.718.084.949zm-2.462.429l-.078-.867-1.29-.367-.508.7-.872-.247 2.404-3.172.82.233.005.044.409 3.93-.89-.254zm-3.144-4.08l-1.793-.714-.245.617 1.668.665-.271.68-1.67-.666-.313.785 1.858.742-.27.68-2.65-1.057 1.373-3.444 2.586 1.03-.273.683zm-4.582.91c-.112.036-.234.054-.366.054-.079 0-.16-.006-.246-.02-.172-.024-.382-.099-.627-.219l-1.279-.625.029-.059 1.602-3.271 1.244.609c.277.135.472.257.597.37.17.155.29.345.358.561.067.216.086.451.054.7-.03.246-.122.525-.272.83-.132.272-.283.491-.447.655-.2.2-.418.34-.647.415zm-3.899-4.532c.273.169.445.415.512.731.066.315.001.635-.193.948-.162.26-.386.45-.665.56-.153.061-.305.093-.458.093-.227 0-.452-.07-.673-.206-.293-.181-.486-.412-.574-.687-.088-.275-.067-.561.063-.85l.026-.063.735.358-.026.058c-.059.128-.073.245-.042.36.03.111.089.193.181.251.108.066.222.079.35.038.129-.042.252-.157.366-.342.108-.172.151-.325.127-.452-.022-.129-.091-.227-.21-.3-.152-.095-.326-.112-.536-.052l-.032.01-.51-.425 1.362-1.488 1.644 1.018-.407.656-1.11-.689-.294.33c.131.027.253.075.364.143zm51.505-3.306c1.05-.797 2.06-1.642 3.037-2.537l-3.514-1.202v-.003l-.814-3.56c-.836.764-1.713 1.491-2.619 2.183-1.267.973-2.6 1.867-3.982 2.686l1.633 2.774c-6.406 3.777-13.875 5.945-21.85 5.945-7.974 0-15.443-2.168-21.849-5.945l1.633-2.774c-1.383-.819-2.714-1.713-3.984-2.686-.903-.692-1.78-1.419-2.617-2.183l-.813 3.56v.003l-3.515 1.202c.977.895 1.987 1.74 3.037 2.537l-3.101 4.06c1.637 1.262 3.354 2.418 5.137 3.463 7.642 4.51 16.558 7.096 26.072 7.096 9.516 0 18.431-2.586 26.073-7.096 1.781-1.045 3.5-2.2 5.137-3.464l-3.1-4.06z"/>
        <path fill="#FFF" d="M96.172 75.737c-.049-.019-.097-.028-.146-.028-.063 0-.127.016-.193.049-.13.063-.204.153-.222.274-.021.127-.004.242.051.352.076.152.173.254.291.3.118.045.23.04.344-.016.11-.056.18-.138.214-.253.033-.116.01-.255-.067-.412-.068-.135-.157-.222-.272-.266M98.108 73.34c-.055-.097-.126-.156-.216-.18-.027-.008-.054-.011-.083-.011-.062 0-.125.018-.191.057-.1.057-.16.128-.185.219-.025.09-.01.18.048.278.057.103.13.166.219.19.09.022.18.008.275-.049.1-.056.16-.126.185-.216.025-.09.007-.185-.052-.288"/>
        <g transform="translate(0 100.055)">
            <mask id="prefix__b" fill="#fff">
                <use xlink:href="#prefix__a"/>
            </mask>
            <path fill="#FFF" d="M11.545 9.458h.21v.13H8.921V9.47h.197c.147 0 .273-.059.378-.176.104-.117.147-.245.13-.384L9.04 2.348 6.3 8.439c-.243.532-.391.975-.443 1.33h-.13L2.387 2.53l-.561 6.38c-.017.139.027.267.13.384.106.117.227.176.366.176h.21v.118H0v-.13h.209c.243 0 .454-.075.632-.222.178-.148.285-.348.32-.602L2.14.274h.13L5.908 8.14 9.47.273h.118l1.004 8.361c.043.35.216.593.522.732.13.06.274.092.43.092" mask="url(#prefix__b)"/>
        </g>
        <path fill="#FFF" d="M13.685 109.512c.226 0 .42-.08.58-.241.162-.162.245-.355.254-.582v-7.24c-.01-.225-.092-.416-.254-.572-.16-.158-.354-.236-.58-.236h-.17v-.13h2.856v.13h-.17c-.225 0-.418.078-.58.236-.16.156-.245.347-.253.573v7.24c0 .226.082.42.247.58.165.161.361.242.586.242h.17v.13h-2.857v-.13h.17zM28.073 100.641c-.217 0-.404.077-.56.228-.157.153-.24.338-.249.555v6.731c0 .505.03.983.092 1.436l.025.234h-.117l-7.109-7.592v6.496c.008.305.143.53.404.678.122.071.252.106.392.106h.248v.13h-2.687v-.13h.246c.219 0 .405-.077.562-.23.157-.15.235-.34.235-.567v-6.77c0-.53-.031-1.004-.091-1.422l-.026-.21h.13l7.11 7.594v-6.471c-.009-.226-.092-.415-.248-.568-.157-.151-.344-.228-.56-.228h-.249v-.131h2.687v.131h-.235zM30.5 109.512c.225 0 .42-.08.58-.241.16-.162.245-.355.255-.582v-7.24c-.01-.225-.094-.416-.254-.572-.162-.158-.356-.236-.581-.236h-.17v-.13h2.857v.13h-.17c-.226 0-.42.078-.58.236-.161.156-.246.347-.255.573v7.24c0 .226.083.42.248.58.165.161.36.242.587.242h.17v.13H30.33v-.13h.17zM35.535 109.108c-.026-.122-.04-.357-.04-.705s.066-.718.197-1.109h.117c-.009.097-.013.191-.013.287 0 .531.162.972.483 1.325.322.351.747.528 1.279.528.546 0 .997-.165 1.35-.496.351-.33.528-.745.528-1.246 0-.5-.17-.906-.51-1.22l-2.504-2.322c-.47-.435-.705-.96-.705-1.578 0-.617.207-1.145.62-1.585.414-.439.972-.659 1.677-.659.33 0 .704.044 1.122.13h.508v1.605h-.117c0-.408-.141-.735-.425-.978-.283-.244-.645-.366-1.088-.366-.444 0-.816.15-1.116.444-.299.296-.45.666-.45 1.109 0 .444.174.826.521 1.148l2.571 2.374c.435.4.652.948.652 1.643 0 .697-.22 1.269-.665 1.716-.444.448-1.035.672-1.774.672-.384 0-.789-.058-1.22-.175-.43-.12-.763-.299-.998-.542M49.402 101.672c0-.209-.074-.389-.221-.542-.149-.152-.322-.232-.523-.24H46.18v7.813c.009.227.094.418.254.574.162.157.355.235.58.235h.17v.13h-2.857v-.13h.17c.226 0 .42-.078.58-.235.161-.156.246-.343.255-.561v-7.827h-2.478c-.21.009-.386.09-.529.24-.144.154-.215.334-.215.543v.221l-.13.014v-1.644c.13.052.356.103.678.157.321.052.617.078.887.078h4.409c.426 0 .78-.033 1.064-.098.282-.065.453-.112.515-.137v1.644l-.13-.014v-.221zM54.45 99.676l-.09-.092c.66-.713 1.212-1.283 1.656-1.708.234.235.413.465.534.691-.556.323-1.256.69-2.1 1.11zm-2.935 9.837c.226 0 .42-.082.58-.242.16-.161.246-.355.255-.582v-7.304c-.026-.208-.117-.385-.274-.528-.156-.144-.344-.216-.561-.216h-.156l-.013-.131h3.822c.374 0 .707-.03.998-.09.29-.062.476-.11.555-.144v1.644h-.13v-.235c0-.209-.072-.387-.216-.535-.143-.148-.315-.226-.515-.235h-2.662v4.03h2.205c.174-.008.321-.073.443-.195.122-.121.183-.273.183-.457v-.181h.131v2.06h-.131v-.196c0-.173-.06-.321-.176-.443-.118-.12-.263-.187-.437-.196h-2.218v3.9h1.866c.643 0 1.135-.143 1.474-.43.339-.287.621-.713.847-1.278h.132l-.757 2.113h-5.414v-.13h.169zM62.212 100.915h-.834v7.775c0 .226.08.42.241.58.16.16.359.242.593.242h.157l.013.13h-2.857v-.13h.17c.226 0 .419-.078.58-.235.16-.156.246-.348.254-.574v-7.24c-.008-.226-.093-.42-.254-.58-.161-.161-.354-.241-.58-.241h-.17v-.132h3.522c.792 0 1.414.221 1.866.66.452.439.678 1.009.678 1.708 0 .7-.215 1.306-.645 1.814-.431.509-.955.763-1.572.763.13.06.284.18.462.358.178.18.338.364.477.555.748 1.07 1.235 1.729 1.462 1.976.225.248.386.418.482.509.094.092.2.18.313.268.113.087.226.156.339.208.252.122.522.183.809.183v.13H67c-.374 0-.722-.067-1.044-.202-.321-.134-.563-.274-.723-.417-.162-.144-.3-.282-.419-.417-.117-.136-.441-.586-.972-1.351-.53-.764-.838-1.203-.925-1.311-.087-.108-.178-.216-.275-.32-.278-.296-.556-.443-.833-.443v-.13c.068.008.16.013.273.013.113 0 .252-.005.417-.014 1.079-.026 1.757-.478 2.035-1.356.052-.174.078-.337.078-.49v-.293c-.016-.582-.169-1.052-.456-1.41-.287-.356-.674-.546-1.16-.572-.21-.01-.47-.014-.784-.014M68.918 109.512c.225 0 .42-.08.58-.241.161-.162.245-.355.254-.582v-7.24c-.009-.225-.093-.416-.253-.572-.162-.158-.356-.236-.581-.236h-.17v-.13h2.857v.13h-.17c-.226 0-.42.078-.58.236-.161.156-.246.347-.255.573v7.24c0 .226.083.42.248.58.166.161.36.242.587.242h.17v.13h-2.857v-.13h.17zM75.825 108.234c.674.8 1.566 1.2 2.675 1.2 1.108 0 2-.4 2.673-1.2.675-.8 1.012-1.853 1.012-3.157 0-.861-.152-1.622-.457-2.284-.305-.66-.736-1.171-1.298-1.532-.56-.361-1.207-.54-1.937-.54-1.105 0-1.994.4-2.668 1.2-.674.799-1.011 1.851-1.011 3.156 0 1.304.337 2.357 1.011 3.157m-.717-6.595c.864-.874 1.993-1.311 3.385-1.311 1.391 0 2.522.437 3.391 1.31.87.875 1.306 2.021 1.306 3.439 0 1.417-.435 2.564-1.306 3.437-.87.874-2 1.31-3.39 1.31-1.393 0-2.522-.436-3.386-1.31-.866-.873-1.299-2.02-1.299-3.437 0-1.418.433-2.564 1.299-3.438M95.53 103.029c0 .382-.078.74-.235 1.07-.287.616-.791 1.047-1.514 1.29-.251.088-.468.131-.651.131-.54 0-1.005-.1-1.396-.3v-.13c.635.138 1.222.069 1.761-.21.478-.243.805-.643.978-1.2.052-.173.078-.338.078-.495v-.287c-.016-.609-.178-1.094-.482-1.455-.304-.36-.731-.541-1.278-.541h-1.5v7.787c.008.227.093.42.253.582.162.16.355.241.581.241h.17v.13h-2.858v-.13h.17c.226 0 .42-.08.581-.241.161-.161.246-.355.254-.582v-7.29c-.026-.219-.118-.4-.273-.542-.157-.143-.344-.216-.562-.216h-.156l-.014-.13h3.406c.835 0 1.492.224 1.97.672.477.448.717 1.062.717 1.846M102.209 99.676l-.092-.092c.662-.713 1.214-1.283 1.657-1.708.226.235.4.465.522.691-.557.323-1.252.69-2.087 1.11zm4.344.965h-.209c-.182 0-.34.06-.476.176-.135.118-.207.263-.216.438v5.165c0 1.017-.321 1.84-.965 2.466-.643.627-1.5.939-2.57.939-1.068 0-1.937-.31-2.602-.933-.665-.62-.998-1.441-.998-2.459v-5.153c0-.182-.067-.334-.202-.457-.135-.12-.298-.182-.49-.182h-.208v-.131h2.648v.131h-.209c-.26 0-.456.1-.586.3-.06.096-.097.205-.104.325v4.985c0 .948.254 1.713.763 2.295.508.583 1.175.875 2.002.875.878 0 1.583-.276 2.113-.828.53-.553.796-1.277.796-2.173v-5.154c-.009-.286-.149-.477-.417-.572-.087-.035-.18-.053-.274-.053h-.21v-.131h2.414v.131zM110.453 109.173H111.76c.66 0 1.173-.181 1.538-.542.365-.36.549-.872.549-1.532 0-.374-.064-.703-.19-.985-.125-.283-.285-.506-.476-.672-.504-.418-1.26-.627-2.27-.627h-.013v-.117h.125c.073 0 .18-.008.318-.026.14-.017.297-.048.47-.092.174-.043.33-.112.47-.208.139-.095.27-.209.392-.338.252-.288.379-.717.379-1.285 0-.57-.164-1.016-.49-1.338-.327-.321-.8-.483-1.416-.483h-.692v8.245zm1.332.47H108.6l.014-.13h.156c.226 0 .419-.079.58-.236.16-.157.246-.348.254-.574v-7.253c0-.227-.082-.417-.247-.574-.165-.156-.361-.235-.587-.235h-.156l-.014-.131h2.596c.896 0 1.592.198 2.088.594.495.396.743.924.743 1.586 0 .52-.139.953-.417 1.297-.28.343-.617.572-1.017.685.686.105 1.23.387 1.63.849.4.46.6 1.041.6 1.74 0 .701-.267 1.273-.802 1.716-.535.444-1.282.665-2.237.665zM117.068 109.512c.226 0 .42-.08.58-.241.162-.162.246-.355.254-.582v-7.226c-.008-.226-.092-.42-.254-.58-.16-.162-.354-.242-.58-.242h-.17v-.13h2.856v.13h-.169c-.313 0-.552.135-.718.404-.078.131-.116.27-.116.418v7.775h1.865c.644 0 1.135-.144 1.474-.43.34-.287.622-.714.848-1.28h.13l-.756 2.115h-5.415v-.13h.17zM124.986 109.512c.226 0 .42-.08.581-.241.16-.162.245-.355.253-.582v-7.24c-.008-.225-.092-.416-.253-.572-.161-.158-.355-.236-.58-.236h-.17v-.13h2.856v.13h-.17c-.226 0-.419.078-.58.236-.16.156-.246.347-.254.573v7.24c0 .226.083.42.248.58.165.161.36.242.586.242h.17v.13h-2.857v-.13h.17zM131.046 108.508c-.866-.87-1.299-2.016-1.299-3.438 0-1.421.433-2.568 1.299-3.437.865-.87 2.01-1.305 3.437-1.305 1.166 0 2.195.296 3.092.887l.26 1.84h-.117c-.191-.748-.578-1.325-1.161-1.729-.582-.405-1.274-.607-2.074-.607-1.139 0-2.05.396-2.733 1.188-.683.791-1.024 1.838-1.024 3.144 0 1.304.337 2.354 1.012 3.15.673.795 1.563 1.207 2.667 1.233.973 0 1.787-.265 2.44-.796.703-.574 1.13-1.51 1.278-2.805h.104l-.156 2.048c-.792 1.296-2.014 1.943-3.666 1.943-1.374-.008-2.494-.447-3.36-1.316M142.59 108.234c.674.8 1.566 1.2 2.675 1.2 1.11 0 2-.4 2.674-1.2.674-.8 1.01-1.853 1.01-3.157 0-.861-.15-1.622-.456-2.284-.303-.66-.736-1.171-1.297-1.532-.561-.361-1.206-.54-1.938-.54-1.104 0-1.994.4-2.667 1.2-.674.799-1.011 1.851-1.011 3.156 0 1.304.337 2.357 1.01 3.157m-.716-6.595c.864-.874 1.993-1.311 3.384-1.311 1.391 0 2.522.437 3.391 1.31.87.875 1.306 2.021 1.306 3.439 0 1.417-.435 2.564-1.306 3.437-.87.874-2 1.31-3.39 1.31-1.392 0-2.52-.436-3.385-1.31-.867-.873-1.299-2.02-1.299-3.437 0-1.418.432-2.564 1.299-3.438M17.255 116.545v6.266h1.928c.548 0 1.033-.13 1.454-.391.422-.26.747-.627.98-1.102.23-.473.347-1.02.347-1.64 0-.94-.256-1.697-.768-2.27-.513-.576-1.184-.863-2.013-.863h-1.928zm4.47.652c.648.63.973 1.457.973 2.482 0 1.025-.325 1.852-.974 2.482-.65.63-1.496.945-2.54.945h-3.32v-.099h.127c.17 0 .316-.06.437-.18.12-.121.183-.266.19-.436v-5.483c0-.157-.064-.29-.19-.396-.128-.109-.274-.163-.437-.163h-.118l-.009-.097h3.32c1.044 0 1.89.315 2.54.945zM25.474 122.048c.506.6 1.176.901 2.007.901.832 0 1.502-.3 2.007-.901.506-.6.759-1.39.759-2.37 0-.645-.114-1.216-.342-1.713-.228-.496-.553-.88-.974-1.15-.422-.271-.906-.407-1.454-.407-.83 0-1.497.3-2.003.9-.506.602-.759 1.391-.759 2.37 0 .98.253 1.77.759 2.37m-.538-4.95c.649-.656 1.496-.984 2.54-.984s1.893.328 2.546.984c.654.657.98 1.516.98 2.58s-.326 1.925-.98 2.58c-.653.657-1.502.984-2.545.984-1.045 0-1.892-.327-2.541-.983-.65-.656-.974-1.517-.974-2.58 0-1.065.324-1.924.974-2.58M34.84 123.007c.17 0 .314-.06.435-.18.12-.12.185-.267.191-.437v-5.482c-.02-.157-.088-.289-.205-.397-.119-.108-.259-.162-.422-.162h-.117l-.01-.097h2.87c.202 0 .421-.02.66-.06.239-.038.406-.078.504-.117v1.234h-.098v-.176c0-.156-.053-.29-.162-.402-.107-.11-.236-.17-.386-.176h-1.997v3.026h1.655c.13-.007.241-.056.332-.147.092-.091.137-.206.137-.343v-.137h.098v1.547h-.098v-.147c0-.131-.044-.241-.132-.333-.088-.092-.197-.14-.328-.147h-1.664v2.928h1.4c.483 0 .852-.108 1.106-.323.255-.216.467-.535.637-.96h.097l-.568 1.587h-4.062v-.099h.126z"/>
        <g transform="translate(40.334 115.513)">
            <mask id="prefix__d" fill="#fff">
                <use xlink:href="#prefix__c"/>
            </mask>
            <path fill="#FFF" d="M.136 7.19c-.02-.09-.03-.266-.03-.528 0-.261.05-.538.147-.832h.088c-.007.072-.01.143-.01.214 0 .4.121.73.363.996.241.263.561.396.96.396.41 0 .749-.125 1.013-.372.264-.249.396-.56.396-.935s-.128-.682-.38-.916L.8 3.47C.449 3.144.273 2.749.273 2.285c0-.464.155-.86.465-1.19.31-.329.73-.494 1.258-.494.248 0 .53.033.843.098h.38v1.205h-.087c0-.308-.107-.552-.319-.735C2.602.987 2.33.895 1.996.895c-.333 0-.612.111-.837.332-.226.223-.338.5-.338.833 0 .332.13.62.392.862L3.14 4.704c.327.3.49.712.49 1.233 0 .523-.166.952-.499 1.288-.333.336-.777.504-1.331.504-.288 0-.593-.044-.917-.132C.561 7.51.312 7.373.136 7.19" mask="url(#prefix__d)"/>
        </g>
        <path fill="#FFF" d="M50.388 117.123c0-.157-.056-.292-.167-.406-.11-.114-.241-.175-.391-.18h-1.86v5.864c.006.17.07.313.19.43.121.118.267.177.437.177h.127v.097H46.58v-.097h.126c.17 0 .316-.06.437-.177.12-.117.183-.257.19-.42v-5.875h-1.86c-.157.006-.29.067-.397.181-.107.114-.161.25-.161.406v.167l-.099.01v-1.234c.099.038.269.078.51.117.242.038.463.059.665.059h3.31c.32 0 .586-.024.798-.074.212-.048.341-.083.388-.102v1.234l-.099-.01v-.167zM52.278 120.433h2.409l-1.176-3.143-1.233 3.143zm4.816 2.574h.079v.099H54.97v-.099h.088c.137 0 .24-.044.308-.132.069-.087.103-.171.103-.25 0-.078-.013-.157-.04-.235l-.626-1.664H52.16l-.656 1.675c-.026.078-.04.154-.04.23 0 .075.035.157.104.244.069.088.171.132.308.132h.09v.099h-1.969v-.099h.087c.163 0 .324-.052.481-.156.157-.104.284-.258.38-.461l2.214-5.267c.242-.529.363-.864.363-1.01h.087l2.625 6.277c.09.203.215.357.372.46.157.105.32.157.488.157zM59.132 116.545v6.266h1.928c.548 0 1.033-.13 1.454-.391.423-.26.747-.627.98-1.102.23-.473.347-1.02.347-1.64 0-.94-.256-1.697-.768-2.27-.512-.576-1.184-.863-2.013-.863h-1.928zm4.47.652c.648.63.974 1.457.974 2.482 0 1.025-.326 1.852-.975 2.482-.649.63-1.496.945-2.54.945h-3.32v-.099h.127c.17 0 .316-.06.437-.18.12-.121.183-.266.19-.436v-5.483c0-.157-.064-.29-.19-.396-.128-.109-.274-.163-.437-.163h-.117l-.01-.097h3.32c1.044 0 1.891.315 2.54.945zM67.352 122.048c.505.6 1.175.901 2.006.901.832 0 1.502-.3 2.007-.901.507-.6.76-1.39.76-2.37 0-.645-.114-1.216-.343-1.713-.228-.496-.553-.88-.974-1.15-.42-.271-.906-.407-1.454-.407-.83 0-1.497.3-2.002.9-.507.602-.76 1.391-.76 2.37 0 .98.253 1.77.76 2.37m-.54-4.95c.65-.656 1.497-.984 2.542-.984 1.044 0 1.892.328 2.545.984.654.657.98 1.516.98 2.58s-.326 1.925-.98 2.58c-.653.657-1.501.984-2.545.984-1.045 0-1.892-.327-2.541-.983-.65-.656-.974-1.517-.974-2.58 0-1.065.324-1.924.974-2.58M77.98 116.545v6.266h1.929c.548 0 1.032-.13 1.454-.391.421-.26.747-.627.98-1.102.23-.473.346-1.02.346-1.64 0-.94-.257-1.697-.769-2.27-.512-.576-1.183-.863-2.011-.863h-1.93zm4.47.652c.65.63.974 1.457.974 2.482 0 1.025-.325 1.852-.974 2.482-.65.63-1.497.945-2.541.945H76.59v-.099h.127c.17 0 .315-.06.435-.18.121-.121.185-.266.192-.436v-5.483c0-.157-.065-.29-.192-.396-.126-.109-.272-.163-.435-.163h-.118l-.009-.097h3.319c1.044 0 1.89.315 2.54.945zM85.852 120.433h2.409l-1.176-3.143-1.233 3.143zm4.817 2.574h.079v.099h-2.203v-.099h.088c.137 0 .24-.044.308-.132.07-.087.103-.171.103-.25 0-.078-.013-.157-.04-.235l-.626-1.664h-2.644l-.656 1.675c-.026.078-.038.154-.038.23 0 .075.033.157.102.244.069.088.171.132.308.132h.09v.099H83.57v-.099h.087c.163 0 .324-.052.481-.156.157-.104.284-.258.382-.461l2.212-5.267c.242-.529.363-.864.363-1.01h.088l2.624 6.277c.09.203.215.357.372.46.157.105.32.157.49.157zM98.434 118.142c0 .287-.059.554-.177.802-.214.464-.594.787-1.135.97-.19.064-.353.098-.49.098-.405 0-.755-.076-1.047-.226v-.097c.476.104.917.052 1.321-.158.359-.181.604-.483.735-.9.04-.13.059-.254.059-.372v-.216c-.013-.456-.134-.82-.363-1.09-.229-.272-.548-.407-.959-.407h-1.127v5.844c.007.17.07.316.192.437.12.12.265.18.434.18h.128v.099h-2.143v-.099h.126c.17 0 .316-.06.436-.18.121-.121.185-.267.192-.437v-5.473c-.02-.164-.09-.298-.206-.405-.118-.11-.259-.162-.422-.162h-.117l-.009-.098h2.555c.627 0 1.12.168 1.478.503.36.337.539.8.539 1.387M100.53 120.433h2.408l-1.176-3.143-1.232 3.143zm4.817 2.574h.077v.099h-2.202v-.099h.088c.137 0 .24-.044.308-.132.069-.087.104-.171.104-.25 0-.078-.014-.157-.04-.235l-.627-1.664h-2.643l-.656 1.675c-.026.078-.04.154-.04.23 0 .075.035.157.103.244.069.088.171.132.309.132h.089v.099h-1.969v-.099h.087c.164 0 .324-.052.482-.156.156-.104.284-.258.38-.461l2.214-5.267c.241-.529.362-.864.362-1.01h.088l2.624 6.277c.09.203.215.357.372.46.157.105.32.157.49.157zM108.01 116.555h-.626v5.835c0 .17.06.315.18.436.121.12.269.182.446.182h.118l.01.097h-2.146v-.097h.128c.17 0 .315-.06.436-.177.12-.117.184-.26.19-.43v-5.435c-.006-.17-.07-.315-.19-.435-.121-.121-.266-.182-.436-.182h-.128v-.097h2.644c.595 0 1.06.165 1.4.494.34.33.51.757.51 1.282 0 .526-.161.98-.485 1.362-.323.381-.716.572-1.18.572.098.046.214.136.348.27.133.133.252.272.358.415.56.803.926 1.298 1.096 1.484.17.186.29.314.362.382.072.069.15.136.235.201.085.065.17.117.254.157.19.091.393.137.607.137v.097h-.538c-.28 0-.542-.05-.784-.151-.241-.1-.422-.206-.543-.313-.12-.109-.225-.213-.314-.313-.087-.102-.33-.439-.728-1.014-.4-.575-.631-.902-.696-.984-.065-.083-.134-.162-.206-.24-.208-.221-.417-.333-.626-.333v-.098c.053.007.121.01.205.01.085 0 .19-.003.314-.01.81-.02 1.319-.358 1.528-1.018.04-.13.058-.253.058-.367v-.22c-.012-.437-.127-.791-.342-1.059-.216-.266-.507-.41-.872-.43-.156-.006-.352-.01-.587-.01"/>
        <path fill="#FFF" d="M114.031 120.433h2.409l-1.175-3.143-1.234 3.143zm4.818 2.574h.078v.099h-2.203v-.099h.088c.138 0 .24-.044.308-.132.07-.087.103-.171.103-.25 0-.078-.013-.157-.038-.235l-.627-1.664h-2.645l-.656 1.675c-.026.078-.038.154-.038.23 0 .075.034.157.103.244.068.088.17.132.308.132h.088v.099h-1.968v-.099h.088c.162 0 .323-.052.48-.156.157-.104.284-.258.382-.461l2.212-5.267c.242-.529.363-.864.363-1.01h.088l2.625 6.277c.09.203.214.357.37.46.158.105.321.157.49.157zM120.562 115.625l-.068-.068c.495-.535.91-.963 1.243-1.283.176.176.31.35.401.519-.417.242-.943.518-1.576.832zm-.94 7.383c.17 0 .315-.061.436-.182.12-.12.185-.265.191-.435v-5.434c-.006-.17-.07-.313-.191-.431-.12-.117-.267-.177-.437-.177h-.125v-.097h2.143v.097h-.128c-.169 0-.315.06-.436.177-.12.118-.183.26-.19.43v5.435c0 .17.062.314.186.435s.271.182.44.182h.128v.097h-2.143v-.097h.125zM124.292 122.753h.98c.495 0 .88-.136 1.155-.406.274-.27.412-.655.412-1.15 0-.281-.049-.527-.143-.74-.094-.212-.213-.38-.358-.504-.377-.314-.946-.47-1.703-.47h-.01v-.089h.093c.056 0 .135-.005.24-.019.105-.014.222-.036.353-.069.13-.032.249-.084.352-.156.104-.073.203-.158.295-.254.188-.217.284-.537.284-.965 0-.428-.123-.762-.367-1.003-.246-.242-.6-.363-1.063-.363h-.52v6.188zm.999.352h-2.388l.008-.097h.118c.17 0 .316-.06.437-.177.12-.117.184-.26.19-.43v-5.444c0-.17-.063-.313-.186-.431-.124-.117-.27-.177-.44-.177h-.119l-.008-.098h1.947c.673 0 1.195.15 1.567.446.373.297.558.694.558 1.19 0 .391-.104.716-.313.974-.21.258-.463.429-.764.514.516.078.923.29 1.225.637.3.346.45.781.45 1.307 0 .526-.2.955-.603 1.288-.402.331-.961.498-1.679.498zM130.344 120.433h2.408l-1.175-3.143-1.233 3.143zm4.817 2.574h.078v.099h-2.203v-.099h.088c.138 0 .24-.044.309-.132.07-.087.103-.171.103-.25 0-.078-.014-.157-.04-.235l-.627-1.664h-2.643l-.656 1.675c-.026.078-.04.154-.04.23 0 .075.035.157.104.244.068.088.17.132.308.132h.089v.099h-1.968v-.099h.087c.163 0 .323-.052.48-.156.157-.104.285-.258.381-.461l2.214-5.267c.241-.529.362-.864.362-1.01h.088l2.624 6.277c.091.203.216.357.372.46.158.105.321.157.49.157z"/>
    </g>
</svg>
