<svg xmlns="http://www.w3.org/2000/svg" width="295" height="245" fill="none" viewBox="0 0 295 245">
    <path fill="#3F5363" d="M59.47 167.13c1.765 0 3.53-.737 4.559-1.327l-.294-2.8c-1.03.59-1.912 1.032-3.236 1.032-1.617 0-2.5-.737-2.5-3.537v-31.246h-3.382v32.13c0 4.127 1.618 5.748 4.853 5.748zM75.794 167.13c3.383 0 6.324-1.621 8.088-3.832.442 2.653 1.618 3.832 4.118 3.832 1.47 0 3.088-.59 3.97-1.327l-.293-2.8c-.883.737-1.765 1.179-2.5 1.179-1.471 0-2.06-1.326-2.06-3.39V138.98h-3.382v2.947c-1.764-2.21-4.853-3.537-7.647-3.537-7.206 0-11.47 5.453-11.47 14.296-.147 9.138 4.412 14.444 11.176 14.444zm.883-25.497c2.94 0 5.44 1.916 6.911 3.684v14.886c-1.323 1.768-3.823 3.832-6.911 3.832-5.442 0-8.824-4.127-8.824-11.054 0-7.074 3.53-11.348 8.824-11.348zM94.47 129.252v37.288h3.383v-2.947c1.765 2.063 4.412 3.537 7.941 3.537 6.765 0 11.177-5.306 11.177-14.296 0-8.991-4.412-14.149-11.177-14.149-3.382 0-6.176 1.474-7.94 3.537V129.4H94.47v-.148zm10.295 12.381c5.441 0 8.823 4.274 8.823 11.201 0 6.927-3.382 11.053-8.823 11.053-2.941 0-5.588-1.768-6.912-3.537v-15.033c1.324-1.916 3.971-3.684 6.912-3.684zM77.559 203.091c-1.47 0-2.059-1.326-2.059-3.389v-21.666h-3.382v2.948c-1.765-2.211-4.853-3.537-7.647-3.537-7.206 0-11.471 5.453-11.471 14.296s4.412 14.149 11.323 14.149c3.383 0 6.324-1.621 8.089-3.832.44 2.653 1.617 3.832 4.117 3.832 1.471 0 3.089-.59 3.971-1.327l-.294-2.8c-.883.884-1.765 1.326-2.647 1.326zm-5.441-3.832c-1.324 1.769-3.824 3.832-6.912 3.832-5.441 0-8.824-4.126-8.824-11.053 0-6.927 3.383-11.201 8.824-11.201 2.941 0 5.441 1.916 6.912 3.684v14.738zM105.794 203.091c-1.47 0-2.059-.736-2.059-2.8v-11.938c0-6.78-2.941-10.759-8.823-10.759-3.97 0-6.912 1.769-8.53 4.864v-4.422H83v27.561h3.382v-18.276c.883-3.537 3.53-6.484 7.353-6.484 4.412 0 6.618 2.947 6.618 8.106v12.085c0 3.537 1.471 5.011 4.412 5.011 1.617 0 3.088-.589 3.97-1.326l-.294-2.801c-1.029.737-1.765 1.179-2.647 1.179zM133.882 203.091c-1.471 0-2.059-1.326-2.059-3.389v-21.666h-3.382v2.948c-1.765-2.211-4.853-3.537-7.647-3.537-7.206 0-11.471 5.453-11.471 14.296s4.412 14.149 11.324 14.149c3.382 0 6.323-1.621 8.088-3.832.441 2.653 1.618 3.832 4.118 3.832 1.47 0 3.088-.59 3.97-1.327l-.294-2.8c-1.029.884-1.765 1.326-2.647 1.326zm-5.588-3.832c-1.324 1.769-3.824 3.832-6.912 3.832-5.441 0-8.823-4.126-8.823-11.053 0-6.927 3.382-11.201 8.823-11.201 2.941 0 5.441 1.916 6.912 3.684v14.738zM148.147 202.06c-.882.589-1.764 1.032-3.088 1.032-1.618 0-2.5-.737-2.5-3.538v-31.392h-3.382v32.129c0 4.274 1.764 5.748 4.853 5.748 1.764 0 3.529-.737 4.559-1.326l-.442-2.653z"/>
    <path fill="#3F5363" d="M181.529 203.091c-2.794 0-4.264-1.473-4.264-5.011v-17.096h9.558v-2.8h-9.558v-6.927h-2.795l-.294 6.927H167.559l-8.089 23.728-8.97-23.728h-3.824l11.177 27.266-.735 2.21c-1.177 3.537-2.5 5.453-5.442 5.453-2.058 0-3.382-.589-4.558-1.326l-.589 2.653c1.177.737 2.941 1.621 5.294 1.621 4.559 0 6.618-2.948 8.383-7.664l9.853-27.413h3.97v17.539c0 5.453 2.794 7.663 6.912 7.663 2.941 0 5.294-1.031 7.206-2.358l-1.029-2.8c-1.471 1.032-3.824 2.063-5.589 2.063zM194.912 170.372l16.471-9.432c.441.442.882.737 1.617.737 1.177 0 2.059-.885 2.059-2.064 0-.737-.294-1.326-.882-1.768L228 112.451h.294c1.177 0 2.059-.885 2.059-2.064s-.882-2.063-2.059-2.063h-.147l-34.558-76.64c.588-.442.882-1.031.882-1.62 0-1.18-.882-2.064-2.059-2.064-1.176 0-2.059.884-2.059 2.063 0 .885.441 1.474 1.177 1.916l-16.618 106.559c-.588 0-1.176.442-1.471.884l-80.147-27.119v-.147c0-1.179-.882-2.063-2.058-2.063-1.177 0-2.06.884-2.06 2.063 0 1.179.883 2.063 2.06 2.063.588 0 1.029-.294 1.47-.589l97.5 56.595c0 1.769 1.03 2.358 2.353 2.358 1.324 0 2.206-.589 2.353-2.211zm17.941-12.822c-1.176 0-2.059.884-2.059 2.063v.443l-16.029 9.285c0-.148-.147-.442-.147-.59l31.765-54.974-13.236 43.773h-.294zm-36.912-18.865l15.883-102.579.441 131.761c-.294 0-.441.147-.735.147l-8.824-15.475-6.176-10.464c.441-.442.588-.885.588-1.474 0-.884-.441-1.621-1.177-1.916zm14.706 29.919c-.147.147-.294.442-.294.589l-91.176-52.91 82.647 36.993 8.823 15.328zm35.294-58.217c0 .442.148 1.032.442 1.327l-32.5 56.448c-.147-.148-.442-.148-.736-.148l-.441-135.74 34.118 76.492c-.588.295-.883 1.032-.883 1.621zm-50.882 32.277c.147 0 .441 0 .588-.147l5.294 9.285-80.441-35.961 72.5 24.465v.295c.147 1.032 1.03 2.063 2.059 2.063zM196.236 203.092c-1.324 0-1.912-.737-1.912-2.801v-22.255h-3.383v22.992c0 3.537 1.471 5.011 4.265 5.011 1.618 0 3.088-.589 3.971-1.326l-.294-2.801c-.883.737-1.618 1.18-2.647 1.18zM212.706 180.394c4.559 0 6.912 2.653 7.206 7.37l2.794-.885c-.588-5.748-3.823-9.58-10.294-9.58-7.5 0-12.206 6.043-12.206 14.591 0 8.401 3.677 14.444 12.5 14.444 3.824 0 7.206-1.474 9.706-3.832l-1.471-2.8c-2.206 1.916-5 3.537-7.941 3.537-6.765 0-9.412-4.716-9.412-11.349.147-6.779 3.53-11.496 9.118-11.496zM237.118 191.153l-4.706-1.326c-2.941-.884-4.264-1.769-4.264-3.979 0-3.096 2.205-5.159 6.323-5.159 2.647 0 5.441.884 7.353 1.916l.882-2.948c-1.764-.884-5.441-1.916-8.382-1.916-6.029 0-9.706 3.538-9.706 8.107 0 3.684 2.059 5.6 5.883 6.632l4.705 1.326c2.5.737 4.265 1.621 4.265 4.274 0 2.801-2.059 5.159-5.882 5.159-3.383 0-6.03-1.327-7.794-2.358l-.736 3.095c1.765 1.031 5 2.21 8.677 2.21 5.882 0 9.117-3.684 9.117-8.253.148-3.832-2.058-5.748-5.735-6.78z"/>
</svg>
