<svg xmlns="http://www.w3.org/2000/svg" xmlns:xlink="http://www.w3.org/1999/xlink" width="100" height="100" viewBox="0 0 100 100">
    <defs>
        <path id="prefix__a" d="M0.41 0.386L22.195 0.386 22.195 23.846 0.41 23.846z"/>
        <path id="prefix__c" d="M0.456 0.339L74.112 0.339 74.112 75.798 0.456 75.798z"/>
        <path id="prefix__e" d="M0.123 0.237L9.71 0.237 9.71 15.127 0.123 15.127z"/>
    </defs>
    <g fill="none" fill-rule="evenodd">
        <path fill="#FFF" d="M3.351 73.363c.962 0 1.869-.357 2.39-.715l-.192-1.427c-.44.301-.934.577-1.62.577-.852 0-1.32-.413-1.32-1.842V53.584H.825V70.34c0 2.226.907 3.022 2.527 3.022M12.417 60.095c1.566 0 2.884.961 3.599 1.923v7.747c-.715.961-2.033 1.978-3.6 1.978-2.828 0-4.614-2.17-4.614-5.77 0-3.653 1.786-5.878 4.615-5.878m-.495 13.268c1.786 0 3.297-.85 4.203-2.005.22 1.401.88 2.005 2.171 2.005.77 0 1.593-.33 2.115-.715l-.165-1.455c-.467.358-.906.605-1.346.605-.796 0-1.099-.66-1.099-1.759V58.721h-1.785v1.566c-.907-1.126-2.528-1.812-4.01-1.812-3.738 0-5.99 2.884-5.99 7.499 0 4.642 2.335 7.389 5.906 7.389M27.114 60.095c2.83 0 4.615 2.225 4.615 5.879 0 3.598-1.785 5.769-4.615 5.769-1.538 0-2.912-.907-3.626-1.842v-7.938c.687-.962 2.088-1.868 3.626-1.868zm-5.412-6.511v19.505h1.786v-1.567c.907 1.045 2.334 1.841 4.148 1.841 3.543 0 5.879-2.802 5.879-7.472s-2.336-7.416-5.879-7.416c-1.786 0-3.241.796-4.148 1.812v-6.703h-1.786zM10 90.128c-.715.962-2.034 1.978-3.6 1.978-2.828 0-4.614-2.17-4.614-5.77 0-3.653 1.786-5.878 4.614-5.878 1.566 0 2.885.963 3.6 1.923v7.747zm2.884 2.033c-.797 0-1.1-.66-1.1-1.759V79.085H10v1.566c-.907-1.127-2.527-1.813-4.01-1.813C2.252 78.838 0 81.722 0 86.337c0 4.642 2.335 7.39 5.906 7.39 1.786 0 3.296-.852 4.203-2.006.22 1.402.879 2.007 2.17 2.007.77 0 1.593-.33 2.116-.715l-.165-1.457c-.467.358-.907.605-1.346.605zM27.581 92.161c-.742 0-1.044-.411-1.044-1.484V84.47c0-3.573-1.51-5.632-4.615-5.632-2.088 0-3.598.934-4.45 2.555v-2.308h-1.786v14.368h1.785V83.92c.495-1.869 1.814-3.407 3.846-3.407 2.308 0 3.434 1.511 3.434 4.259v6.318c0 1.84.742 2.637 2.28 2.637.824 0 1.593-.33 2.116-.714l-.193-1.429c-.467.33-.878.577-1.373.577M39.421 90.128c-.715.962-2.033 1.978-3.598 1.978-2.83 0-4.616-2.17-4.616-5.77 0-3.653 1.786-5.878 4.616-5.878 1.565 0 2.883.963 3.598 1.923v7.747zm2.885 2.033c-.797 0-1.1-.66-1.1-1.759V79.085h-1.785v1.566c-.906-1.127-2.527-1.813-4.01-1.813-3.736 0-5.99 2.884-5.99 7.499 0 4.642 2.336 7.39 5.908 7.39 1.784 0 3.296-.852 4.203-2.006.219 1.402.878 2.007 2.17 2.007.769 0 1.592-.33 2.115-.715l-.165-1.457c-.467.358-.907.605-1.346.605zM49.806 91.584c-.44.302-.935.577-1.62.577-.853 0-1.32-.411-1.32-1.84V73.946H45.08v16.758c0 2.225.907 3.022 2.529 3.022.961 0 1.867-.357 2.389-.714l-.192-1.429z"/>
        <g transform="translate(48.462 75.045)">
            <mask id="prefix__b" fill="#fff">
                <use xlink:href="#prefix__a"/>
            </mask>
            <path fill="#FFF" d="M18.79 17.088c-1.43 0-2.226-.769-2.226-2.61V5.523h5.028V4.04h-5.028V.386H15.08l-.193 3.653H11.426L7.168 16.43 2.471 4.04H.493l5.85 14.23-.384 1.154c-.631 1.868-1.318 2.884-2.857 2.884-1.044 0-1.757-.301-2.362-.685l-.33 1.4c.605.412 1.567.824 2.775.824 2.417 0 3.461-1.539 4.368-4.038l5.152-14.285h2.073v9.147c0 2.83 1.429 4.012 3.627 4.012 1.565 0 2.773-.523 3.79-1.236l-.521-1.457c-.742.604-1.95 1.099-2.885 1.099" mask="url(#prefix__b)"/>
        </g>
        <g transform="translate(18.462 .43)">
            <mask id="prefix__d" fill="#fff">
                <use xlink:href="#prefix__c"/>
            </mask>
            <path fill="#FFF" d="M45.422 60.15c.11 0 .213-.021.313-.052l2.787 4.843L6.415 46.175l37.953 12.789c-.005.04-.013.08-.013.12 0 .589.477 1.067 1.067 1.067zM71.98 43.377c0 .264.098.502.257.688L55.21 73.461c-.11-.057-.233-.092-.368-.113L54.631 2.57l17.84 39.912c-.295.19-.491.519-.491.895zM53.558 73.693c-.075.088-.137.192-.18.32L5.694 46.395 48.94 65.67l4.617 8.023zm-7.736-15.596l8.32-53.553.206 68.793c-.136.012-.262.039-.377.08l-4.641-8.064-3.168-5.504c.2-.194.326-.464.326-.765 0-.447-.276-.829-.666-.987zm19.307 9.86c-.589 0-1.067.478-1.067 1.067 0 .082.012.16.03.237l-8.41 4.839c-.027-.106-.062-.2-.107-.281l16.613-28.682-6.935 22.834c-.04-.006-.081-.014-.124-.014zm-9.396 6.684l8.58-4.938c.195.235.486.388.816.388.59 0 1.066-.478 1.066-1.067 0-.37-.189-.696-.475-.887l7.2-23.707c.042.005.082.013.126.013.59 0 1.066-.477 1.066-1.067 0-.588-.477-1.065-1.066-1.065-.036 0-.07.006-.104.01L55.04 2.274c.271-.193.45-.51.45-.869 0-.59-.476-1.066-1.066-1.066-.589 0-1.066.477-1.066 1.066 0 .428.254.796.62.966l-8.647 55.656c-.334.028-.625.206-.8.47L2.58 44.361c.003-.033.009-.063.009-.096 0-.59-.477-1.066-1.066-1.066-.588 0-1.066.477-1.066 1.066 0 .589.478 1.066 1.066 1.066.304 0 .577-.129.772-.333l51.001 29.54-.001.023c0 .907.522 1.237 1.264 1.237.665 0 1.145-.314 1.175-1.157z" mask="url(#prefix__d)"/>
        </g>
        <path fill="#FFF" d="M74.915 92.161c-.714 0-1.016-.411-1.016-1.484V79.085h-1.786V91.09c0 1.84.741 2.637 2.252 2.637.825 0 1.622-.33 2.116-.714l-.165-1.429c-.467.33-.88.577-1.4.577M83.54 80.32c2.363 0 3.6 1.374 3.764 3.847l1.456-.495c-.274-3.02-2.005-4.971-5.356-4.971-3.901 0-6.401 3.159-6.401 7.609 0 4.368 1.95 7.527 6.538 7.527 1.977 0 3.763-.797 5.11-2.006l-.77-1.429c-1.153.99-2.637 1.814-4.148 1.814-3.516 0-4.918-2.472-4.918-5.962 0-3.46 1.786-5.933 4.726-5.933"/>
        <g transform="translate(89.71 78.6)">
            <mask id="prefix__f" fill="#fff">
                <use xlink:href="#prefix__e"/>
            </mask>
            <path fill="#FFF" d="M6.633 7.297l-2.472-.715c-1.538-.44-2.225-.934-2.225-2.114 0-1.621 1.181-2.666 3.324-2.666 1.4 0 2.884.468 3.846.99l.467-1.567C8.666.731 6.716.237 5.177.237 1.991.237.123 2.05.123 4.494c0 1.896 1.072 2.914 3.049 3.49l2.5.714c1.291.384 2.253.879 2.253 2.225 0 1.484-1.045 2.665-3.077 2.665-1.73 0-3.187-.687-4.065-1.237l-.414 1.621c.935.522 2.584 1.155 4.561 1.155 3.104 0 4.78-1.951 4.78-4.341 0-1.923-1.154-2.94-3.077-3.49" mask="url(#prefix__f)"/>
        </g>
    </g>
</svg>
