<svg xmlns="http://www.w3.org/2000/svg" width="295" height="245" fill="none" viewBox="0 0 295 245">
    <path fill="#3F5363" d="M148 135.911c21.302 0 38.686-17.348 38.686-38.88V44h-77.372v53.154c0 21.409 17.384 38.757 38.686 38.757zm-34.523-87.85h69.169v48.97c0 19.194-15.548 34.697-34.524 34.697-19.098 0-34.523-15.626-34.523-34.697V48.06h-.122z"/>
    <path fill="#3F5363" d="M145.673 112.78v15.134l2.326 2.584 2.326-2.584V112.78l16.528 6.029 8.202-22.64c2.203-6.152-.98-13.042-7.101-15.257-1.836-.615-3.795-.861-5.631-.615v-.123l.122-2.83c.123 0 .245-.123.368-.123l3.672 1.969-.367-4.184.245-.246 3.917 1.354-.979-4.06.245-.247 4.162.738-1.591-3.937c.122-.123.122-.246.245-.246l4.162.123-2.081-3.568c0-.123.122-.246.122-.246l4.163-.492-2.694-3.323c0-.123.123-.245.123-.369l4.04-1.107-3.061-2.83v-.369l3.795-1.723-3.55-2.337v-.37l3.55-2.214-2.938-1.354H175.3c.122 1.108.245 2.215.245 3.446 0 14.641-11.141 26.576-25.342 27.807v-7.137c.122-.123.245-.369.245-.492v-1.23l7.59 4.183c.367.246.857-.123.857-.492v-8.613c0-.492-.49-.738-.857-.492l-7.59 4.183v-1.23c0-.37-.367-.738-.735-.861.612-1.23 1.102-3.076 1.102-5.168 0-2.953-.857-5.537-2.081-6.275v-.861h.245v-.739h-2.204v.739h.245v.738c-1.224.861-2.081 3.322-2.081 6.275 0 2.092.367 3.937 1.102 5.168-.368.123-.735.492-.735.86v1.231l-7.59-4.183c-.367-.246-.857.123-.857.492v8.613c0 .492.49.738.857.492l7.59-4.183v1.23c0 .246.123.37.245.492v7.014c-14.079-1.108-25.219-13.043-25.219-27.685 0-1.107.122-2.337.245-3.445h-2.694l-2.938 1.354 3.551 2.215v.369l-3.551 2.337 3.795 1.723v.37l-3.06 2.829 4.04 1.107c0 .123.122.247.122.37l-2.693 3.322 4.162.492c0 .123.123.246.123.246l-2.081 3.568 4.162-.123c.122.123.122.246.245.246l-1.592 3.937 4.163-.738.244.246-.979 4.06 3.918-1.353.244.246-.367 4.184 3.673-1.97c.122 0 .245.124.367.124l.123 2.707v.246h-.368c-1.714-.123-3.428 0-5.264.615-6.121 2.215-9.304 9.105-7.1 15.257l8.202 22.64 16.649-5.906zm22.281-21.901l1.347.492-.612 6.767 3.917-5.537 1.347.492-5.509 7.875-.857 9.597-1.347-.492.613-6.767-3.918 5.536-1.347-.492 5.509-7.874.857-9.597zm-4.652-1.723l3.673 1.353-1.224 3.323-1.347-.493.735-1.968-2.326-.862-1.959 5.414 2.326.984-.49 1.23-2.326-.86-2.938 8.12 2.326.862.735-1.969 1.346.492-1.224 3.322-3.673-1.353-1.346-.492 3.427-9.352.49-1.353 2.449-6.767 1.346.369zm-4.774-9.966c.122 0 .245-.123.367-.123l1.959 1.353c-.123 0-.245.123-.367.123-.857.246-1.714.615-2.449 1.107l.49-2.46zm-8.203 1.845s.123 0 0 0l.368.37 2.203 2.952 1.469-3.937c.123 0 .245 0 .368-.123l2.081 2.092c-.123.123-.245.123-.245.246-1.714 1.353-3.061 3.076-3.795 5.29l-2.326 6.645V81.035h-.123zm5.754 5.537l1.347.492-5.876 16.119 2.326.861.734-1.969 1.347.492-1.224 3.322-5.02-1.845 6.366-17.472zm-9.549 17.718l-5.019 1.846-1.224-3.323 1.346-.492.735 1.969 2.326-.861-1.469-4.184-5.999-4.921-2.081-5.783 5.019-1.846 1.225 3.322-1.347.492-.735-1.968-2.326.861 1.469 4.183 5.999 4.922 2.081 5.783zm-7.1-22.024l1.836-1.846c.123 0 .245 0 .367.123l1.47 3.937 2.57-3.322v13.535l-2.326-6.644c-.857-2.338-2.326-4.184-4.162-5.537l.245-.246zm-4.04-1.969l1.714-1.23c.122 0 .245.123.367.123l.49 2.091.122.37c-.122-.124-.245-.124-.489-.247-.735-.369-1.592-.738-2.449-.86l.245-.247zm-4.897 9.966l5.876 16.119 2.326-.862-5.876-16.118 1.347-.492 6.366 17.472-5.02 1.845-6.243-17.472 1.224-.492zm-3.55 1.354l1.346-.492 6.366 17.471-5.019 1.846-1.224-3.322 1.346-.492.735 1.968 2.326-.861-5.876-16.118zM174.321 139.48v-.37c-.123-.123-.123-.246-.245-.246h-.367c-.123.123-.245.123-.245.246v.37c.122.123.122.246.245.246h.367l.245-.246zM162.201 143.909l-.368-.369c-.122-.123-.245-.123-.367-.123s-.245 0-.734.123l-.368.123.612 2.83.612-.123c.245 0 .368-.123.49-.123.123-.123.245-.123.245-.246.122-.123.122-.246.122-.492s0-.492-.122-.862c0-.369 0-.615-.122-.738zM155.835 144.77c-.245-.123-.49-.246-.735-.246h-.122c-.367 0-.612.246-.857.492-.245.247-.245.616-.245 1.108 0 .492.245.861.49 1.107s.489.369.857.246c.367 0 .612-.246.734-.492.245-.246.245-.615.245-1.107 0-.615-.122-.862-.367-1.108zM123.638 139.233c-.123-.123-.367-.246-.612-.369l-.245-.123-1.224 2.584.489.246c.245.123.368.123.49.246h.367c.123 0 .245-.123.368-.246.122-.123.244-.369.489-.738.123-.246.245-.615.245-.738v-.492l-.367-.37zM142.246 144.524c-.367 0-.612 0-.857.246s-.367.616-.49 1.108c0 .492 0 .861.245 1.107s.49.369.857.492c.367 0 .612 0 .857-.246s.367-.615.49-1.107c0-.492 0-.861-.245-1.108-.245-.369-.49-.492-.857-.492zM131.962 144.278l.979.369-.122-1.476-.857 1.107zM177.993 138.741h-.367c-.123.123-.245.246-.245.369s0 .37.122.493c.123.246.245.369.368.369h.489c.123-.123.245-.246.245-.369s0-.37-.122-.493c-.245-.246-.368-.369-.49-.369z"/>
    <path fill="#3F5363" d="M183.625 132.712c1.346-.984 2.57-2.091 3.795-3.199l-4.408-1.476-.979-4.553c-1.102.985-2.204 1.846-3.305 2.83-1.592 1.231-3.306 2.338-5.02 3.445l2.082 3.569c-8.08 4.798-17.629 7.628-27.668 7.628-10.039 0-19.588-2.707-27.668-7.628l2.082-3.569c-1.714-.984-3.428-2.214-5.02-3.445-1.101-.861-2.203-1.845-3.305-2.83l-1.224 4.43-4.408 1.476c1.225 1.108 2.571 2.215 3.796 3.199l-3.918 5.168c2.081 1.6 4.285 3.076 6.488 4.43 9.672 5.782 20.935 8.982 33.055 8.982 12.119 0 23.382-3.323 33.054-8.982 2.203-1.354 4.407-2.83 6.488-4.43l-3.917-5.045zm-65.252 4.184c.368.246.612.492.612.984.123.369 0 .861-.244 1.231-.245.369-.49.615-.857.738-.245.123-.368.123-.613.123-.244 0-.612-.123-.856-.246-.368-.246-.613-.492-.735-.862-.122-.369-.122-.738.122-1.107v-.123l.98.492v.123c-.123.123-.123.369 0 .492 0 .123.122.247.245.37.122.123.244.123.489 0 .123 0 .368-.247.49-.493s.245-.369.122-.615c0-.123-.122-.246-.244-.369-.245-.123-.368-.123-.735-.123l-.612-.492 1.714-1.846 2.081 1.354-.49.861-1.591-1.107-.367.492c.122 0 .367 0 .489.123zm4.897 5.783c-.122 0-.245.123-.49.123h-.367c-.245 0-.489-.123-.734-.246l-1.592-.739v-.123l2.081-4.183 1.592.738c.367.123.612.369.734.492.245.247.368.493.49.739.123.246.123.615.123.861 0 .369-.123.615-.368 1.107-.122.369-.367.616-.612.862-.245.123-.49.246-.857.369zm5.876-1.108l-2.326-.861-.367.738 2.081.862-.367.861-2.081-.861-.367.984 2.326.984-.368.862-3.183-1.477 1.714-4.429 3.306 1.353-.368.984zm3.918 5.168l-.122-1.107-1.592-.492-.612.861-1.102-.369 3.061-4.061.979.246.49 5.045-1.102-.123zm3.183-.615c.122.246.49.492.735.492h.612c.122 0 .367-.123.489-.123l.123-.492-.98-.246.123-.862h.122l1.959.37-.49 2.091c-.245.123-.489.246-.979.369h-1.224c-.49-.123-.857-.246-1.225-.615-.367-.246-.489-.615-.612-.984-.122-.369-.122-.861 0-1.231.123-.492.245-.861.612-1.23.245-.369.613-.615 1.102-.738.368-.123.735-.123 1.102 0 .612.123.979.369 1.224.615s.368.738.49 1.107v.123h-1.102v-.123c0-.246-.122-.369-.245-.492-.122-.123-.367-.246-.612-.246-.367-.123-.734 0-.979.123-.245.246-.49.492-.49.985 0 .492 0 .861.245 1.107zm8.202.123c-.122.738-.367 1.353-.857 1.722-.367.37-.857.493-1.346.493h-.368c-.734-.123-1.224-.369-1.591-.862-.367-.492-.49-1.107-.367-1.845 0-.492.122-.862.367-1.231.122-.246.245-.369.49-.615.244-.123.367-.246.612-.369s.612-.123.979-.123c.735.123 1.224.369 1.592.861.367.615.489 1.231.489 1.969zm3.918 1.846c-.123.246-.367.369-.612.492s-.49.123-.857.123h-.123c-.612 0-1.101-.123-1.346-.492-.368-.247-.49-.739-.49-1.231v-.123l1.102-.123v.123c0 .246.122.492.245.615.122.123.367.246.612.246s.489 0 .612-.123c.122-.123.245-.246.245-.369s0-.123-.123-.246c0-.123-.122-.123-.245-.123-.122 0-.367-.123-.734-.246-.49-.123-.857-.246-1.102-.492-.245-.246-.367-.615-.367-.984 0-.247.122-.493.245-.739.122-.246.367-.369.612-.492s.612-.123.979-.123c.612 0 .98.123 1.347.492.245.246.49.615.49 1.108v.123h-1.102v-.123c0-.246-.123-.369-.245-.493-.123-.123-.245-.123-.49-.123s-.49 0-.612.123c-.122 0-.122.124-.122.247s0 .123.122.246.245.123.857.369c.49.123.735.246.979.369.245.123.368.246.49.492.123.246.123.492.123.738-.245.246-.368.492-.49.739zm3.06.492h-1.101l-.123-3.692h-1.346v-.984l3.795-.123v.984h-1.347l.122 3.815zm5.509-.985c-.367.493-.857.739-1.591.862h-.367c-.49 0-.98-.123-1.347-.493-.49-.369-.735-.984-.857-1.722 0-.492 0-.861.122-1.23l.368-.739c.122-.246.367-.369.612-.492s.612-.246.979-.246c.735-.123 1.224.123 1.714.492s.735.985.857 1.723c0 .738-.122 1.353-.49 1.845zm6.734-2.214c0 .369-.123.615-.245.984-.123.246-.367.369-.612.492s-.49.246-.735.246l-1.714.369-1.102-4.552 1.714-.369c.368-.123.612-.123.857-.123s.612.123.857.246.49.369.612.615c.123.246.245.615.368.984v1.108zm4.529 0l-3.428 1.107-1.346-4.553h.122l3.306-.984.244.861-2.326.739.245.861 2.204-.738.245.861-2.204.738.367.985 2.449-.739.122.862zm3.551-1.354l-1.225-2.953c-.122.369-.367.615-.734.861l-.123.124-.367-.862c.123-.123.367-.369.49-.615.122-.246.245-.615.245-.861l.734-.369 1.837 4.429-.857.246zm4.529-2.461c-.122.369-.367.616-.857.862-.245.123-.489.246-.857.246h-.367c-.367-.123-.735-.369-.979-.739-.123-.246-.123-.492-.123-.738s.123-.369.245-.615c-.245 0-.367 0-.49-.123-.122-.123-.367-.246-.367-.492-.122-.369-.122-.615 0-.984.123-.37.367-.616.735-.739.367-.246.734-.246 1.101-.123.368.123.613.369.735.615.122.247.122.37.122.616 0 .123-.122.246-.122.492.245 0 .367 0 .612.123s.367.369.49.492c.122.246.245.738.122 1.107zm3.183-1.845c-.122.369-.367.738-.734.984-.245.123-.612.246-.857.246h-.245c-.49-.123-.735-.246-.98-.738-.122-.246-.244-.492-.244-.738s.122-.369.122-.616c-.245 0-.367 0-.49-.123-.122-.123-.367-.246-.489-.492-.123-.369-.245-.615-.123-.984.123-.369.367-.615.735-.861.367-.246.734-.246 1.102-.246.367.123.612.246.734.615.123.246.123.369.123.615 0 .123 0 .369-.123.492.245 0 .367 0 .612.123s.367.246.49.492c.367.493.49.862.367 1.231zm2.081-.985l-1.714-2.706c-.122.369-.244.738-.489.984l-.123.123-.489-.861c.122-.123.244-.37.367-.739.122-.246.122-.615 0-.861l.734-.492 2.571 3.937-.857.615z"/>
    <path fill="#3F5363" d="M174.81 140.464h-.49c-.122.123-.245.246-.245.369s0 .369.123.492c.122.246.244.369.367.369h.49c.122-.123.244-.123.244-.369 0-.123 0-.369-.122-.492 0-.246-.122-.369-.367-.369zM177.258 137.388c-.122-.123-.122-.246-.245-.246h-.122c-.122 0-.122 0-.245.123-.122.123-.245.123-.245.246v.369c.123.123.123.246.245.246.123 0 .245 0 .367-.123.123-.123.245-.123.245-.246.123-.123.123-.246 0-.369zM67.568 183.405h.245v.123h-3.55v-.123h.245c.245 0 .367-.123.49-.246.122-.123.244-.369.122-.492l-.612-8.244-3.428 7.752c-.367.615-.49 1.23-.612 1.722h-.245l-4.285-9.228-.734 8.121c0 .123 0 .369.122.492.123.123.245.246.49.246h.245v.123H53v-.123h.245c.367 0 .612-.123.857-.246.245-.246.367-.492.367-.738l1.224-10.705h.123l4.652 9.967 4.53-9.967h.122l1.224 10.705c0 .492.245.738.612.984.245-.123.49-.123.612-.123zM70.385 183.405c.244 0 .49-.123.734-.246.245-.246.367-.492.367-.738v-9.228c0-.246-.122-.492-.367-.738-.245-.247-.49-.247-.734-.247h-.245v-.246h3.672v.123h-.245c-.244 0-.49.123-.734.247-.245.246-.367.492-.367.738v9.228c0 .246.122.492.367.738s.49.246.734.246h.245v.123H70.14v-.123h.245v.123zM88.625 172.208c-.245 0-.49.124-.734.247-.245.246-.245.369-.368.738v8.613c0 .615 0 1.23.123 1.845v.246h-.123l-9.059-9.72v8.244c0 .369.122.615.49.861.122.123.367.123.49.123h.367v.123h-3.428v-.123h.367c.245 0 .49-.123.735-.246.245-.246.245-.492.245-.738v-8.613c0-.615 0-1.23-.123-1.846v-.246h.123l9.059 9.721v-8.244c0-.246-.123-.492-.368-.738-.244-.247-.49-.247-.734-.247h-.367v-.246h3.428v.123h-.123v.123zM91.685 183.405c.245 0 .49-.123.735-.246.245-.246.367-.492.367-.738v-9.228c0-.246-.122-.492-.367-.738-.245-.247-.49-.247-.735-.247h-.245v-.246h3.673v.123h-.245c-.245 0-.49.123-.734.247-.245.246-.368.492-.368.738v9.228c0 .246.123.492.368.738s.49.246.734.246h.245v.123H91.44v-.123h.245v.123zM98.052 182.913v-.861c0-.369.122-.862.245-1.354h.122v.369c0 .616.245 1.231.612 1.723s.98.615 1.592.615c.734 0 1.224-.246 1.714-.615.489-.369.612-.984.612-1.6 0-.615-.245-1.107-.612-1.599l-3.183-2.953c-.612-.492-.857-1.23-.857-1.969 0-.738.244-1.476.734-1.968.49-.616 1.224-.862 2.081-.862.368 0 .857 0 1.469.123h.613v2.092h-.123c0-.492-.122-.984-.49-1.23-.367-.369-.857-.492-1.346-.492-.49 0-.98.246-1.47.615-.367.369-.611.861-.611 1.353 0 .615.244 1.108.612 1.477l3.305 3.076c.49.492.857 1.23.857 2.091 0 .862-.245 1.6-.857 2.215-.612.615-1.347.861-2.204.861-.489 0-.979-.123-1.591-.246-.49-.246-.98-.492-1.224-.861zM115.558 173.439c0-.246-.123-.492-.245-.738-.245-.246-.367-.246-.612-.246h-3.183v9.966c0 .246.122.492.367.738s.49.246.735.246h.244v.123h-3.672v-.123h.245c.244 0 .489-.123.734-.246.245-.246.367-.492.367-.738v-9.966h-3.183c-.244 0-.489.123-.612.246-.122.246-.245.369-.245.738v.246h-.122v-2.092c.122.123.49.123.857.246s.734.123 1.102.123h5.631c.49 0 .98 0 1.347-.123s.612-.123.612-.123v2.092h-.122v-.369h-.245zM118.252 183.405c.245 0 .489-.123.734-.246.245-.246.367-.492.367-.738v-9.351c0-.246-.122-.492-.367-.615-.245-.124-.489-.247-.734-.247h-.245v-.123h4.897c.489 0 .857 0 1.224-.123s.612-.123.735-.123v2.092h-.123v-.246c0-.246-.122-.492-.245-.738-.122-.246-.367-.246-.612-.246h-3.428v5.167h2.816c.245 0 .367-.123.612-.246.123-.123.245-.369.245-.615v-.246h.122v2.584h-.244v-.246c0-.246-.123-.369-.245-.615-.123-.124-.368-.247-.612-.247h-2.816v4.922h2.448c.857 0 1.469-.123 1.837-.492.489-.369.734-.861 1.101-1.6h.123l-.979 2.707h-6.856v-.123h.245v-.246zm3.795-12.427c.734-.984 1.469-1.723 1.959-2.338.244.246.489.615.734.862-.734.492-1.714.861-2.693 1.476zM131.84 172.455h-1.102v9.843c0 .246.123.492.245.738.245.246.49.246.735.246h.245v.123h-3.673v-.123h.245c.245 0 .49-.123.734-.246.245-.246.368-.492.368-.738v-9.105c0-.246-.123-.492-.368-.738-.244-.247-.489-.247-.734-.247h-.245v-.246h4.407c.98 0 1.837.246 2.326.862.612.615.857 1.23.857 2.214 0 .862-.245 1.723-.857 2.338-.489.615-1.224.985-1.958.985.122.123.367.246.612.492.244.246.367.492.612.738.979 1.353 1.591 2.215 1.836 2.461.245.369.49.492.612.615l.367.369c.123.123.245.246.49.246.367.123.612.246.98.246v.123h-.857c-.49 0-.857-.123-1.347-.246-.367-.123-.735-.369-.857-.492-.245-.123-.367-.369-.49-.492-.122-.123-.612-.738-1.224-1.723-.612-.984-1.102-1.476-1.224-1.722l-.367-.369c-.368-.37-.735-.616-1.102-.616v-.123h.857c1.346 0 2.203-.615 2.571-1.722.122-.246.122-.369.122-.615v-.37c0-.738-.245-1.353-.612-1.845s-.857-.738-1.469-.738c0 0-.367-.123-.735-.123zM140.288 183.405c.245 0 .49-.123.734-.246.245-.246.368-.492.368-.738v-9.228c0-.246-.123-.492-.368-.738-.244-.247-.489-.247-.734-.247h-.245v-.246h3.673v.123h-.245c-.245 0-.49.123-.735.247-.245.246-.367.492-.367.738v9.228c0 .246.122.492.367.738s.49.246.735.246h.245v.123h-3.673v-.123h.245v.123zM148.123 173.439c1.102-1.107 2.571-1.723 4.285-1.723 1.713 0 3.183.616 4.284 1.723 1.102 1.107 1.714 2.584 1.714 4.429 0 1.846-.612 3.322-1.714 4.43-1.101 1.107-2.571 1.722-4.284 1.722-1.714 0-3.183-.615-4.285-1.722-1.102-1.108-1.592-2.584-1.592-4.43 0-1.845.49-3.322 1.592-4.429zm.979 8.367c.857.984 1.959 1.476 3.428 1.476 1.469 0 2.571-.492 3.428-1.476.857-.985 1.224-2.338 1.224-4.061 0-1.107-.245-2.091-.612-2.953-.367-.861-.979-1.476-1.592-1.968-.734-.492-1.469-.739-2.448-.739-1.347 0-2.571.493-3.428 1.477-.857.984-1.224 2.338-1.224 4.06-.123 1.846.367 3.199 1.224 4.184zM174.076 175.161c0 .493-.123.985-.245 1.354-.367.738-.979 1.353-1.959 1.599-.367.123-.612.123-.857.123-.734 0-1.224-.123-1.714-.369v-.123c.857.123 1.592.123 2.204-.246.612-.369.979-.861 1.224-1.476.123-.246.123-.492.123-.615v-.37c0-.738-.245-1.353-.612-1.845-.368-.492-.98-.738-1.592-.738h-1.959v9.966c0 .246.123.492.368.738.244.246.489.246.734.246h.245v.123h-3.673v-.123h.245c.245 0 .49-.123.735-.246.245-.246.367-.492.367-.738v-9.228c0-.246-.122-.492-.367-.738-.245-.123-.49-.247-.735-.247h-.245v-.123h4.285c1.102 0 1.836.247 2.449.862.612.492.979 1.23.979 2.214zM188.032 172.208h-.245c-.245 0-.49.123-.612.247-.123.123-.245.369-.245.615v6.521c0 1.353-.367 2.338-1.224 3.199-.857.738-1.959 1.23-3.306 1.23-1.346 0-2.448-.369-3.305-1.23-.857-.738-1.224-1.846-1.224-3.076v-6.521c0-.246-.123-.369-.245-.615-.123-.123-.367-.247-.612-.247h-.368v-.369h3.306v.123h-.245c-.367 0-.612.123-.734.37-.123.123-.123.246-.123.369v6.398c0 1.23.367 2.214.979 2.953.613.738 1.47 1.107 2.571 1.107 1.102 0 1.959-.369 2.694-1.107.612-.739.979-1.6.979-2.707v-6.521c0-.369-.245-.616-.49-.739-.122 0-.244-.123-.367-.123h-.245v-.123h3.061v.246zm-5.509-1.23c.734-.984 1.469-1.723 1.959-2.338.244.246.489.615.612.862-.612.492-1.469.861-2.571 1.476zM194.643 183.651h-4.039v-.123h.244c.245 0 .49-.123.735-.246.245-.246.367-.492.367-.738v-9.351c0-.246-.122-.492-.367-.738-.245-.247-.49-.247-.735-.247h-.244v-.123h3.305c1.102 0 1.959.247 2.693.739.612.492.98 1.23.98 1.968 0 .616-.123 1.231-.49 1.6-.367.492-.735.738-1.347.861.857.123 1.592.492 2.081 1.108.49.615.735 1.353.735 2.214 0 .862-.367 1.6-.979 2.215-.735.615-1.714.861-2.939.861zm-1.713-.615h1.591c.857 0 1.469-.246 1.959-.738s.734-1.108.734-1.969c0-.492-.122-.861-.244-1.23-.123-.369-.368-.615-.613-.862-.612-.492-1.591-.738-2.815-.738v-.123h.489c.123 0 .368 0 .612-.123.245 0 .368-.123.613-.246.122-.123.367-.246.489-.492.368-.369.49-.861.49-1.6 0-.738-.245-1.353-.612-1.722s-.98-.615-1.836-.615h-.857v10.458zM201.377 183.405c.245 0 .489-.123.734-.246.245-.246.367-.492.367-.738v-9.228c0-.246-.122-.492-.367-.738-.245-.247-.489-.247-.734-.247h-.245v-.246h3.673v.123h-.245c-.368 0-.735.123-.857.493-.123.123-.123.369-.123.492v9.843h2.326c.857 0 1.469-.123 1.837-.492.489-.369.734-.861 1.101-1.6h.123l-.979 2.707h-6.856v-.123h.245zM211.415 183.405c.245 0 .489-.123.734-.246.245-.246.368-.492.368-.738v-9.228c0-.246-.123-.492-.368-.738-.245-.247-.489-.247-.734-.247h-.245v-.246h3.673v.123h-.245c-.245 0-.49.123-.735.247-.245.246-.367.492-.367.738v9.228c0 .246.122.492.367.738s.49.246.735.246h.245v.123h-3.673v-.123h.245v.123zM219.006 182.175c-1.102-1.108-1.592-2.584-1.592-4.43 0-1.845.49-3.322 1.592-4.429 1.101-1.108 2.57-1.723 4.407-1.723 1.469 0 2.815.369 3.917 1.108l.368 2.337h-.123c-.245-.984-.734-1.722-1.469-2.214-.734-.492-1.591-.739-2.571-.739-1.469 0-2.571.493-3.428 1.477-.857.984-1.346 2.338-1.346 4.06 0 1.723.367 2.953 1.224 4.061.857.984 1.959 1.476 3.428 1.599 1.224 0 2.203-.369 3.06-.984.857-.738 1.469-1.969 1.592-3.568h.122l-.245 2.583c-.979 1.6-2.57 2.461-4.652 2.461-1.714.123-3.183-.492-4.284-1.599zM232.716 173.439c1.102-1.107 2.571-1.723 4.285-1.723s3.183.616 4.285 1.723c1.102 1.107 1.714 2.584 1.714 4.429 0 1.846-.612 3.322-1.714 4.43-1.102 1.107-2.571 1.722-4.285 1.722s-3.183-.615-4.285-1.722c-1.101-1.108-1.591-2.584-1.591-4.43 0-1.845.49-3.322 1.591-4.429zm.98 8.367c.857.984 1.959 1.476 3.428 1.476 1.346 0 2.571-.492 3.428-1.476.857-.985 1.224-2.338 1.224-4.061 0-1.107-.245-2.091-.612-2.953-.368-.861-.98-1.476-1.592-1.968-.734-.492-1.469-.739-2.448-.739-1.347 0-2.571.493-3.428 1.477-.857.984-1.224 2.338-1.224 4.06-.123 1.846.367 3.199 1.224 4.184zM80.546 193.248c.856.862 1.224 1.846 1.224 3.2 0 1.353-.367 2.337-1.224 3.199-.857.861-1.837 1.23-3.183 1.23H73.2v-.123h.123c.245 0 .367-.123.612-.246.122-.123.245-.369.245-.615v-7.014c0-.246-.123-.369-.245-.492-.123-.123-.368-.246-.612-.246H73.2v-.123h4.163c1.224 0 2.326.369 3.183 1.23zm-5.632-.861v7.998h2.449c.734 0 1.346-.123 1.836-.492s.98-.862 1.224-1.354c.245-.615.49-1.353.49-2.091 0-1.231-.367-2.215-.98-2.953-.612-.739-1.469-1.108-2.57-1.108h-2.449zM84.585 193.125c.857-.861 1.836-1.23 3.183-1.23 1.346 0 2.448.369 3.183 1.23.857.862 1.224 1.969 1.224 3.322 0 1.354-.367 2.461-1.224 3.323-.857.861-1.96 1.23-3.183 1.23-1.347 0-2.449-.369-3.183-1.23-.857-.862-1.225-1.969-1.225-3.323 0-1.353.368-2.46 1.225-3.322zm.734 6.275c.612.739 1.47 1.108 2.571 1.108 1.102 0 1.959-.369 2.57-1.108.613-.738.98-1.722.98-3.076 0-.861-.122-1.599-.49-2.214-.244-.616-.734-1.108-1.224-1.477s-1.102-.492-1.836-.492c-1.102 0-1.836.369-2.57 1.107-.613.739-.98 1.723-.98 3.076 0 1.354.245 2.338.98 3.076zM97.194 200.631c.245 0 .368-.123.612-.246.123-.123.245-.369.245-.615v-6.891c0-.246-.122-.369-.245-.492-.122-.123-.367-.246-.49-.246h-.122v-.123h3.673c.245 0 .49 0 .857-.123.245 0 .49-.123.612-.123v1.6h-.367v-.247c0-.246-.123-.369-.245-.492s-.245-.246-.49-.246h-2.57v3.814h2.081c.122 0 .245-.123.367-.246s.122-.246.122-.492v-.123h.123v1.969h-.123v-.246c0-.123 0-.246-.122-.369s-.245-.123-.367-.246h-2.082v3.691h1.714c.613 0 1.102-.123 1.347-.369.367-.246.612-.739.857-1.231h.122l-.734 1.969h-5.142v-.123h.367v.246zM104.295 200.262v-.616c0-.369.122-.738.245-1.107h.122v.246c0 .492.123.985.49 1.231.245.369.734.492 1.224.492s.979-.123 1.224-.492c.368-.37.49-.739.49-1.231 0-.492-.122-.861-.49-1.107l-2.326-2.215c-.489-.369-.612-.861-.612-1.476 0-.616.245-1.108.612-1.477.368-.369.98-.615 1.592-.615.367 0 .612 0 1.102.123h.489v1.476h-.367c0-.369-.122-.738-.367-.984s-.612-.369-.98-.369c-.367 0-.734.123-1.101.369-.245.246-.368.615-.368 1.107 0 .37.123.739.49 1.108l2.448 2.215c.368.369.613.861.613 1.599 0 .615-.245 1.231-.613 1.6-.367.369-.979.615-1.713.615-.368 0-.735 0-1.102-.123-.612 0-.857-.123-1.102-.369zM116.905 193.125c0-.246-.123-.369-.245-.492s-.245-.246-.49-.246h-2.326v7.506c0 .246.123.369.245.492.123.123.367.246.612.246h.123v.123h-2.694v-.123h.123c.245 0 .367-.123.612-.246.122-.123.245-.369.245-.492v-7.506h-2.326c-.245 0-.368.123-.49.246s-.245.369-.245.492v.247h-.122v-1.6c.122 0 .367.123.612.123s.612.123.857.123h4.04c.367 0 .734 0 .979-.123s.49-.123.49-.123v1.6h-.123v-.247h.123zM125.352 200.631l.122.123h-2.815v-.123h.122c.122 0 .245 0 .367-.123.123-.123.123-.246.123-.369v-.246l-.735-2.092h-3.428l-.857 2.092v.246c0 .123 0 .246.123.369.122.123.245.123.367.123h.122v.123h-2.448v-.123h.122c.245 0 .368-.123.613-.246.244-.123.367-.369.489-.615l2.816-6.768c.245-.615.49-1.107.49-1.23h.122l3.306 7.998c.122.246.244.492.489.615.123.246.245.246.49.246zm-6.121-3.199h3.06l-1.469-4.06-1.591 4.06zM133.554 193.248c.857.862 1.225 1.846 1.225 3.2 0 1.353-.368 2.337-1.225 3.199-.857.861-1.836 1.23-3.183 1.23h-4.162v-.123h.122c.245 0 .368-.123.613-.246.122-.123.244-.369.244-.615v-7.014c0-.246-.122-.369-.244-.492-.123-.123-.368-.246-.613-.246h-.122v-.123h4.162c1.347 0 2.449.369 3.183 1.23zm-5.631-.861v7.998h2.448c.735 0 1.347-.123 1.837-.492.489-.369.979-.862 1.224-1.354.245-.615.49-1.353.49-2.091 0-1.231-.368-2.215-.98-2.953-.612-.739-1.469-1.108-2.571-1.108h-2.448zM137.716 193.125c.857-.861 1.837-1.23 3.183-1.23 1.347 0 2.449.369 3.183 1.23.857.862 1.225 1.969 1.225 3.322 0 1.354-.368 2.461-1.225 3.323-.857.861-1.958 1.23-3.183 1.23-1.346 0-2.448-.369-3.183-1.23-.857-.862-1.224-1.969-1.224-3.323 0-1.353.367-2.46 1.224-3.322zm.613 6.275c.612.739 1.469 1.108 2.57 1.108 1.102 0 1.959-.369 2.571-1.108.612-.738.98-1.722.98-3.076 0-.861-.123-1.599-.49-2.214-.245-.616-.735-1.108-1.224-1.477-.49-.369-1.102-.492-1.837-.492-1.101 0-1.836.369-2.57 1.107-.613.739-.98 1.723-.98 3.076 0 1.354.367 2.338.98 3.076zM157.426 193.248c.857.862 1.225 1.846 1.225 3.2 0 1.353-.368 2.337-1.225 3.199-.857.861-1.836 1.23-3.183 1.23h-4.162v-.123h.122c.245 0 .368-.123.613-.246.122-.123.244-.369.244-.615v-7.014c0-.246-.122-.369-.244-.492-.123-.123-.368-.246-.613-.246h-.122v-.123h4.162c1.347 0 2.449.369 3.183 1.23zm-5.631-.861v7.998h2.448c.735 0 1.347-.123 1.837-.492.489-.369.979-.862 1.224-1.354.245-.615.49-1.353.49-2.091 0-1.231-.368-2.215-.98-2.953-.612-.739-1.469-1.108-2.571-1.108h-2.448zM167.832 200.631l.122.123h-2.815v-.123h.122c.123 0 .245 0 .367-.123.123-.123.123-.246.123-.369v-.246l-.735-2.092h-3.305l-.857 2.092v.246c0 .123 0 .246.122.369.123.123.245.123.368.123h.122v.123h-2.448v-.123h.122c.245 0 .367-.123.612-.246s.367-.369.49-.615l2.816-6.768c.244-.615.489-1.107.489-1.23h.123l3.305 7.998c.122.246.245.492.49.615 0 .246.245.246.367.246zm-5.999-3.199h3.061l-1.469-4.06-1.592 4.06zM177.749 194.479c0 .369-.122.738-.245.984-.245.615-.734.985-1.469 1.231-.245.123-.49.123-.612.123-.49 0-.979-.123-1.347-.246v-.123c.612.123 1.102.123 1.714-.247.49-.246.735-.615.98-1.107 0-.123.122-.369.122-.492v-.246c0-.615-.122-.984-.49-1.354-.245-.369-.734-.492-1.224-.492h-1.469v7.506c0 .246.122.369.245.615.122.123.367.246.612.246h.122V201h-2.693v-.123h.123c.244 0 .367-.123.612-.246.122-.123.245-.369.245-.615v-7.137c0-.246-.123-.369-.245-.492-.123-.123-.368-.246-.49-.246h-.122v-.123h3.183c.734 0 1.469.246 1.836.615.367.492.612 1.108.612 1.846zM186.44 200.631l.123.123h-2.816v-.123h.123c.122 0 .244 0 .367-.123.122-.123.122-.246.122-.369v-.246l-.734-2.092h-3.306l-.857 2.092v.246c0 .123 0 .246.123.369.122.123.245.123.367.123h.122v.123h-2.448v-.123h.122c.245 0 .368-.123.613-.246.244-.123.367-.369.489-.615l2.816-6.768c.245-.615.49-1.107.49-1.23h.122l3.305 7.998c.123.246.245.492.49.615 0 .246.245.246.367.246zm-5.998-3.199h3.06l-1.469-4.06-1.591 4.06zM189.868 192.387h-.734v7.383c0 .246.122.369.245.615.122.123.367.246.612.246h.122v.123h-2.693v-.123h.122c.245 0 .368-.123.612-.246.123-.123.245-.369.245-.492v-6.891c0-.246-.122-.369-.245-.615-.122-.123-.367-.246-.612-.246h-.122v-.123h3.305c.735 0 1.347.246 1.714.615.49.369.612.985.612 1.6 0 .615-.244 1.23-.612 1.722-.367.493-.857.739-1.469.739.123 0 .245.123.49.369l.49.492c.734.984 1.224 1.599 1.346 1.845l.49.493c.122.123.245.123.245.246.122.123.245.123.367.246.245.123.49.123.735.123v.123h-.735c-.367 0-.735-.123-.979-.246l-.735-.369-.367-.369c-.123-.123-.367-.616-.98-1.231-.489-.738-.857-1.107-.857-1.23-.122-.123-.122-.246-.244-.246-.245-.246-.49-.369-.735-.369v-.123h.612c.98 0 1.714-.493 1.959-1.354 0-.123.122-.369.122-.492v-.246c0-.615-.122-.984-.489-1.354-.245-.369-.612-.492-1.102-.492-.245-.123-.49-.123-.735-.123z"/>
    <path fill="#3F5363" d="M203.58 200.631l.122.123h-2.815v-.123h.122c.123 0 .245 0 .367-.123.123-.123.123-.246.123-.369v-.246l-.735-2.092h-3.305l-.857 2.092v.246c0 .123 0 .246.122.369.123.123.245.123.368.123h.122v.123h-2.448v-.123h.122c.245 0 .367-.123.612-.246s.367-.369.49-.615l2.816-6.768c.244-.615.489-1.107.489-1.23h.123l3.305 7.998c.123.246.245.492.49.615 0 .246.122.246.367.246zm-6.121-3.199h3.06l-1.469-4.06-1.591 4.06zM204.559 200.631c.245 0 .367-.123.612-.246.122-.123.245-.369.245-.615v-6.891c0-.246-.123-.369-.245-.492s-.367-.246-.612-.246h-.122v-.123h2.693v.123h-.123c-.244 0-.367.123-.612.246-.122.123-.245.369-.245.492v6.891c0 .246.123.369.245.615.123.123.368.246.612.246h.123v.123h-2.693v-.123h.122zm1.224-9.351c.49-.738 1.102-1.354 1.469-1.723.245.246.368.492.49.615-.49.37-1.224.739-1.959 1.108zM211.782 200.754h-3.06v-.123h.122c.245 0 .367-.123.612-.246.123-.123.245-.369.245-.492v-6.891c0-.246-.122-.369-.245-.492-.122-.123-.367-.246-.612-.246h-.122v-.123h2.448c.857 0 1.469.246 1.959.615s.734.861.734 1.477c0 .492-.122.861-.367 1.23s-.612.492-.979.615c.612.123 1.224.369 1.591.862.368.492.612.984.612 1.722s-.244 1.231-.734 1.6c-.612.246-1.347.492-2.204.492zm-1.346-.369h1.224c.612 0 1.102-.123 1.469-.492.367-.37.49-.862.49-1.477 0-.369 0-.615-.123-.984-.122-.246-.245-.492-.49-.615-.489-.37-1.224-.616-2.203-.616v-.123h.367c.123 0 .245 0 .49-.123.122 0 .367-.123.49-.246l.367-.369c.245-.246.367-.738.367-1.23 0-.493-.122-.985-.49-1.231-.367-.246-.734-.492-1.346-.492h-.612v7.998zM224.269 200.631l.123.123h-2.816v-.123h.123c.122 0 .244 0 .367-.123.122-.123.122-.246.122-.369v-.246l-.734-2.092h-3.306l-.857 2.092v.246c0 .123 0 .246.123.369.122.123.245.123.367.123h.123v.123h-2.449v-.123h.123c.244 0 .367-.123.612-.246.244-.123.367-.369.489-.615l2.816-6.768c.245-.615.49-1.107.49-1.23h.122l3.306 7.998c.122.246.244.492.489.615 0 .246.123.246.367.246zm-6.121-3.199h3.061l-1.469-4.06-1.592 4.06z"/>
</svg>
