<svg xmlns="http://www.w3.org/2000/svg" width="295" height="245" fill="none" viewBox="0 0 295 245">
    <path fill="#F7F7F8" d="M147.702 114.016h-.596v.447h.596v-.447zM147.107 86.167c2.302 0 4.169-1.867 4.169-4.17 0-2.302-1.867-4.17-4.169-4.17-2.303 0-4.169 1.868-4.169 4.17 0 2.303 1.866 4.17 4.169 4.17z"/>
    <path fill="#F7F7F8" d="M109.881 96.145c9.976 4.17 19.506 7.297 23.824 5.957 1.489-.447 2.383-.894 3.574-1.936 1.042-1.042 1.489-2.085 1.936-3.574.446-1.49.446-3.723-.149-6.255 1.489 2.085 2.829 3.574 4.318 4.319 1.34.744 2.382 1.042 3.871 1.042 1.489 0 2.532-.297 3.872-1.042 1.489-.745 3.127-2.532 4.616-4.915-.596 2.83-.745 5.213-.149 6.85.447 1.49.893 2.384 1.936 3.575 1.042 1.042 2.084 1.489 3.573 1.936 4.467 1.34 13.848-1.787 23.825-5.957.149 0 1.042-.893.744-1.49-.595-.893-1.638-.744-2.084-.595-4.914 2.383-14.742 4.766-18.613 3.425-1.042-.446-2.085-.893-2.978-1.787-.894-.893-1.34-1.787-1.787-2.978-1.34-3.425.596-11.616 2.531-16.828.149-.447.298-.894.596-1.34 0-.15.149-.299.149-.448 0-.148 0-.148.149-.297 0 0 0-.15.149-.15 0-.148.149-1.34-.596-1.489h-.298c-.595-.148-1.34.596-1.34.745 0 .149-.149.149-.149.298s-.149.298-.149.447c-.149.447-.446.893-.595 1.34-2.234 5.212-6.701 12.212-10.126 13.7-1.042.448-2.233.746-3.276.746-1.191 0-2.233-.298-3.275-.745-2.681-1.34-6.105-6.106-8.637-10.722-.595-1.639-1.34-3.426-2.084-5.213 0-.149-.745-.893-1.341-.744h-.744c-.745.148-.596 1.34-.596 1.489.745 1.936 1.489 3.723 2.383 5.51 1.489 4.914 2.531 10.871 1.489 13.7-.447 1.043-.894 2.086-1.787 2.98-.893.893-1.787 1.34-2.978 1.786-3.872 1.49-13.699-1.042-18.613-3.425-.447-.149-1.489-.298-2.085.596-.149.744.745 1.49.894 1.49z"/>
    <path fill="#F7F7F8" d="M164.379 93.316c1.638 1.638 4.319 1.638 5.956 0 1.638-1.639 1.638-4.32 0-5.957-1.637-1.638-4.318-1.638-5.956 0-1.638 1.638-1.638 4.319 0 5.957zM130.578 93.316c1.638-1.639 1.638-4.32 0-5.957-1.638-1.638-4.318-1.638-5.956 0-1.638 1.638-1.638 4.319 0 5.957s4.318 1.638 5.956 0zM126.409 110.442c19.209-4.468 19.655 3.723 19.655 3.723h.596v-2.085c-.298-12.36-19.357-4.468-36.332-5.659-2.978-.298-9.232-1.489-9.232-1.489v7.297c.149-.149 8.487 2.085 25.313-1.787z"/>
    <path fill="#F7F7F8" d="M126.409 118.335c19.209-4.468 19.655 3.723 19.655 3.723h.596v-2.085c-.298-12.361-19.357-4.468-36.332-5.659-2.978-.298-9.232-1.49-9.232-1.49v7.298c.149-.149 8.487 2.085 25.313-1.787z"/>
    <path fill="#F7F7F8" d="M126.409 126.079c19.209-4.468 19.655 3.723 19.655 3.723h.596v-2.085c-.298-12.361-19.357-4.468-36.332-5.659-2.978-.298-9.232-1.49-9.232-1.49v7.298c.149 0 8.487 2.233 25.313-1.787zM148.149 111.931v2.085h.596s.446-8.191 19.655-3.723c16.826 3.872 25.164 1.787 25.164 1.787v-7.297s-6.254 1.191-9.232 1.489c-16.677 1.191-35.885-6.702-36.183 5.659z"/>
    <path fill="#F7F7F8" d="M148.149 119.824v2.085h.596s.446-8.191 19.655-3.723c16.826 3.872 25.164 1.787 25.164 1.787v-7.297s-6.254 1.191-9.232 1.489c-16.677 1.191-35.885-6.702-36.183 5.659z"/>
    <path fill="#F7F7F8" d="M148.149 127.717v2.085h.596s.446-8.191 19.655-3.723c16.826 3.871 25.164 1.787 25.164 1.787v-7.298s-6.254 1.192-9.232 1.49c-16.677 1.191-35.885-6.851-36.183 5.659zM62.53 167.628c-.15.447-.447 1.192-.894 2.085-.149-.447-.446-1.191-.744-2.085l-5.212-11.914H53v16.978h1.936v-11.319c0-1.489 0-2.68-.15-3.276.15.745.299 1.34.447 1.787l5.808 12.956h1.042l5.807-13.105c.15-.298.298-.893.447-1.638-.149 1.34-.149 2.383-.149 3.276v11.467h1.936v-17.126H67.89l-5.36 11.914zM75.633 154.97c-.298 0-.596.149-.893.298-.298.297-.298.595-.298.893 0 .298.149.596.298.894.297.297.595.297.893.297.298 0 .596-.148.894-.297.297-.298.446-.596.446-.894 0-.298-.149-.596-.447-.893-.297-.149-.595-.298-.893-.298zM76.527 160.629H74.59v12.211h1.936v-12.211zM86.503 160.331c-1.787 0-3.127.744-4.02 2.234v-2.085h-1.936v12.211h1.936v-6.85c0-1.191.297-2.085.893-2.83.596-.744 1.49-1.042 2.382-1.042 1.936 0 2.83 1.34 2.83 3.872v6.999h1.935v-7.446c0-1.638-.297-2.829-1.042-3.723-.596-.893-1.638-1.34-2.978-1.34zM96.33 160.629h-1.935v12.211h1.936v-12.211zM95.288 154.97c-.297 0-.595.149-.893.298-.298.297-.298.595-.298.893 0 .298.15.596.298.894.298.297.596.297.893.297.298 0 .596-.148.894-.297.298-.298.447-.596.447-.894 0-.298-.15-.596-.447-.893-.15-.149-.447-.298-.894-.298zM106.605 167.33c-.297-.298-.595-.447-1.042-.744-.447-.149-.893-.447-1.489-.596-.447-.149-.745-.298-1.042-.447-.298-.149-.596-.298-.745-.447-.149-.149-.447-.298-.447-.595-.148-.149-.148-.447-.148-.745s0-.447.148-.745c.149-.149.298-.446.447-.595.149-.149.447-.298.745-.298.297-.149.595-.149 1.042-.149 1.191 0 2.234.298 3.127.894v-1.936c-.893-.298-1.787-.596-2.829-.596-.596 0-1.191.149-1.787.298-.596.149-1.042.446-1.489.744-.447.298-.745.596-1.042 1.043-.298.447-.447.893-.447 1.489 0 .447 0 .893.149 1.191.149.298.298.596.595.894.298.298.596.447 1.043.744.446.149.893.447 1.489.596.446.149.744.298 1.042.447l.894.447c.297.149.446.446.595.595.149.298.149.447.149.894 0 1.191-.893 1.638-2.531 1.638-1.34 0-2.383-.447-3.574-1.191v2.085c.893.446 1.936.744 3.276.744.595 0 1.191 0 1.787-.149.595-.149 1.042-.298 1.489-.595.446-.298.744-.596 1.042-1.043.298-.447.447-.893.447-1.638 0-.447-.149-.894-.298-1.34 0-.298-.298-.596-.596-.894zM113.157 157.054l-1.936.596v2.979h-2.085v1.638h2.085v7.148c0 2.383 1.042 3.574 3.127 3.574.744 0 1.34-.149 1.787-.447v-1.638c-.298.298-.745.447-1.34.447-.596 0-1.043-.149-1.341-.596-.297-.297-.446-.893-.446-1.787v-6.85h3.127v-1.638h-3.127v-3.426h.149zM123.133 158.246l3.127-3.872h-2.085l-2.68 3.872h1.638zM123.431 160.331c-1.638 0-2.978.596-4.02 1.787-1.042 1.191-1.638 2.68-1.638 4.616 0 1.936.447 3.575 1.489 4.617 1.042 1.043 2.382 1.638 4.02 1.638 1.787 0 3.127-.447 4.319-1.191v-1.787c-1.192.893-2.383 1.34-3.723 1.34-1.191 0-2.234-.298-2.829-1.042-.745-.745-1.043-1.787-1.043-3.128h8.637v-1.042c0-1.787-.447-3.276-1.34-4.319-1.043-1.042-2.234-1.489-3.872-1.489zm-3.573 5.212c.148-1.042.595-1.936 1.191-2.532.595-.595 1.489-1.042 2.382-1.042.894 0 1.638.298 2.234.894.595.595.744 1.489.744 2.68h-6.551zM134.748 161.075c-.596.447-1.043 1.192-1.341 1.936v-2.531h-1.935v12.211h1.935v-6.254c0-1.341.298-2.383.894-3.277.595-.744 1.191-1.191 2.084-1.191.596 0 1.192.149 1.489.447v-2.085c-.297-.149-.595-.149-1.191-.149-.744.149-1.34.447-1.935.893zM141.001 154.97c-.298 0-.595.149-.893.298-.298.297-.298.595-.298.893 0 .298.149.596.298.894.149.297.595.297.893.297.298 0 .596-.148.894-.297.298-.298.446-.596.446-.894 0-.298-.148-.596-.446-.893-.298-.149-.596-.298-.894-.298zM141.895 160.629h-1.936v12.211h1.936v-12.211zM151.276 160.331c-1.936 0-3.425.596-4.467 1.787-1.191 1.191-1.638 2.681-1.638 4.765 0 1.936.596 3.426 1.638 4.468 1.042 1.191 2.531 1.638 4.318 1.638 1.787 0 3.276-.595 4.467-1.787 1.042-1.191 1.638-2.68 1.638-4.616 0-1.936-.447-3.575-1.489-4.617-1.191-1.042-2.68-1.638-4.467-1.638zm2.68 9.829c-.744.744-1.638 1.191-2.978 1.191-1.191 0-2.233-.447-2.978-1.191-.744-.894-1.042-1.936-1.042-3.426 0-1.489.298-2.68 1.042-3.574.745-.893 1.787-1.34 2.978-1.34 1.191 0 2.234.447 2.978 1.191.745.894 1.042 1.936 1.042 3.575 0 1.638-.297 2.829-1.042 3.574zM175.994 157.055c-1.043-.894-2.383-1.341-4.17-1.341h-4.616v16.978h1.936v-6.404h2.234c1.936 0 3.425-.447 4.467-1.489 1.042-1.043 1.638-2.383 1.638-4.021s-.447-2.83-1.489-3.723zm-1.638 6.552c-.745.596-1.787.894-3.127.894h-2.085v-7h2.383c2.68 0 4.02 1.192 4.02 3.426-.149 1.191-.447 2.085-1.191 2.68zM188.353 167.628c0 1.191-.298 2.085-.894 2.681-.595.744-1.34 1.042-2.382 1.042-1.936 0-2.978-1.34-2.978-3.872v-6.999h-1.936v7.297c0 3.425 1.489 5.212 4.318 5.212 1.638 0 2.978-.744 3.723-2.234v1.936h1.936V160.48h-1.936v7.148h.149zM185.375 158.246l3.127-3.872h-1.936l-2.68 3.872h1.489zM200.563 160.331c-1.787 0-3.276.745-4.17 2.383v-8.042h-1.935v18.02h1.935v-1.788c.894 1.341 2.085 2.085 3.723 2.085 1.787 0 3.127-.595 4.02-1.787 1.043-1.191 1.489-2.829 1.489-4.914 0-1.787-.446-3.276-1.34-4.319-.893-1.042-2.233-1.638-3.722-1.638zm1.935 9.68c-.595.893-1.638 1.34-2.829 1.34-1.042 0-1.787-.298-2.531-1.042-.596-.745-1.043-1.489-1.043-2.532v-1.638c0-1.191.298-2.234 1.043-2.979.744-.744 1.638-1.191 2.68-1.191 1.042 0 1.936.447 2.531 1.191.596.745.894 1.788.894 3.128.298 1.638 0 2.829-.745 3.723zM210.539 154.821h-1.935v18.019h1.935v-18.019zM215.602 154.97c-.298 0-.596.149-.894.298-.297.297-.297.595-.297.893 0 .298.149.596.297.894.149.297.596.297.894.297.298 0 .595-.148.893-.297.298-.298.447-.596.447-.894 0-.298-.149-.596-.447-.893-.298-.149-.595-.298-.893-.298zM216.495 160.629h-1.935v12.211h1.935v-12.211zM221.409 162.118c-1.191 1.191-1.787 2.829-1.787 4.765 0 1.787.596 3.277 1.638 4.468 1.042 1.191 2.531 1.638 4.169 1.638 1.34 0 2.383-.298 3.276-.893v-1.787c-.893.744-1.936 1.042-2.978 1.042-1.191 0-2.233-.447-2.978-1.191-.744-.894-1.191-1.936-1.191-3.426 0-1.489.447-2.68 1.191-3.574.745-.893 1.787-1.34 3.127-1.34 1.042 0 1.936.298 2.829.894v-1.936c-.744-.447-1.787-.596-2.829-.596-1.787.149-3.276.744-4.467 1.936zM241.362 161.969c-1.042-1.191-2.382-1.638-4.318-1.638-1.936 0-3.425.596-4.467 1.787-1.191 1.191-1.638 2.681-1.638 4.765 0 1.936.596 3.426 1.638 4.468 1.042 1.191 2.531 1.638 4.318 1.638 1.787 0 3.276-.595 4.467-1.787 1.043-1.191 1.638-2.68 1.638-4.616 0-1.936-.595-3.426-1.638-4.617zm-1.489 8.191c-.744.744-1.638 1.191-2.978 1.191-1.191 0-2.233-.447-2.978-1.191-.744-.894-1.042-1.936-1.042-3.426 0-1.489.298-2.68 1.042-3.574.745-.893 1.787-1.34 2.978-1.34 1.191 0 2.234.447 2.978 1.191.745.894 1.042 1.936 1.042 3.575 0 1.638-.297 2.829-1.042 3.574zM75.037 135.461l-3.573 9.531h1.191l.894-2.681h4.02l1.042 2.681h1.191l-3.722-9.531h-1.043zm-1.042 5.808l1.49-4.021c0-.149.148-.298.148-.596 0 .298.149.447.149.596l1.49 4.021h-3.277zM83.674 145.141c.298-.149.595-.149.893-.298.298-.149.447-.298.596-.596.149-.298.298-.595.298-.893 0-.298 0-.447-.15-.745-.148-.149-.148-.447-.446-.596-.149-.149-.447-.297-.596-.446-.297-.149-.446-.298-.744-.298-.298-.149-.447-.149-.596-.298-.148-.149-.297-.149-.446-.298l-.298-.298c-.15-.149-.15-.298-.15-.447 0-.148 0-.297.15-.446 0-.149.149-.149.298-.298s.297-.149.446-.149h.596c.596 0 1.191.149 1.787.447v-1.043c-.447-.149-1.043-.298-1.638-.298-.298 0-.596 0-1.042.149-.447.149-.596.149-.894.447-.298.149-.447.447-.596.596-.148.149-.148.595-.148.893 0 .298 0 .447.148.745.15.149.15.298.298.596.15.149.298.297.596.446.298.149.447.298.745.298.148.149.446.149.595.298.149.149.298.149.447.298.149.149.298.149.298.298.148.149.148.298.148.447 0 .595-.446.893-1.489.893-.744 0-1.34-.149-1.935-.596v1.192c.446.298 1.19.447 1.787.447.297-.447.595-.447 1.042-.447zM90.523 142.013c-.149-.149-.446-.297-.595-.446-.298-.149-.447-.298-.745-.298-.298-.149-.447-.149-.595-.298-.15-.149-.298-.149-.447-.298l-.298-.298c0-.149-.149-.298-.149-.447 0-.148 0-.297.15-.446 0-.149.148-.149.297-.298s.298-.149.447-.149h.595c.596 0 1.191.149 1.787.447v-1.043c-.447-.149-1.042-.298-1.638-.298-.298 0-.595 0-1.042.149-.447.149-.596.149-.894.447-.297.149-.446.447-.595.596-.15.298-.15.595-.15.893 0 .298 0 .447.15.745.149.149.149.298.297.596.15.149.298.297.596.446.298.149.447.298.745.298.149.149.446.149.595.298.15.149.298.149.447.298.149.149.298.149.298.298.149.149.149.298.149.447 0 .595-.447.893-1.49.893-.744 0-1.34-.149-1.935-.596v1.192c.447.298 1.191.447 1.787.447.298 0 .744 0 1.042-.149.298-.149.596-.149.894-.298.297-.149.446-.298.595-.596.149-.298.298-.596.298-.893 0-.298 0-.447-.149-.745-.149-.596-.298-.745-.447-.894zM95.735 137.992c-1.043 0-1.936.298-2.531.894-.596.596-.894 1.489-.894 2.681 0 1.042.298 1.936.894 2.531.595.596 1.34.894 2.382.894s1.787-.298 2.531-1.043c.745-.744.894-1.489.894-2.68 0-1.043-.298-1.936-.894-2.681-.446-.298-1.34-.596-2.382-.596zm1.638 5.66c-.447.446-.894.744-1.638.744-.745 0-1.191-.298-1.638-.744-.447-.447-.596-1.043-.596-1.936 0-.894.15-1.49.596-1.936.447-.447.893-.745 1.638-.745.744 0 1.191.298 1.638.745.447.446.595 1.191.595 1.936 0 .744-.297 1.34-.595 1.936zM103.627 145.141c.744 0 1.34-.149 1.936-.447v-1.043c-.596.447-1.043.596-1.638.596-.745 0-1.34-.298-1.638-.744-.447-.447-.596-1.043-.596-1.936 0-.745.298-1.49.596-1.936.447-.447 1.042-.745 1.787-.745.595 0 1.191.149 1.638.596v-1.192c-.447-.149-1.043-.298-1.638-.298-1.043 0-1.936.298-2.532 1.043-.595.745-.893 1.638-.893 2.681 0 1.042.298 1.787.893 2.531.298.596 1.043.894 2.085.894zM108.094 138.141h-1.042v6.851h1.042v-6.851zM107.647 135.014c-.149 0-.297 0-.446.149-.149.149-.149.298-.149.447 0 .149 0 .446.149.446.149.149.297.149.446.149.149 0 .298 0 .447-.149.149-.149.149-.297.149-.446 0-.149 0-.447-.149-.447 0 0-.149-.149-.447-.149zM115.39 144.992v-4.468c0-1.638-.744-2.532-2.382-2.532-.894 0-1.638.149-2.383.596v1.192c.596-.596 1.34-.894 2.234-.894.893 0 1.34.596 1.34 1.787l-2.085.298c-1.489.149-2.233.893-2.233 2.234 0 .595.149 1.042.595 1.489.447.298.894.596 1.638.596.894 0 1.638-.447 2.085-1.192v.894h1.191zm-1.638-1.34c-.297.446-.744.595-1.34.595-.447 0-.744-.149-.893-.298-.298-.149-.447-.446-.447-.744 0-.447.149-.745.447-.894.298-.149.595-.298 1.191-.447l1.638-.297v.744c-.149.596-.298 1.043-.596 1.341zM119.411 146.183h.298c.595 0 .893.149.893.447 0 .447-.298.596-.893.596h-.447v.595h.447c1.191 0 1.786-.446 1.786-1.191 0-.298-.148-.596-.297-.745-.298-.149-.596-.297-.894-.297v-.596c.745 0 1.34-.149 1.787-.447v-1.042c-.596.446-1.042.595-1.638.595-.744 0-1.34-.298-1.638-.744-.447-.447-.595-1.043-.595-1.936 0-.745.297-1.49.595-1.936.447-.447 1.043-.745 1.787-.745.596 0 1.191.149 1.638.596v-1.192c-.447-.149-1.042-.297-1.638-.297-1.042 0-1.936.297-2.531 1.042-.596.745-.894 1.638-.894 2.681 0 1.042.298 1.787.894 2.531.446.447 1.042.745 1.638.894v1.191h-.298zM126.26 137.992c-.893 0-1.638.149-2.382.596v1.192c.595-.596 1.34-.894 2.233-.894.894 0 1.34.596 1.34 1.787l-2.084.298c-1.489.149-2.234.893-2.234 2.234 0 .595.149 1.042.596 1.489.447.298.893.596 1.638.596.893 0 1.638-.447 2.084-1.192v.894h1.043v-4.468c.149-1.638-.745-2.532-2.234-2.532zm1.191 4.319c0 .596-.148 1.043-.595 1.489-.298.447-.745.596-1.34.596-.447 0-.745-.149-.894-.298-.297-.149-.297-.446-.297-.744 0-.447.148-.745.446-.894.298-.149.596-.298 1.191-.447l1.638-.297v.595h-.149zM127.005 136.056c-.298 0-.596-.149-.894-.297-.446-.298-.744-.298-1.042-.298-.447 0-.744.149-.893.446-.149.298-.298.596-.298 1.192h.596c0-.447.148-.745.595-.745.149 0 .447.149.745.298.446.298.744.298 1.042.298.298 0 .596-.149.893-.447.149-.298.298-.744.298-1.191h-.595c.149.447 0 .744-.447.744zM135.939 144.247c.595-.596.893-1.489.893-2.68 0-1.043-.298-1.936-.893-2.681-.596-.596-1.341-.894-2.383-.894s-1.936.298-2.531.894c-.596.596-.894 1.489-.894 2.681 0 1.042.298 1.936.894 2.531.595.596 1.34.894 2.382.894 1.191.149 1.936-.149 2.532-.745zm-4.021-.744c-.447-.447-.595-1.043-.595-1.936 0-.894.148-1.49.595-1.936.447-.447.894-.745 1.638-.745.745 0 1.191.298 1.638.745.447.446.596 1.191.596 1.936 0 .893-.149 1.489-.596 1.936-.447.446-.893.744-1.638.744-.595 0-1.191-.149-1.638-.744zM148.447 138.29c0-.893-.298-1.638-.894-2.085-.595-.446-1.34-.744-2.382-.744h-2.68v9.531h1.191v-3.574h1.191c1.042 0 1.936-.298 2.532-.894.744-.596 1.042-1.34 1.042-2.234zm-1.787 1.638c-.447.298-1.042.596-1.787.596h-1.191v-3.872h1.34c1.489 0 2.234.596 2.234 1.936 0 .447-.149.894-.596 1.34zM149.191 143.205c0 .595.149 1.042.596 1.489.447.298.893.596 1.638.596.893 0 1.638-.447 2.085-1.192v.894h1.042v-4.468c0-1.638-.745-2.532-2.383-2.532-.893 0-1.637.149-2.382.596v1.192c.596-.596 1.34-.894 2.234-.894.893 0 1.34.596 1.34 1.787l-2.085.298c-1.34.298-2.085 1.042-2.085 2.234zm4.319-1.638v.744c0 .596-.149 1.043-.596 1.489-.298.447-.745.596-1.34.596-.447 0-.745-.149-.894-.298-.297-.149-.297-.446-.297-.744 0-.447.149-.745.446-.894.298-.149.596-.298 1.192-.447l1.489-.446zM158.423 138.439c-.298.298-.596.596-.744 1.192v-1.341h-1.043v6.702h1.043v-3.425c0-.745.148-1.341.446-1.787.298-.447.745-.596 1.191-.596.298 0 .596 0 .894.149v-1.192c-.149 0-.298-.149-.596-.149-.446.149-.893.298-1.191.447zM163.784 137.992c-.894 0-1.638.149-2.383.596v1.192c.596-.596 1.34-.894 2.234-.894.893 0 1.34.596 1.34 1.787l-1.787.298c-1.489.149-2.233.893-2.233 2.234 0 .595.148 1.042.595 1.489.447.298.894.596 1.638.596.894 0 1.638-.447 2.085-1.192v.894h1.042v-4.468c0-1.638-.893-2.532-2.531-2.532zm1.34 4.319c0 .596-.149 1.043-.596 1.489-.298.447-.744.596-1.34.596-.447 0-.744-.149-.893-.298-.298-.149-.298-.446-.298-.744 0-.447.149-.745.447-.894.297-.149.595-.298 1.191-.447l1.638-.297v.595h-.149zM169.442 135.312c-.149-.149-.298-.149-.446-.149-.149 0-.298 0-.447.149-.149.149-.149.298-.149.447 0 .148 0 .446.149.446s.298.149.447.149c.148 0 .297 0 .446-.149.149-.149.149-.298.149-.446 0-.149 0-.298-.149-.447zM169.442 138.141H168.4v6.851h1.042v-6.851zM175.101 137.992c-1.043 0-1.787.447-2.383 1.341v-4.468h-1.042v10.127h1.042v-1.043c.447.745 1.191 1.192 2.085 1.192.893 0 1.787-.298 2.233-1.043.596-.744.894-1.638.894-2.68 0-1.043-.298-1.787-.745-2.383-.447-.745-1.191-1.043-2.084-1.043zm1.191 5.511c-.447.446-.894.744-1.489.744-.596 0-1.043-.149-1.34-.596-.298-.446-.596-.893-.596-1.489v-.893c0-.596.149-1.192.596-1.638.446-.447.893-.596 1.489-.596.595 0 1.042.149 1.489.596.297.446.595 1.042.595 1.787-.298.893-.446 1.638-.744 2.085zM183.29 143.949v1.043h1.042v-4.468c0-1.638-.744-2.532-2.382-2.532-.894 0-1.638.149-2.383.596v1.192c.596-.596 1.34-.894 2.234-.894.893 0 1.34.596 1.34 1.787l-2.085.298c-1.489.149-2.233.893-2.233 2.234 0 .595.149 1.042.595 1.489.447.298.894.596 1.638.596 1.043-.149 1.787-.447 2.234-1.341zm-3.127-.744c0-.447.149-.745.447-.894.297-.149.595-.298 1.191-.447l1.638-.297v.744c0 .596-.149 1.043-.596 1.489-.298.447-.744.596-1.34.596-.447 0-.745-.149-.893-.298-.298-.298-.447-.595-.447-.893zM189.842 137.992c-1.043 0-1.787.447-2.234 1.341v-1.192h-1.042v6.851h1.042v-3.872c0-.596.149-1.192.596-1.489.298-.447.744-.596 1.34-.596 1.042 0 1.638.745 1.638 2.234v3.723h1.042v-4.17c0-.894-.149-1.638-.595-2.085-.447-.447-1.043-.745-1.787-.745zM198.032 143.949v1.043h1.042v-4.468c0-1.638-.745-2.532-2.383-2.532-.893 0-1.637.149-2.382.596v1.192c.596-.596 1.34-.894 2.234-.894.893 0 1.34.596 1.34 1.787l-1.936.298c-1.489.149-2.234.893-2.234 2.234 0 .595.149 1.042.596 1.489.447.298.893.596 1.638.596.893-.149 1.489-.447 2.085-1.341zm-3.276-.744c0-.447.149-.745.446-.894.298-.149.596-.298 1.192-.447l1.638-.297v.744c0 .596-.149 1.043-.596 1.489-.298.447-.745.596-1.34.596-.447 0-.745-.149-.894-.298-.297-.298-.446-.595-.446-.893zM209.646 139.184c-.447-.745-1.192-1.043-2.085-1.043s-1.638.298-2.233 1.043c-.596.744-.894 1.638-.894 2.68 0 1.043.298 1.936.745 2.532.446.596 1.191.894 2.084.894 1.043 0 1.787-.447 2.383-1.341v1.043h1.042v-10.127h-1.042v4.319zm0 2.829c0 .745-.149 1.192-.596 1.638-.447.447-.893.596-1.489.596-.596 0-1.042-.298-1.489-.744-.298-.447-.596-1.043-.596-1.936 0-.894.149-1.49.596-2.085.447-.447.893-.745 1.638-.745.596 0 1.042.149 1.34.596.298.446.596.893.596 1.34v1.34zM216.049 137.992c-1.043 0-1.936.298-2.532.894-.595.596-.893 1.489-.893 2.681 0 1.042.298 1.936.893 2.531.596.596 1.341.894 2.383.894s1.787-.298 2.531-1.043c.745-.744.894-1.489.894-2.68 0-1.043-.298-1.936-.894-2.681-.595-.298-1.489-.596-2.382-.596zm1.489 5.66c-.447.446-.894.744-1.638.744-.745 0-1.191-.298-1.638-.744-.447-.447-.596-1.043-.596-1.936 0-.894.149-1.49.596-1.936.447-.447.893-.745 1.638-.745.744 0 1.191.298 1.638.745.447.446.595 1.191.595 1.936 0 .744-.297 1.34-.595 1.936z"/>
</svg>
